<?xml version="1.0" encoding="utf-8"?>
<svg xmlns="http://www.w3.org/2000/svg" xmlns:xlink="http://www.w3.org/1999/xlink" width="600" height="400" viewBox="0 0 2400 1600">
<defs>
  <clipPath id="clip910">
    <rect x="0" y="0" width="2400" height="1600"/>
  </clipPath>
</defs>
<path clip-path="url(#clip910)" d="M0 1600 L2400 1600 L2400 0 L0 0  Z" fill="#ffffff" fill-rule="evenodd" fill-opacity="1"/>
<defs>
  <clipPath id="clip911">
    <rect x="480" y="0" width="1681" height="1600"/>
  </clipPath>
</defs>
<path clip-path="url(#clip910)" d="M156.112 1486.45 L2352.76 1486.45 L2352.76 123.472 L156.112 123.472  Z" fill="#ffffff" fill-rule="evenodd" fill-opacity="1"/>
<defs>
  <clipPath id="clip912">
    <rect x="156" y="123" width="2198" height="1364"/>
  </clipPath>
</defs>
<polyline clip-path="url(#clip912)" style="stroke:#000000; stroke-linecap:round; stroke-linejoin:round; stroke-width:2; stroke-opacity:0.1; fill:none" points="280.369,1486.45 280.369,123.472 "/>
<polyline clip-path="url(#clip912)" style="stroke:#000000; stroke-linecap:round; stroke-linejoin:round; stroke-width:2; stroke-opacity:0.1; fill:none" points="717.509,1486.45 717.509,123.472 "/>
<polyline clip-path="url(#clip912)" style="stroke:#000000; stroke-linecap:round; stroke-linejoin:round; stroke-width:2; stroke-opacity:0.1; fill:none" points="1154.65,1486.45 1154.65,123.472 "/>
<polyline clip-path="url(#clip912)" style="stroke:#000000; stroke-linecap:round; stroke-linejoin:round; stroke-width:2; stroke-opacity:0.1; fill:none" points="1591.79,1486.45 1591.79,123.472 "/>
<polyline clip-path="url(#clip912)" style="stroke:#000000; stroke-linecap:round; stroke-linejoin:round; stroke-width:2; stroke-opacity:0.1; fill:none" points="2028.93,1486.45 2028.93,123.472 "/>
<polyline clip-path="url(#clip910)" style="stroke:#000000; stroke-linecap:round; stroke-linejoin:round; stroke-width:4; stroke-opacity:1; fill:none" points="156.112,1486.45 2352.76,1486.45 "/>
<polyline clip-path="url(#clip910)" style="stroke:#000000; stroke-linecap:round; stroke-linejoin:round; stroke-width:4; stroke-opacity:1; fill:none" points="280.369,1486.45 280.369,1467.55 "/>
<polyline clip-path="url(#clip910)" style="stroke:#000000; stroke-linecap:round; stroke-linejoin:round; stroke-width:4; stroke-opacity:1; fill:none" points="717.509,1486.45 717.509,1467.55 "/>
<polyline clip-path="url(#clip910)" style="stroke:#000000; stroke-linecap:round; stroke-linejoin:round; stroke-width:4; stroke-opacity:1; fill:none" points="1154.65,1486.45 1154.65,1467.55 "/>
<polyline clip-path="url(#clip910)" style="stroke:#000000; stroke-linecap:round; stroke-linejoin:round; stroke-width:4; stroke-opacity:1; fill:none" points="1591.79,1486.45 1591.79,1467.55 "/>
<polyline clip-path="url(#clip910)" style="stroke:#000000; stroke-linecap:round; stroke-linejoin:round; stroke-width:4; stroke-opacity:1; fill:none" points="2028.93,1486.45 2028.93,1467.55 "/>
<path clip-path="url(#clip910)" d="M232.441 1544.91 L240.08 1544.91 L240.08 1518.55 L231.77 1520.21 L231.77 1515.95 L240.034 1514.29 L244.71 1514.29 L244.71 1544.91 L252.349 1544.91 L252.349 1548.85 L232.441 1548.85 L232.441 1544.91 Z" fill="#000000" fill-rule="evenodd" fill-opacity="1" /><path clip-path="url(#clip910)" d="M261.793 1542.97 L266.677 1542.97 L266.677 1548.85 L261.793 1548.85 L261.793 1542.97 Z" fill="#000000" fill-rule="evenodd" fill-opacity="1" /><path clip-path="url(#clip910)" d="M286.862 1517.37 Q283.251 1517.37 281.423 1520.93 Q279.617 1524.47 279.617 1531.6 Q279.617 1538.71 281.423 1542.27 Q283.251 1545.82 286.862 1545.82 Q290.497 1545.82 292.302 1542.27 Q294.131 1538.71 294.131 1531.6 Q294.131 1524.47 292.302 1520.93 Q290.497 1517.37 286.862 1517.37 M286.862 1513.66 Q292.673 1513.66 295.728 1518.27 Q298.807 1522.85 298.807 1531.6 Q298.807 1540.33 295.728 1544.94 Q292.673 1549.52 286.862 1549.52 Q281.052 1549.52 277.974 1544.94 Q274.918 1540.33 274.918 1531.6 Q274.918 1522.85 277.974 1518.27 Q281.052 1513.66 286.862 1513.66 Z" fill="#000000" fill-rule="evenodd" fill-opacity="1" /><path clip-path="url(#clip910)" d="M317.024 1517.37 Q313.413 1517.37 311.585 1520.93 Q309.779 1524.47 309.779 1531.6 Q309.779 1538.71 311.585 1542.27 Q313.413 1545.82 317.024 1545.82 Q320.659 1545.82 322.464 1542.27 Q324.293 1538.71 324.293 1531.6 Q324.293 1524.47 322.464 1520.93 Q320.659 1517.37 317.024 1517.37 M317.024 1513.66 Q322.834 1513.66 325.89 1518.27 Q328.969 1522.85 328.969 1531.6 Q328.969 1540.33 325.89 1544.94 Q322.834 1549.52 317.024 1549.52 Q311.214 1549.52 308.135 1544.94 Q305.08 1540.33 305.08 1531.6 Q305.08 1522.85 308.135 1518.27 Q311.214 1513.66 317.024 1513.66 Z" fill="#000000" fill-rule="evenodd" fill-opacity="1" /><path clip-path="url(#clip910)" d="M670.079 1544.91 L677.718 1544.91 L677.718 1518.55 L669.408 1520.21 L669.408 1515.95 L677.672 1514.29 L682.347 1514.29 L682.347 1544.91 L689.986 1544.91 L689.986 1548.85 L670.079 1548.85 L670.079 1544.91 Z" fill="#000000" fill-rule="evenodd" fill-opacity="1" /><path clip-path="url(#clip910)" d="M699.431 1542.97 L704.315 1542.97 L704.315 1548.85 L699.431 1548.85 L699.431 1542.97 Z" fill="#000000" fill-rule="evenodd" fill-opacity="1" /><path clip-path="url(#clip910)" d="M718.528 1544.91 L734.847 1544.91 L734.847 1548.85 L712.903 1548.85 L712.903 1544.91 Q715.565 1542.16 720.148 1537.53 Q724.755 1532.88 725.935 1531.53 Q728.181 1529.01 729.06 1527.27 Q729.963 1525.51 729.963 1523.82 Q729.963 1521.07 728.018 1519.33 Q726.097 1517.6 722.995 1517.6 Q720.796 1517.6 718.343 1518.36 Q715.912 1519.13 713.134 1520.68 L713.134 1515.95 Q715.958 1514.82 718.412 1514.24 Q720.866 1513.66 722.903 1513.66 Q728.273 1513.66 731.468 1516.35 Q734.662 1519.03 734.662 1523.52 Q734.662 1525.65 733.852 1527.57 Q733.065 1529.47 730.958 1532.07 Q730.38 1532.74 727.278 1535.95 Q724.176 1539.15 718.528 1544.91 Z" fill="#000000" fill-rule="evenodd" fill-opacity="1" /><path clip-path="url(#clip910)" d="M744.708 1514.29 L763.065 1514.29 L763.065 1518.22 L748.991 1518.22 L748.991 1526.7 Q750.009 1526.35 751.028 1526.19 Q752.046 1526 753.065 1526 Q758.852 1526 762.231 1529.17 Q765.611 1532.34 765.611 1537.76 Q765.611 1543.34 762.139 1546.44 Q758.666 1549.52 752.347 1549.52 Q750.171 1549.52 747.903 1549.15 Q745.657 1548.78 743.25 1548.04 L743.25 1543.34 Q745.333 1544.47 747.555 1545.03 Q749.778 1545.58 752.254 1545.58 Q756.259 1545.58 758.597 1543.48 Q760.935 1541.37 760.935 1537.76 Q760.935 1534.15 758.597 1532.04 Q756.259 1529.94 752.254 1529.94 Q750.379 1529.94 748.505 1530.35 Q746.653 1530.77 744.708 1531.65 L744.708 1514.29 Z" fill="#000000" fill-rule="evenodd" fill-opacity="1" /><path clip-path="url(#clip910)" d="M1106.72 1544.91 L1114.36 1544.91 L1114.36 1518.55 L1106.05 1520.21 L1106.05 1515.95 L1114.31 1514.29 L1118.99 1514.29 L1118.99 1544.91 L1126.63 1544.91 L1126.63 1548.85 L1106.72 1548.85 L1106.72 1544.91 Z" fill="#000000" fill-rule="evenodd" fill-opacity="1" /><path clip-path="url(#clip910)" d="M1136.07 1542.97 L1140.96 1542.97 L1140.96 1548.85 L1136.07 1548.85 L1136.07 1542.97 Z" fill="#000000" fill-rule="evenodd" fill-opacity="1" /><path clip-path="url(#clip910)" d="M1151.19 1514.29 L1169.54 1514.29 L1169.54 1518.22 L1155.47 1518.22 L1155.47 1526.7 Q1156.49 1526.35 1157.51 1526.19 Q1158.53 1526 1159.54 1526 Q1165.33 1526 1168.71 1529.17 Q1172.09 1532.34 1172.09 1537.76 Q1172.09 1543.34 1168.62 1546.44 Q1165.15 1549.52 1158.83 1549.52 Q1156.65 1549.52 1154.38 1549.15 Q1152.14 1548.78 1149.73 1548.04 L1149.73 1543.34 Q1151.81 1544.47 1154.04 1545.03 Q1156.26 1545.58 1158.73 1545.58 Q1162.74 1545.58 1165.08 1543.48 Q1167.42 1541.37 1167.42 1537.76 Q1167.42 1534.15 1165.08 1532.04 Q1162.74 1529.94 1158.73 1529.94 Q1156.86 1529.94 1154.98 1530.35 Q1153.13 1530.77 1151.19 1531.65 L1151.19 1514.29 Z" fill="#000000" fill-rule="evenodd" fill-opacity="1" /><path clip-path="url(#clip910)" d="M1191.3 1517.37 Q1187.69 1517.37 1185.86 1520.93 Q1184.06 1524.47 1184.06 1531.6 Q1184.06 1538.71 1185.86 1542.27 Q1187.69 1545.82 1191.3 1545.82 Q1194.94 1545.82 1196.74 1542.27 Q1198.57 1538.71 1198.57 1531.6 Q1198.57 1524.47 1196.74 1520.93 Q1194.94 1517.37 1191.3 1517.37 M1191.3 1513.66 Q1197.11 1513.66 1200.17 1518.27 Q1203.25 1522.85 1203.25 1531.6 Q1203.25 1540.33 1200.17 1544.94 Q1197.11 1549.52 1191.3 1549.52 Q1185.49 1549.52 1182.42 1544.94 Q1179.36 1540.33 1179.36 1531.6 Q1179.36 1522.85 1182.42 1518.27 Q1185.49 1513.66 1191.3 1513.66 Z" fill="#000000" fill-rule="evenodd" fill-opacity="1" /><path clip-path="url(#clip910)" d="M1544.36 1544.91 L1552 1544.91 L1552 1518.55 L1543.69 1520.21 L1543.69 1515.95 L1551.95 1514.29 L1556.63 1514.29 L1556.63 1544.91 L1564.27 1544.91 L1564.27 1548.85 L1544.36 1548.85 L1544.36 1544.91 Z" fill="#000000" fill-rule="evenodd" fill-opacity="1" /><path clip-path="url(#clip910)" d="M1573.71 1542.97 L1578.59 1542.97 L1578.59 1548.85 L1573.71 1548.85 L1573.71 1542.97 Z" fill="#000000" fill-rule="evenodd" fill-opacity="1" /><path clip-path="url(#clip910)" d="M1587.6 1514.29 L1609.82 1514.29 L1609.82 1516.28 L1597.28 1548.85 L1592.39 1548.85 L1604.2 1518.22 L1587.6 1518.22 L1587.6 1514.29 Z" fill="#000000" fill-rule="evenodd" fill-opacity="1" /><path clip-path="url(#clip910)" d="M1618.99 1514.29 L1637.34 1514.29 L1637.34 1518.22 L1623.27 1518.22 L1623.27 1526.7 Q1624.29 1526.35 1625.31 1526.19 Q1626.33 1526 1627.34 1526 Q1633.13 1526 1636.51 1529.17 Q1639.89 1532.34 1639.89 1537.76 Q1639.89 1543.34 1636.42 1546.44 Q1632.95 1549.52 1626.63 1549.52 Q1624.45 1549.52 1622.18 1549.15 Q1619.94 1548.78 1617.53 1548.04 L1617.53 1543.34 Q1619.61 1544.47 1621.84 1545.03 Q1624.06 1545.58 1626.53 1545.58 Q1630.54 1545.58 1632.88 1543.48 Q1635.21 1541.37 1635.21 1537.76 Q1635.21 1534.15 1632.88 1532.04 Q1630.54 1529.94 1626.53 1529.94 Q1624.66 1529.94 1622.78 1530.35 Q1620.93 1530.77 1618.99 1531.65 L1618.99 1514.29 Z" fill="#000000" fill-rule="evenodd" fill-opacity="1" /><path clip-path="url(#clip910)" d="M1985.09 1544.91 L2001.41 1544.91 L2001.41 1548.85 L1979.46 1548.85 L1979.46 1544.91 Q1982.12 1542.16 1986.71 1537.53 Q1991.31 1532.88 1992.49 1531.53 Q1994.74 1529.01 1995.62 1527.27 Q1996.52 1525.51 1996.52 1523.82 Q1996.52 1521.07 1994.58 1519.33 Q1992.66 1517.6 1989.55 1517.6 Q1987.36 1517.6 1984.9 1518.36 Q1982.47 1519.13 1979.69 1520.68 L1979.69 1515.95 Q1982.52 1514.82 1984.97 1514.24 Q1987.42 1513.66 1989.46 1513.66 Q1994.83 1513.66 1998.03 1516.35 Q2001.22 1519.03 2001.22 1523.52 Q2001.22 1525.65 2000.41 1527.57 Q1999.62 1529.47 1997.52 1532.07 Q1996.94 1532.74 1993.84 1535.95 Q1990.73 1539.15 1985.09 1544.91 Z" fill="#000000" fill-rule="evenodd" fill-opacity="1" /><path clip-path="url(#clip910)" d="M2011.22 1542.97 L2016.1 1542.97 L2016.1 1548.85 L2011.22 1548.85 L2011.22 1542.97 Z" fill="#000000" fill-rule="evenodd" fill-opacity="1" /><path clip-path="url(#clip910)" d="M2036.29 1517.37 Q2032.68 1517.37 2030.85 1520.93 Q2029.04 1524.47 2029.04 1531.6 Q2029.04 1538.71 2030.85 1542.27 Q2032.68 1545.82 2036.29 1545.82 Q2039.92 1545.82 2041.73 1542.27 Q2043.56 1538.71 2043.56 1531.6 Q2043.56 1524.47 2041.73 1520.93 Q2039.92 1517.37 2036.29 1517.37 M2036.29 1513.66 Q2042.1 1513.66 2045.16 1518.27 Q2048.23 1522.85 2048.23 1531.6 Q2048.23 1540.33 2045.16 1544.94 Q2042.1 1549.52 2036.29 1549.52 Q2030.48 1549.52 2027.4 1544.94 Q2024.35 1540.33 2024.35 1531.6 Q2024.35 1522.85 2027.4 1518.27 Q2030.48 1513.66 2036.29 1513.66 Z" fill="#000000" fill-rule="evenodd" fill-opacity="1" /><path clip-path="url(#clip910)" d="M2066.45 1517.37 Q2062.84 1517.37 2061.01 1520.93 Q2059.21 1524.47 2059.21 1531.6 Q2059.21 1538.71 2061.01 1542.27 Q2062.84 1545.82 2066.45 1545.82 Q2070.09 1545.82 2071.89 1542.27 Q2073.72 1538.71 2073.72 1531.6 Q2073.72 1524.47 2071.89 1520.93 Q2070.09 1517.37 2066.45 1517.37 M2066.45 1513.66 Q2072.26 1513.66 2075.32 1518.27 Q2078.4 1522.85 2078.4 1531.6 Q2078.4 1540.33 2075.32 1544.94 Q2072.26 1549.52 2066.45 1549.52 Q2060.64 1549.52 2057.56 1544.94 Q2054.51 1540.33 2054.51 1531.6 Q2054.51 1522.85 2057.56 1518.27 Q2060.64 1513.66 2066.45 1513.66 Z" fill="#000000" fill-rule="evenodd" fill-opacity="1" /><polyline clip-path="url(#clip912)" style="stroke:#000000; stroke-linecap:round; stroke-linejoin:round; stroke-width:2; stroke-opacity:0.1; fill:none" points="156.112,1447.89 2352.76,1447.89 "/>
<polyline clip-path="url(#clip912)" style="stroke:#000000; stroke-linecap:round; stroke-linejoin:round; stroke-width:2; stroke-opacity:0.1; fill:none" points="156.112,1191.27 2352.76,1191.27 "/>
<polyline clip-path="url(#clip912)" style="stroke:#000000; stroke-linecap:round; stroke-linejoin:round; stroke-width:2; stroke-opacity:0.1; fill:none" points="156.112,934.642 2352.76,934.642 "/>
<polyline clip-path="url(#clip912)" style="stroke:#000000; stroke-linecap:round; stroke-linejoin:round; stroke-width:2; stroke-opacity:0.1; fill:none" points="156.112,678.017 2352.76,678.017 "/>
<polyline clip-path="url(#clip912)" style="stroke:#000000; stroke-linecap:round; stroke-linejoin:round; stroke-width:2; stroke-opacity:0.1; fill:none" points="156.112,421.392 2352.76,421.392 "/>
<polyline clip-path="url(#clip912)" style="stroke:#000000; stroke-linecap:round; stroke-linejoin:round; stroke-width:2; stroke-opacity:0.1; fill:none" points="156.112,164.767 2352.76,164.767 "/>
<polyline clip-path="url(#clip910)" style="stroke:#000000; stroke-linecap:round; stroke-linejoin:round; stroke-width:4; stroke-opacity:1; fill:none" points="156.112,1486.45 156.112,123.472 "/>
<polyline clip-path="url(#clip910)" style="stroke:#000000; stroke-linecap:round; stroke-linejoin:round; stroke-width:4; stroke-opacity:1; fill:none" points="156.112,1447.89 175.01,1447.89 "/>
<polyline clip-path="url(#clip910)" style="stroke:#000000; stroke-linecap:round; stroke-linejoin:round; stroke-width:4; stroke-opacity:1; fill:none" points="156.112,1191.27 175.01,1191.27 "/>
<polyline clip-path="url(#clip910)" style="stroke:#000000; stroke-linecap:round; stroke-linejoin:round; stroke-width:4; stroke-opacity:1; fill:none" points="156.112,934.642 175.01,934.642 "/>
<polyline clip-path="url(#clip910)" style="stroke:#000000; stroke-linecap:round; stroke-linejoin:round; stroke-width:4; stroke-opacity:1; fill:none" points="156.112,678.017 175.01,678.017 "/>
<polyline clip-path="url(#clip910)" style="stroke:#000000; stroke-linecap:round; stroke-linejoin:round; stroke-width:4; stroke-opacity:1; fill:none" points="156.112,421.392 175.01,421.392 "/>
<polyline clip-path="url(#clip910)" style="stroke:#000000; stroke-linecap:round; stroke-linejoin:round; stroke-width:4; stroke-opacity:1; fill:none" points="156.112,164.767 175.01,164.767 "/>
<path clip-path="url(#clip910)" d="M62.9365 1433.69 Q59.3254 1433.69 57.4967 1437.26 Q55.6912 1440.8 55.6912 1447.93 Q55.6912 1455.03 57.4967 1458.6 Q59.3254 1462.14 62.9365 1462.14 Q66.5707 1462.14 68.3763 1458.6 Q70.205 1455.03 70.205 1447.93 Q70.205 1440.8 68.3763 1437.26 Q66.5707 1433.69 62.9365 1433.69 M62.9365 1429.99 Q68.7467 1429.99 71.8022 1434.59 Q74.8809 1439.18 74.8809 1447.93 Q74.8809 1456.65 71.8022 1461.26 Q68.7467 1465.84 62.9365 1465.84 Q57.1264 1465.84 54.0477 1461.26 Q50.9921 1456.65 50.9921 1447.93 Q50.9921 1439.18 54.0477 1434.59 Q57.1264 1429.99 62.9365 1429.99 Z" fill="#000000" fill-rule="evenodd" fill-opacity="1" /><path clip-path="url(#clip910)" d="M83.0984 1459.29 L87.9827 1459.29 L87.9827 1465.17 L83.0984 1465.17 L83.0984 1459.29 Z" fill="#000000" fill-rule="evenodd" fill-opacity="1" /><path clip-path="url(#clip910)" d="M108.168 1433.69 Q104.557 1433.69 102.728 1437.26 Q100.922 1440.8 100.922 1447.93 Q100.922 1455.03 102.728 1458.6 Q104.557 1462.14 108.168 1462.14 Q111.802 1462.14 113.608 1458.6 Q115.436 1455.03 115.436 1447.93 Q115.436 1440.8 113.608 1437.26 Q111.802 1433.69 108.168 1433.69 M108.168 1429.99 Q113.978 1429.99 117.033 1434.59 Q120.112 1439.18 120.112 1447.93 Q120.112 1456.65 117.033 1461.26 Q113.978 1465.84 108.168 1465.84 Q102.358 1465.84 99.2789 1461.26 Q96.2234 1456.65 96.2234 1447.93 Q96.2234 1439.18 99.2789 1434.59 Q102.358 1429.99 108.168 1429.99 Z" fill="#000000" fill-rule="evenodd" fill-opacity="1" /><path clip-path="url(#clip910)" d="M63.9319 1177.07 Q60.3208 1177.07 58.4921 1180.63 Q56.6865 1184.17 56.6865 1191.3 Q56.6865 1198.41 58.4921 1201.97 Q60.3208 1205.51 63.9319 1205.51 Q67.5661 1205.51 69.3717 1201.97 Q71.2004 1198.41 71.2004 1191.3 Q71.2004 1184.17 69.3717 1180.63 Q67.5661 1177.07 63.9319 1177.07 M63.9319 1173.36 Q69.742 1173.36 72.7976 1177.97 Q75.8763 1182.55 75.8763 1191.3 Q75.8763 1200.03 72.7976 1204.63 Q69.742 1209.22 63.9319 1209.22 Q58.1217 1209.22 55.043 1204.63 Q51.9875 1200.03 51.9875 1191.3 Q51.9875 1182.55 55.043 1177.97 Q58.1217 1173.36 63.9319 1173.36 Z" fill="#000000" fill-rule="evenodd" fill-opacity="1" /><path clip-path="url(#clip910)" d="M84.0938 1202.67 L88.978 1202.67 L88.978 1208.55 L84.0938 1208.55 L84.0938 1202.67 Z" fill="#000000" fill-rule="evenodd" fill-opacity="1" /><path clip-path="url(#clip910)" d="M99.2095 1173.99 L117.566 1173.99 L117.566 1177.92 L103.492 1177.92 L103.492 1186.39 Q104.51 1186.05 105.529 1185.88 Q106.547 1185.7 107.566 1185.7 Q113.353 1185.7 116.733 1188.87 Q120.112 1192.04 120.112 1197.46 Q120.112 1203.04 116.64 1206.14 Q113.168 1209.22 106.848 1209.22 Q104.672 1209.22 102.404 1208.85 Q100.159 1208.48 97.7511 1207.74 L97.7511 1203.04 Q99.8345 1204.17 102.057 1204.73 Q104.279 1205.28 106.756 1205.28 Q110.76 1205.28 113.098 1203.18 Q115.436 1201.07 115.436 1197.46 Q115.436 1193.85 113.098 1191.74 Q110.76 1189.63 106.756 1189.63 Q104.881 1189.63 103.006 1190.05 Q101.154 1190.47 99.2095 1191.35 L99.2095 1173.99 Z" fill="#000000" fill-rule="evenodd" fill-opacity="1" /><path clip-path="url(#clip910)" d="M53.7467 947.987 L61.3856 947.987 L61.3856 921.621 L53.0754 923.288 L53.0754 919.029 L61.3393 917.362 L66.0152 917.362 L66.0152 947.987 L73.654 947.987 L73.654 951.922 L53.7467 951.922 L53.7467 947.987 Z" fill="#000000" fill-rule="evenodd" fill-opacity="1" /><path clip-path="url(#clip910)" d="M83.0984 946.042 L87.9827 946.042 L87.9827 951.922 L83.0984 951.922 L83.0984 946.042 Z" fill="#000000" fill-rule="evenodd" fill-opacity="1" /><path clip-path="url(#clip910)" d="M108.168 920.441 Q104.557 920.441 102.728 924.005 Q100.922 927.547 100.922 934.677 Q100.922 941.783 102.728 945.348 Q104.557 948.89 108.168 948.89 Q111.802 948.89 113.608 945.348 Q115.436 941.783 115.436 934.677 Q115.436 927.547 113.608 924.005 Q111.802 920.441 108.168 920.441 M108.168 916.737 Q113.978 916.737 117.033 921.343 Q120.112 925.927 120.112 934.677 Q120.112 943.403 117.033 948.01 Q113.978 952.593 108.168 952.593 Q102.358 952.593 99.2789 948.01 Q96.2234 943.403 96.2234 934.677 Q96.2234 925.927 99.2789 921.343 Q102.358 916.737 108.168 916.737 Z" fill="#000000" fill-rule="evenodd" fill-opacity="1" /><path clip-path="url(#clip910)" d="M54.7421 691.362 L62.381 691.362 L62.381 664.996 L54.0708 666.663 L54.0708 662.404 L62.3347 660.737 L67.0106 660.737 L67.0106 691.362 L74.6494 691.362 L74.6494 695.297 L54.7421 695.297 L54.7421 691.362 Z" fill="#000000" fill-rule="evenodd" fill-opacity="1" /><path clip-path="url(#clip910)" d="M84.0938 689.418 L88.978 689.418 L88.978 695.297 L84.0938 695.297 L84.0938 689.418 Z" fill="#000000" fill-rule="evenodd" fill-opacity="1" /><path clip-path="url(#clip910)" d="M99.2095 660.737 L117.566 660.737 L117.566 664.672 L103.492 664.672 L103.492 673.144 Q104.51 672.797 105.529 672.635 Q106.547 672.45 107.566 672.45 Q113.353 672.45 116.733 675.621 Q120.112 678.793 120.112 684.209 Q120.112 689.788 116.64 692.89 Q113.168 695.968 106.848 695.968 Q104.672 695.968 102.404 695.598 Q100.159 695.228 97.7511 694.487 L97.7511 689.788 Q99.8345 690.922 102.057 691.478 Q104.279 692.033 106.756 692.033 Q110.76 692.033 113.098 689.927 Q115.436 687.82 115.436 684.209 Q115.436 680.598 113.098 678.492 Q110.76 676.385 106.756 676.385 Q104.881 676.385 103.006 676.802 Q101.154 677.219 99.2095 678.098 L99.2095 660.737 Z" fill="#000000" fill-rule="evenodd" fill-opacity="1" /><path clip-path="url(#clip910)" d="M56.9643 434.737 L73.2837 434.737 L73.2837 438.672 L51.3393 438.672 L51.3393 434.737 Q54.0014 431.983 58.5847 427.353 Q63.1911 422.7 64.3717 421.358 Q66.617 418.834 67.4967 417.098 Q68.3994 415.339 68.3994 413.649 Q68.3994 410.895 66.455 409.159 Q64.5337 407.422 61.4319 407.422 Q59.2328 407.422 56.7791 408.186 Q54.3486 408.95 51.5708 410.501 L51.5708 405.779 Q54.3949 404.645 56.8486 404.066 Q59.3023 403.487 61.3393 403.487 Q66.7096 403.487 69.9041 406.172 Q73.0985 408.858 73.0985 413.348 Q73.0985 415.478 72.2883 417.399 Q71.5013 419.297 69.3948 421.89 Q68.8161 422.561 65.7143 425.779 Q62.6124 428.973 56.9643 434.737 Z" fill="#000000" fill-rule="evenodd" fill-opacity="1" /><path clip-path="url(#clip910)" d="M83.0984 432.793 L87.9827 432.793 L87.9827 438.672 L83.0984 438.672 L83.0984 432.793 Z" fill="#000000" fill-rule="evenodd" fill-opacity="1" /><path clip-path="url(#clip910)" d="M108.168 407.191 Q104.557 407.191 102.728 410.756 Q100.922 414.297 100.922 421.427 Q100.922 428.533 102.728 432.098 Q104.557 435.64 108.168 435.64 Q111.802 435.64 113.608 432.098 Q115.436 428.533 115.436 421.427 Q115.436 414.297 113.608 410.756 Q111.802 407.191 108.168 407.191 M108.168 403.487 Q113.978 403.487 117.033 408.094 Q120.112 412.677 120.112 421.427 Q120.112 430.154 117.033 434.76 Q113.978 439.344 108.168 439.344 Q102.358 439.344 99.2789 434.76 Q96.2234 430.154 96.2234 421.427 Q96.2234 412.677 99.2789 408.094 Q102.358 403.487 108.168 403.487 Z" fill="#000000" fill-rule="evenodd" fill-opacity="1" /><path clip-path="url(#clip910)" d="M57.9597 178.112 L74.279 178.112 L74.279 182.047 L52.3347 182.047 L52.3347 178.112 Q54.9967 175.358 59.58 170.728 Q64.1865 166.075 65.367 164.733 Q67.6124 162.21 68.492 160.473 Q69.3948 158.714 69.3948 157.024 Q69.3948 154.27 67.4504 152.534 Q65.5291 150.798 62.4272 150.798 Q60.2282 150.798 57.7745 151.561 Q55.344 152.325 52.5662 153.876 L52.5662 149.154 Q55.3903 148.02 57.8439 147.441 Q60.2976 146.862 62.3347 146.862 Q67.705 146.862 70.8994 149.548 Q74.0939 152.233 74.0939 156.724 Q74.0939 158.853 73.2837 160.774 Q72.4966 162.673 70.3902 165.265 Q69.8115 165.936 66.7096 169.154 Q63.6078 172.348 57.9597 178.112 Z" fill="#000000" fill-rule="evenodd" fill-opacity="1" /><path clip-path="url(#clip910)" d="M84.0938 176.168 L88.978 176.168 L88.978 182.047 L84.0938 182.047 L84.0938 176.168 Z" fill="#000000" fill-rule="evenodd" fill-opacity="1" /><path clip-path="url(#clip910)" d="M99.2095 147.487 L117.566 147.487 L117.566 151.423 L103.492 151.423 L103.492 159.895 Q104.51 159.548 105.529 159.386 Q106.547 159.2 107.566 159.2 Q113.353 159.2 116.733 162.372 Q120.112 165.543 120.112 170.96 Q120.112 176.538 116.64 179.64 Q113.168 182.719 106.848 182.719 Q104.672 182.719 102.404 182.348 Q100.159 181.978 97.7511 181.237 L97.7511 176.538 Q99.8345 177.672 102.057 178.228 Q104.279 178.784 106.756 178.784 Q110.76 178.784 113.098 176.677 Q115.436 174.571 115.436 170.96 Q115.436 167.348 113.098 165.242 Q110.76 163.136 106.756 163.136 Q104.881 163.136 103.006 163.552 Q101.154 163.969 99.2095 164.848 L99.2095 147.487 Z" fill="#000000" fill-rule="evenodd" fill-opacity="1" /><path clip-path="url(#clip910)" d="M675.256 20.1573 L664.157 50.2555 L686.396 50.2555 L675.256 20.1573 M670.638 12.096 L679.915 12.096 L702.964 72.576 L694.457 72.576 L688.948 57.061 L661.685 57.061 L656.176 72.576 L647.548 72.576 L670.638 12.096 Z" fill="#000000" fill-rule="evenodd" fill-opacity="1" /><path clip-path="url(#clip910)" d="M739.868 34.0924 L739.868 9.54393 L747.322 9.54393 L747.322 72.576 L739.868 72.576 L739.868 65.7705 Q737.518 69.8214 733.913 71.8063 Q730.348 73.7508 725.325 73.7508 Q717.102 73.7508 711.917 67.1883 Q706.772 60.6258 706.772 49.9314 Q706.772 39.2371 711.917 32.6746 Q717.102 26.1121 725.325 26.1121 Q730.348 26.1121 733.913 28.0971 Q737.518 30.0415 739.868 34.0924 M714.469 49.9314 Q714.469 58.1548 717.831 62.8538 Q721.234 67.5124 727.148 67.5124 Q733.062 67.5124 736.465 62.8538 Q739.868 58.1548 739.868 49.9314 Q739.868 41.7081 736.465 37.0496 Q733.062 32.3505 727.148 32.3505 Q721.234 32.3505 717.831 37.0496 Q714.469 41.7081 714.469 49.9314 Z" fill="#000000" fill-rule="evenodd" fill-opacity="1" /><path clip-path="url(#clip910)" d="M762.674 27.2059 L770.128 27.2059 L770.128 72.576 L762.674 72.576 L762.674 27.2059 M762.674 9.54393 L770.128 9.54393 L770.128 18.9825 L762.674 18.9825 L762.674 9.54393 Z" fill="#000000" fill-rule="evenodd" fill-opacity="1" /><path clip-path="url(#clip910)" d="M792.935 65.7705 L792.935 89.8329 L785.441 89.8329 L785.441 27.2059 L792.935 27.2059 L792.935 34.0924 Q795.284 30.0415 798.849 28.0971 Q802.454 26.1121 807.437 26.1121 Q815.701 26.1121 820.845 32.6746 Q826.031 39.2371 826.031 49.9314 Q826.031 60.6258 820.845 67.1883 Q815.701 73.7508 807.437 73.7508 Q802.454 73.7508 798.849 71.8063 Q795.284 69.8214 792.935 65.7705 M818.293 49.9314 Q818.293 41.7081 814.891 37.0496 Q811.528 32.3505 805.614 32.3505 Q799.7 32.3505 796.297 37.0496 Q792.935 41.7081 792.935 49.9314 Q792.935 58.1548 796.297 62.8538 Q799.7 67.5124 805.614 67.5124 Q811.528 67.5124 814.891 62.8538 Q818.293 58.1548 818.293 49.9314 Z" fill="#000000" fill-rule="evenodd" fill-opacity="1" /><path clip-path="url(#clip910)" d="M855.967 32.4315 Q849.971 32.4315 846.488 37.1306 Q843.004 41.7891 843.004 49.9314 Q843.004 58.0738 846.447 62.7728 Q849.931 67.4314 855.967 67.4314 Q861.922 67.4314 865.405 62.7323 Q868.889 58.0333 868.889 49.9314 Q868.889 41.8701 865.405 37.1711 Q861.922 32.4315 855.967 32.4315 M855.967 26.1121 Q865.689 26.1121 871.239 32.4315 Q876.788 38.7509 876.788 49.9314 Q876.788 61.0714 871.239 67.4314 Q865.689 73.7508 855.967 73.7508 Q846.204 73.7508 840.654 67.4314 Q835.145 61.0714 835.145 49.9314 Q835.145 38.7509 840.654 32.4315 Q846.204 26.1121 855.967 26.1121 Z" fill="#000000" fill-rule="evenodd" fill-opacity="1" /><path clip-path="url(#clip910)" d="M918.067 28.5427 L918.067 35.5912 Q914.907 33.9709 911.505 33.1607 Q908.102 32.3505 904.456 32.3505 Q898.906 32.3505 896.111 34.0519 Q893.357 35.7533 893.357 39.156 Q893.357 41.7486 895.342 43.2475 Q897.327 44.7058 903.322 46.0426 L905.874 46.6097 Q913.814 48.3111 917.135 51.4303 Q920.498 54.509 920.498 60.0587 Q920.498 66.3781 915.475 70.0644 Q910.492 73.7508 901.742 73.7508 Q898.096 73.7508 894.126 73.0216 Q890.197 72.3329 885.822 70.9151 L885.822 63.2184 Q889.954 65.3654 893.964 66.4591 Q897.975 67.5124 901.904 67.5124 Q907.17 67.5124 910.006 65.73 Q912.842 63.9071 912.842 60.6258 Q912.842 57.5877 910.776 55.9673 Q908.75 54.3469 901.823 52.8481 L899.23 52.2405 Q892.303 50.7821 889.225 47.7845 Q886.146 44.7463 886.146 39.4801 Q886.146 33.0797 890.683 29.5959 Q895.22 26.1121 903.565 26.1121 Q907.697 26.1121 911.343 26.7198 Q914.988 27.3274 918.067 28.5427 Z" fill="#000000" fill-rule="evenodd" fill-opacity="1" /><path clip-path="url(#clip910)" d="M932.367 27.2059 L939.821 27.2059 L939.821 72.576 L932.367 72.576 L932.367 27.2059 M932.367 9.54393 L939.821 9.54393 L939.821 18.9825 L932.367 18.9825 L932.367 9.54393 Z" fill="#000000" fill-rule="evenodd" fill-opacity="1" /><path clip-path="url(#clip910)" d="M962.789 14.324 L962.789 27.2059 L978.142 27.2059 L978.142 32.9987 L962.789 32.9987 L962.789 57.6282 Q962.789 63.1779 964.288 64.7578 Q965.827 66.3376 970.486 66.3376 L978.142 66.3376 L978.142 72.576 L970.486 72.576 Q961.857 72.576 958.576 69.3758 Q955.295 66.1351 955.295 57.6282 L955.295 32.9987 L949.826 32.9987 L949.826 27.2059 L955.295 27.2059 L955.295 14.324 L962.789 14.324 Z" fill="#000000" fill-rule="evenodd" fill-opacity="1" /><path clip-path="url(#clip910)" d="M1006.82 76.7889 Q1003.66 84.8907 1000.67 87.3618 Q997.667 89.8329 992.644 89.8329 L986.69 89.8329 L986.69 83.5945 L991.064 83.5945 Q994.143 83.5945 995.845 82.1361 Q997.546 80.6778 999.612 75.2496 L1000.95 71.8468 L982.598 27.2059 L990.497 27.2059 L1004.68 62.6918 L1018.85 27.2059 L1026.75 27.2059 L1006.82 76.7889 Z" fill="#000000" fill-rule="evenodd" fill-opacity="1" /><path clip-path="url(#clip910)" d="M1093.27 34.0924 L1093.27 9.54393 L1100.72 9.54393 L1100.72 72.576 L1093.27 72.576 L1093.27 65.7705 Q1090.92 69.8214 1087.31 71.8063 Q1083.75 73.7508 1078.73 73.7508 Q1070.5 73.7508 1065.32 67.1883 Q1060.17 60.6258 1060.17 49.9314 Q1060.17 39.2371 1065.32 32.6746 Q1070.5 26.1121 1078.73 26.1121 Q1083.75 26.1121 1087.31 28.0971 Q1090.92 30.0415 1093.27 34.0924 M1067.87 49.9314 Q1067.87 58.1548 1071.23 62.8538 Q1074.63 67.5124 1080.55 67.5124 Q1086.46 67.5124 1089.87 62.8538 Q1093.27 58.1548 1093.27 49.9314 Q1093.27 41.7081 1089.87 37.0496 Q1086.46 32.3505 1080.55 32.3505 Q1074.63 32.3505 1071.23 37.0496 Q1067.87 41.7081 1067.87 49.9314 Z" fill="#000000" fill-rule="evenodd" fill-opacity="1" /><path clip-path="url(#clip910)" d="M1116.08 27.2059 L1123.53 27.2059 L1123.53 72.576 L1116.08 72.576 L1116.08 27.2059 M1116.08 9.54393 L1123.53 9.54393 L1123.53 18.9825 L1116.08 18.9825 L1116.08 9.54393 Z" fill="#000000" fill-rule="evenodd" fill-opacity="1" /><path clip-path="url(#clip910)" d="M1168.05 28.5427 L1168.05 35.5912 Q1164.89 33.9709 1161.49 33.1607 Q1158.08 32.3505 1154.44 32.3505 Q1148.89 32.3505 1146.09 34.0519 Q1143.34 35.7533 1143.34 39.156 Q1143.34 41.7486 1145.32 43.2475 Q1147.31 44.7058 1153.3 46.0426 L1155.86 46.6097 Q1163.8 48.3111 1167.12 51.4303 Q1170.48 54.509 1170.48 60.0587 Q1170.48 66.3781 1165.46 70.0644 Q1160.47 73.7508 1151.72 73.7508 Q1148.08 73.7508 1144.11 73.0216 Q1140.18 72.3329 1135.8 70.9151 L1135.8 63.2184 Q1139.94 65.3654 1143.95 66.4591 Q1147.96 67.5124 1151.89 67.5124 Q1157.15 67.5124 1159.99 65.73 Q1162.82 63.9071 1162.82 60.6258 Q1162.82 57.5877 1160.76 55.9673 Q1158.73 54.3469 1151.8 52.8481 L1149.21 52.2405 Q1142.28 50.7821 1139.21 47.7845 Q1136.13 44.7463 1136.13 39.4801 Q1136.13 33.0797 1140.66 29.5959 Q1145.2 26.1121 1153.55 26.1121 Q1157.68 26.1121 1161.32 26.7198 Q1164.97 27.3274 1168.05 28.5427 Z" fill="#000000" fill-rule="evenodd" fill-opacity="1" /><path clip-path="url(#clip910)" d="M1189.72 14.324 L1189.72 27.2059 L1205.07 27.2059 L1205.07 32.9987 L1189.72 32.9987 L1189.72 57.6282 Q1189.72 63.1779 1191.22 64.7578 Q1192.76 66.3376 1197.42 66.3376 L1205.07 66.3376 L1205.07 72.576 L1197.42 72.576 Q1188.79 72.576 1185.51 69.3758 Q1182.23 66.1351 1182.23 57.6282 L1182.23 32.9987 L1176.76 32.9987 L1176.76 27.2059 L1182.23 27.2059 L1182.23 14.324 L1189.72 14.324 Z" fill="#000000" fill-rule="evenodd" fill-opacity="1" /><path clip-path="url(#clip910)" d="M1241.17 34.1734 Q1239.91 33.4443 1238.41 33.1202 Q1236.95 32.7556 1235.17 32.7556 Q1228.85 32.7556 1225.45 36.8875 Q1222.09 40.9789 1222.09 48.6757 L1222.09 72.576 L1214.59 72.576 L1214.59 27.2059 L1222.09 27.2059 L1222.09 34.2544 Q1224.44 30.1225 1228.2 28.1376 Q1231.97 26.1121 1237.36 26.1121 Q1238.13 26.1121 1239.06 26.2337 Q1239.99 26.3147 1241.13 26.5172 L1241.17 34.1734 Z" fill="#000000" fill-rule="evenodd" fill-opacity="1" /><path clip-path="url(#clip910)" d="M1248.99 27.2059 L1256.44 27.2059 L1256.44 72.576 L1248.99 72.576 L1248.99 27.2059 M1248.99 9.54393 L1256.44 9.54393 L1256.44 18.9825 L1248.99 18.9825 L1248.99 9.54393 Z" fill="#000000" fill-rule="evenodd" fill-opacity="1" /><path clip-path="url(#clip910)" d="M1304.6 49.9314 Q1304.6 41.7081 1301.2 37.0496 Q1297.84 32.3505 1291.93 32.3505 Q1286.01 32.3505 1282.61 37.0496 Q1279.25 41.7081 1279.25 49.9314 Q1279.25 58.1548 1282.61 62.8538 Q1286.01 67.5124 1291.93 67.5124 Q1297.84 67.5124 1301.2 62.8538 Q1304.6 58.1548 1304.6 49.9314 M1279.25 34.0924 Q1281.6 30.0415 1285.16 28.0971 Q1288.77 26.1121 1293.75 26.1121 Q1302.01 26.1121 1307.16 32.6746 Q1312.34 39.2371 1312.34 49.9314 Q1312.34 60.6258 1307.16 67.1883 Q1302.01 73.7508 1293.75 73.7508 Q1288.77 73.7508 1285.16 71.8063 Q1281.6 69.8214 1279.25 65.7705 L1279.25 72.576 L1271.75 72.576 L1271.75 9.54393 L1279.25 9.54393 L1279.25 34.0924 Z" fill="#000000" fill-rule="evenodd" fill-opacity="1" /><path clip-path="url(#clip910)" d="M1323.93 54.671 L1323.93 27.2059 L1331.38 27.2059 L1331.38 54.3874 Q1331.38 60.8284 1333.89 64.0691 Q1336.4 67.2693 1341.43 67.2693 Q1347.46 67.2693 1350.95 63.421 Q1354.47 59.5726 1354.47 52.9291 L1354.47 27.2059 L1361.92 27.2059 L1361.92 72.576 L1354.47 72.576 L1354.47 65.6084 Q1351.76 69.7404 1348.15 71.7658 Q1344.59 73.7508 1339.85 73.7508 Q1332.03 73.7508 1327.98 68.8897 Q1323.93 64.0286 1323.93 54.671 M1342.68 26.1121 L1342.68 26.1121 Z" fill="#000000" fill-rule="evenodd" fill-opacity="1" /><path clip-path="url(#clip910)" d="M1384.65 14.324 L1384.65 27.2059 L1400 27.2059 L1400 32.9987 L1384.65 32.9987 L1384.65 57.6282 Q1384.65 63.1779 1386.15 64.7578 Q1387.69 66.3376 1392.35 66.3376 L1400 66.3376 L1400 72.576 L1392.35 72.576 Q1383.72 72.576 1380.44 69.3758 Q1377.16 66.1351 1377.16 57.6282 L1377.16 32.9987 L1371.69 32.9987 L1371.69 27.2059 L1377.16 27.2059 L1377.16 14.324 L1384.65 14.324 Z" fill="#000000" fill-rule="evenodd" fill-opacity="1" /><path clip-path="url(#clip910)" d="M1409.81 27.2059 L1417.26 27.2059 L1417.26 72.576 L1409.81 72.576 L1409.81 27.2059 M1409.81 9.54393 L1417.26 9.54393 L1417.26 18.9825 L1409.81 18.9825 L1409.81 9.54393 Z" fill="#000000" fill-rule="evenodd" fill-opacity="1" /><path clip-path="url(#clip910)" d="M1450.44 32.4315 Q1444.44 32.4315 1440.96 37.1306 Q1437.47 41.7891 1437.47 49.9314 Q1437.47 58.0738 1440.92 62.7728 Q1444.4 67.4314 1450.44 67.4314 Q1456.39 67.4314 1459.88 62.7323 Q1463.36 58.0333 1463.36 49.9314 Q1463.36 41.8701 1459.88 37.1711 Q1456.39 32.4315 1450.44 32.4315 M1450.44 26.1121 Q1460.16 26.1121 1465.71 32.4315 Q1471.26 38.7509 1471.26 49.9314 Q1471.26 61.0714 1465.71 67.4314 Q1460.16 73.7508 1450.44 73.7508 Q1440.67 73.7508 1435.12 67.4314 Q1429.62 61.0714 1429.62 49.9314 Q1429.62 38.7509 1435.12 32.4315 Q1440.67 26.1121 1450.44 26.1121 Z" fill="#000000" fill-rule="evenodd" fill-opacity="1" /><path clip-path="url(#clip910)" d="M1521.33 45.1919 L1521.33 72.576 L1513.87 72.576 L1513.87 45.4349 Q1513.87 38.994 1511.36 35.7938 Q1508.85 32.5936 1503.83 32.5936 Q1497.79 32.5936 1494.31 36.4419 Q1490.82 40.2903 1490.82 46.9338 L1490.82 72.576 L1483.33 72.576 L1483.33 27.2059 L1490.82 27.2059 L1490.82 34.2544 Q1493.5 30.163 1497.1 28.1376 Q1500.75 26.1121 1505.49 26.1121 Q1513.31 26.1121 1517.32 30.9732 Q1521.33 35.7938 1521.33 45.1919 Z" fill="#000000" fill-rule="evenodd" fill-opacity="1" /><path clip-path="url(#clip910)" d="M1580.47 9.62495 Q1575.04 18.942 1572.41 28.0566 Q1569.78 37.1711 1569.78 46.5287 Q1569.78 55.8863 1572.41 65.0818 Q1575.08 74.2369 1580.47 83.5134 L1573.99 83.5134 Q1567.91 73.9938 1564.88 64.7983 Q1561.88 55.6027 1561.88 46.5287 Q1561.88 37.4952 1564.88 28.3401 Q1567.87 19.1851 1573.99 9.62495 L1580.47 9.62495 Z" fill="#000000" fill-rule="evenodd" fill-opacity="1" /><path clip-path="url(#clip910)" d="M1630.26 35.9153 Q1633.05 30.8922 1636.94 28.5022 Q1640.83 26.1121 1646.1 26.1121 Q1653.18 26.1121 1657.03 31.0947 Q1660.88 36.0368 1660.88 45.1919 L1660.88 72.576 L1653.39 72.576 L1653.39 45.4349 Q1653.39 38.913 1651.08 35.7533 Q1648.77 32.5936 1644.03 32.5936 Q1638.24 32.5936 1634.87 36.4419 Q1631.51 40.2903 1631.51 46.9338 L1631.51 72.576 L1624.02 72.576 L1624.02 45.4349 Q1624.02 38.8725 1621.71 35.7533 Q1619.4 32.5936 1614.58 32.5936 Q1608.87 32.5936 1605.51 36.4824 Q1602.14 40.3308 1602.14 46.9338 L1602.14 72.576 L1594.65 72.576 L1594.65 27.2059 L1602.14 27.2059 L1602.14 34.2544 Q1604.7 30.082 1608.26 28.0971 Q1611.83 26.1121 1616.73 26.1121 Q1621.67 26.1121 1625.11 28.6237 Q1628.6 31.1352 1630.26 35.9153 Z" fill="#000000" fill-rule="evenodd" fill-opacity="1" /><path clip-path="url(#clip910)" d="M1696.37 49.7694 Q1687.33 49.7694 1683.85 51.8354 Q1680.37 53.9013 1680.37 58.8839 Q1680.37 62.8538 1682.96 65.2034 Q1685.59 67.5124 1690.09 67.5124 Q1696.29 67.5124 1700.01 63.1374 Q1703.78 58.7219 1703.78 51.4303 L1703.78 49.7694 L1696.37 49.7694 M1711.23 46.6907 L1711.23 72.576 L1703.78 72.576 L1703.78 65.6895 Q1701.23 69.8214 1697.42 71.8063 Q1693.61 73.7508 1688.1 73.7508 Q1681.14 73.7508 1677 69.8619 Q1672.91 65.9325 1672.91 59.3701 Q1672.91 51.7138 1678.02 47.825 Q1683.16 43.9361 1693.33 43.9361 L1703.78 43.9361 L1703.78 43.2069 Q1703.78 38.0623 1700.38 35.2672 Q1697.02 32.4315 1690.9 32.4315 Q1687.01 32.4315 1683.32 33.3632 Q1679.64 34.295 1676.23 36.1584 L1676.23 29.2718 Q1680.33 27.692 1684.17 26.9223 Q1688.02 26.1121 1691.67 26.1121 Q1701.51 26.1121 1706.37 31.2163 Q1711.23 36.3204 1711.23 46.6907 Z" fill="#000000" fill-rule="evenodd" fill-opacity="1" /><path clip-path="url(#clip910)" d="M1726.59 9.54393 L1734.04 9.54393 L1734.04 72.576 L1726.59 72.576 L1726.59 9.54393 Z" fill="#000000" fill-rule="evenodd" fill-opacity="1" /><path clip-path="url(#clip910)" d="M1788.44 48.0275 L1788.44 51.6733 L1754.17 51.6733 Q1754.66 59.3701 1758.79 63.421 Q1762.96 67.4314 1770.38 67.4314 Q1774.67 67.4314 1778.68 66.3781 Q1782.73 65.3249 1786.7 63.2184 L1786.7 70.267 Q1782.69 71.9684 1778.48 72.8596 Q1774.27 73.7508 1769.93 73.7508 Q1759.08 73.7508 1752.72 67.4314 Q1746.4 61.1119 1746.4 50.3365 Q1746.4 39.1965 1752.39 32.6746 Q1758.43 26.1121 1768.64 26.1121 Q1777.79 26.1121 1783.1 32.0264 Q1788.44 37.9003 1788.44 48.0275 M1780.99 45.84 Q1780.91 39.7232 1777.55 36.0774 Q1774.23 32.4315 1768.72 32.4315 Q1762.48 32.4315 1758.71 35.9558 Q1754.98 39.4801 1754.42 45.8805 L1780.99 45.84 Z" fill="#000000" fill-rule="evenodd" fill-opacity="1" /><path clip-path="url(#clip910)" d="M1829.6 28.5427 L1829.6 35.5912 Q1826.44 33.9709 1823.04 33.1607 Q1819.64 32.3505 1815.99 32.3505 Q1810.44 32.3505 1807.65 34.0519 Q1804.89 35.7533 1804.89 39.156 Q1804.89 41.7486 1806.88 43.2475 Q1808.86 44.7058 1814.86 46.0426 L1817.41 46.6097 Q1825.35 48.3111 1828.67 51.4303 Q1832.03 54.509 1832.03 60.0587 Q1832.03 66.3781 1827.01 70.0644 Q1822.03 73.7508 1813.28 73.7508 Q1809.63 73.7508 1805.66 73.0216 Q1801.73 72.3329 1797.36 70.9151 L1797.36 63.2184 Q1801.49 65.3654 1805.5 66.4591 Q1809.51 67.5124 1813.44 67.5124 Q1818.7 67.5124 1821.54 65.73 Q1824.38 63.9071 1824.38 60.6258 Q1824.38 57.5877 1822.31 55.9673 Q1820.28 54.3469 1813.36 52.8481 L1810.76 52.2405 Q1803.84 50.7821 1800.76 47.7845 Q1797.68 44.7463 1797.68 39.4801 Q1797.68 33.0797 1802.22 29.5959 Q1806.75 26.1121 1815.1 26.1121 Q1819.23 26.1121 1822.88 26.7198 Q1826.52 27.3274 1829.6 28.5427 Z" fill="#000000" fill-rule="evenodd" fill-opacity="1" /><path clip-path="url(#clip910)" d="M1842.73 9.62495 L1849.21 9.62495 Q1855.28 19.1851 1858.28 28.3401 Q1861.32 37.4952 1861.32 46.5287 Q1861.32 55.6027 1858.28 64.7983 Q1855.28 73.9938 1849.21 83.5134 L1842.73 83.5134 Q1848.11 74.2369 1850.75 65.0818 Q1853.42 55.8863 1853.42 46.5287 Q1853.42 37.1711 1850.75 28.0566 Q1848.11 18.942 1842.73 9.62495 Z" fill="#000000" fill-rule="evenodd" fill-opacity="1" /><polyline clip-path="url(#clip912)" style="stroke:#009af9; stroke-linecap:round; stroke-linejoin:round; stroke-width:4; stroke-opacity:1; fill:none" points="218.281,1447.87 228.695,1447.86 239.108,1447.85 249.522,1447.82 259.936,1447.78 270.349,1447.72 280.763,1447.63 291.176,1447.49 301.59,1447.29 312.004,1446.99 322.417,1446.58 332.831,1446 343.244,1445.19 353.658,1444.11 364.072,1442.66 374.485,1440.75 384.899,1438.3 395.312,1435.17 405.726,1431.25 416.14,1426.43 426.553,1420.6 436.967,1413.64 447.38,1405.48 457.794,1396.09 468.208,1385.44 478.621,1373.58 489.035,1360.59 499.448,1346.63 509.862,1331.88 520.276,1316.59 530.689,1301.01 541.103,1285.46 551.516,1270.21 561.93,1255.56 572.344,1241.72 582.757,1228.9 593.171,1217.2 603.584,1206.65 613.998,1197.18 624.412,1188.62 634.825,1180.73 645.239,1173.18 655.652,1165.57 666.066,1157.48 676.479,1148.45 686.893,1138.06 697.307,1125.89 707.72,1111.61 718.134,1094.98 728.547,1075.85 738.961,1054.17 749.375,1030.04 759.788,1003.66 770.202,975.309 780.615,945.375 791.029,914.285 801.443,882.491 811.856,850.435 822.27,818.516 832.683,787.058 843.097,756.291 853.511,726.333 863.924,697.187 874.338,668.745 884.751,640.809 895.165,613.112 905.579,585.359 915.992,557.257 926.406,528.563 936.819,499.111 947.233,468.85 957.647,437.855 968.06,406.343 978.474,374.662 988.887,343.277 999.301,312.743 1009.71,283.665 1020.13,256.658 1030.54,232.307 1040.96,211.121 1051.37,193.505 1061.78,179.733 1072.2,169.932 1082.61,164.087 1093.02,162.047 1103.44,163.547 1113.85,168.239 1124.26,175.728 1134.68,185.606 1145.09,197.485 1155.5,211.028 1165.92,225.97 1176.33,242.121 1186.75,259.373 1197.16,277.682 1207.57,297.05 1217.99,317.498 1228.4,339.037 1238.81,361.637 1249.23,385.21 1259.64,409.586 1270.05,434.515 1280.47,459.669 1290.88,484.66 1301.3,509.065 1311.71,532.46 1322.12,554.452 1332.54,574.717 1342.95,593.032 1353.36,609.294 1363.78,623.536 1374.19,635.93 1384.6,646.777 1395.02,656.49 1405.43,665.563 1415.84,674.539 1426.26,683.976 1436.67,694.407 1447.09,706.309 1457.5,720.07 1467.91,735.97 1478.33,754.166 1488.74,774.684 1499.15,797.424 1509.57,822.168 1519.98,848.6 1530.39,876.324 1540.81,904.891 1551.22,933.83 1561.64,962.67 1572.05,990.97 1582.46,1018.33 1592.88,1044.44 1603.29,1069.03 1613.7,1091.95 1624.12,1113.1 1634.53,1132.49 1644.94,1150.17 1655.36,1166.26 1665.77,1180.92 1676.18,1194.31 1686.6,1206.62 1697.01,1218.03 1707.43,1228.71 1717.84,1238.8 1728.25,1248.39 1738.67,1257.57 1749.08,1266.37 1759.49,1274.82 1769.91,1282.89 1780.32,1290.55 1790.73,1297.78 1801.15,1304.54 1811.56,1310.78 1821.97,1316.5 1832.39,1321.7 1842.8,1326.42 1853.22,1330.7 1863.63,1334.63 1874.04,1338.3 1884.46,1341.83 1894.87,1345.34 1905.28,1348.95 1915.7,1352.75 1926.11,1356.85 1936.52,1361.29 1946.94,1366.11 1957.35,1371.29 1967.77,1376.81 1978.18,1382.59 1988.59,1388.54 1999.01,1394.57 2009.42,1400.55 2019.83,1406.38 2030.25,1411.96 2040.66,1417.19 2051.07,1422.02 2061.49,1426.37 2071.9,1430.25 2082.31,1433.62 2092.73,1436.51 2103.14,1438.95 2113.56,1440.96 2123.97,1442.6 2134.38,1443.91 2144.8,1444.93 2155.21,1445.73 2165.62,1446.33 2176.04,1446.79 2186.45,1447.12 2196.86,1447.36 2207.28,1447.53 2217.69,1447.65 2228.11,1447.73 2238.52,1447.79 2248.93,1447.82 2259.35,1447.85 2269.76,1447.86 2280.17,1447.87 2290.59,1447.87 "/>
<path clip-path="url(#clip910)" d="M2007.44 272.585 L2279.53 272.585 L2279.53 168.905 L2007.44 168.905  Z" fill="#ffffff" fill-rule="evenodd" fill-opacity="1"/>
<polyline clip-path="url(#clip910)" style="stroke:#000000; stroke-linecap:round; stroke-linejoin:round; stroke-width:4; stroke-opacity:1; fill:none" points="2007.44,272.585 2279.53,272.585 2279.53,168.905 2007.44,168.905 2007.44,272.585 "/>
<polyline clip-path="url(#clip910)" style="stroke:#009af9; stroke-linecap:round; stroke-linejoin:round; stroke-width:4; stroke-opacity:1; fill:none" points="2031.85,220.745 2178.29,220.745 "/>
<path clip-path="url(#clip910)" d="M2216.54 240.432 Q2214.73 245.062 2213.02 246.474 Q2211.31 247.886 2208.44 247.886 L2205.03 247.886 L2205.03 244.321 L2207.53 244.321 Q2209.29 244.321 2210.27 243.488 Q2211.24 242.654 2212.42 239.552 L2213.18 237.608 L2202.7 212.099 L2207.21 212.099 L2215.31 232.377 L2223.41 212.099 L2227.93 212.099 L2216.54 240.432 Z" fill="#000000" fill-rule="evenodd" fill-opacity="1" /><path clip-path="url(#clip910)" d="M2235.22 234.089 L2242.86 234.089 L2242.86 207.724 L2234.55 209.391 L2234.55 205.131 L2242.81 203.465 L2247.49 203.465 L2247.49 234.089 L2255.13 234.089 L2255.13 238.025 L2235.22 238.025 L2235.22 234.089 Z" fill="#000000" fill-rule="evenodd" fill-opacity="1" /></svg>
