<?xml version="1.0" encoding="utf-8"?>
<svg xmlns="http://www.w3.org/2000/svg" xmlns:xlink="http://www.w3.org/1999/xlink" width="600" height="400" viewBox="0 0 2400 1600">
<defs>
  <clipPath id="clip790">
    <rect x="0" y="0" width="2400" height="1600"/>
  </clipPath>
</defs>
<path clip-path="url(#clip790)" d="M0 1600 L2400 1600 L2400 0 L0 0  Z" fill="#ffffff" fill-rule="evenodd" fill-opacity="1"/>
<defs>
  <clipPath id="clip791">
    <rect x="480" y="0" width="1681" height="1600"/>
  </clipPath>
</defs>
<path clip-path="url(#clip790)" d="M205.121 1423.18 L2352.76 1423.18 L2352.76 123.472 L205.121 123.472  Z" fill="#ffffff" fill-rule="evenodd" fill-opacity="1"/>
<defs>
  <clipPath id="clip792">
    <rect x="205" y="123" width="2149" height="1301"/>
  </clipPath>
</defs>
<polyline clip-path="url(#clip792)" style="stroke:#000000; stroke-linecap:round; stroke-linejoin:round; stroke-width:2; stroke-opacity:0.1; fill:none" points="376.521,1423.18 376.521,123.472 "/>
<polyline clip-path="url(#clip792)" style="stroke:#000000; stroke-linecap:round; stroke-linejoin:round; stroke-width:2; stroke-opacity:0.1; fill:none" points="881.982,1423.18 881.982,123.472 "/>
<polyline clip-path="url(#clip792)" style="stroke:#000000; stroke-linecap:round; stroke-linejoin:round; stroke-width:2; stroke-opacity:0.1; fill:none" points="1387.44,1423.18 1387.44,123.472 "/>
<polyline clip-path="url(#clip792)" style="stroke:#000000; stroke-linecap:round; stroke-linejoin:round; stroke-width:2; stroke-opacity:0.1; fill:none" points="1892.9,1423.18 1892.9,123.472 "/>
<polyline clip-path="url(#clip790)" style="stroke:#000000; stroke-linecap:round; stroke-linejoin:round; stroke-width:4; stroke-opacity:1; fill:none" points="205.121,1423.18 2352.76,1423.18 "/>
<polyline clip-path="url(#clip790)" style="stroke:#000000; stroke-linecap:round; stroke-linejoin:round; stroke-width:4; stroke-opacity:1; fill:none" points="376.521,1423.18 376.521,1404.28 "/>
<polyline clip-path="url(#clip790)" style="stroke:#000000; stroke-linecap:round; stroke-linejoin:round; stroke-width:4; stroke-opacity:1; fill:none" points="881.982,1423.18 881.982,1404.28 "/>
<polyline clip-path="url(#clip790)" style="stroke:#000000; stroke-linecap:round; stroke-linejoin:round; stroke-width:4; stroke-opacity:1; fill:none" points="1387.44,1423.18 1387.44,1404.28 "/>
<polyline clip-path="url(#clip790)" style="stroke:#000000; stroke-linecap:round; stroke-linejoin:round; stroke-width:4; stroke-opacity:1; fill:none" points="1892.9,1423.18 1892.9,1404.28 "/>
<path clip-path="url(#clip790)" d="M344.473 1481.64 L352.112 1481.64 L352.112 1455.28 L343.802 1456.95 L343.802 1452.69 L352.065 1451.02 L356.741 1451.02 L356.741 1481.64 L364.38 1481.64 L364.38 1485.58 L344.473 1485.58 L344.473 1481.64 Z" fill="#000000" fill-rule="evenodd" fill-opacity="1" /><path clip-path="url(#clip790)" d="M373.825 1479.7 L378.709 1479.7 L378.709 1485.58 L373.825 1485.58 L373.825 1479.7 Z" fill="#000000" fill-rule="evenodd" fill-opacity="1" /><path clip-path="url(#clip790)" d="M392.922 1481.64 L409.241 1481.64 L409.241 1485.58 L387.297 1485.58 L387.297 1481.64 Q389.959 1478.89 394.542 1474.26 Q399.149 1469.61 400.329 1468.27 Q402.574 1465.74 403.454 1464.01 Q404.357 1462.25 404.357 1460.56 Q404.357 1457.8 402.412 1456.07 Q400.491 1454.33 397.389 1454.33 Q395.19 1454.33 392.737 1455.09 Q390.306 1455.86 387.528 1457.41 L387.528 1452.69 Q390.352 1451.55 392.806 1450.97 Q395.26 1450.39 397.297 1450.39 Q402.667 1450.39 405.861 1453.08 Q409.056 1455.77 409.056 1460.26 Q409.056 1462.39 408.246 1464.31 Q407.459 1466.2 405.352 1468.8 Q404.774 1469.47 401.672 1472.69 Q398.57 1475.88 392.922 1481.64 Z" fill="#000000" fill-rule="evenodd" fill-opacity="1" /><path clip-path="url(#clip790)" d="M848.892 1481.64 L856.531 1481.64 L856.531 1455.28 L848.221 1456.95 L848.221 1452.69 L856.485 1451.02 L861.161 1451.02 L861.161 1481.64 L868.8 1481.64 L868.8 1485.58 L848.892 1485.58 L848.892 1481.64 Z" fill="#000000" fill-rule="evenodd" fill-opacity="1" /><path clip-path="url(#clip790)" d="M878.244 1479.7 L883.128 1479.7 L883.128 1485.58 L878.244 1485.58 L878.244 1479.7 Z" fill="#000000" fill-rule="evenodd" fill-opacity="1" /><path clip-path="url(#clip790)" d="M906.161 1455.09 L894.355 1473.54 L906.161 1473.54 L906.161 1455.09 M904.934 1451.02 L910.813 1451.02 L910.813 1473.54 L915.744 1473.54 L915.744 1477.43 L910.813 1477.43 L910.813 1485.58 L906.161 1485.58 L906.161 1477.43 L890.559 1477.43 L890.559 1472.92 L904.934 1451.02 Z" fill="#000000" fill-rule="evenodd" fill-opacity="1" /><path clip-path="url(#clip790)" d="M1354.52 1481.64 L1362.15 1481.64 L1362.15 1455.28 L1353.84 1456.95 L1353.84 1452.69 L1362.11 1451.02 L1366.78 1451.02 L1366.78 1481.64 L1374.42 1481.64 L1374.42 1485.58 L1354.52 1485.58 L1354.52 1481.64 Z" fill="#000000" fill-rule="evenodd" fill-opacity="1" /><path clip-path="url(#clip790)" d="M1383.87 1479.7 L1388.75 1479.7 L1388.75 1485.58 L1383.87 1485.58 L1383.87 1479.7 Z" fill="#000000" fill-rule="evenodd" fill-opacity="1" /><path clip-path="url(#clip790)" d="M1409.52 1466.44 Q1406.37 1466.44 1404.52 1468.59 Q1402.69 1470.74 1402.69 1474.49 Q1402.69 1478.22 1404.52 1480.39 Q1406.37 1482.55 1409.52 1482.55 Q1412.66 1482.55 1414.49 1480.39 Q1416.34 1478.22 1416.34 1474.49 Q1416.34 1470.74 1414.49 1468.59 Q1412.66 1466.44 1409.52 1466.44 M1418.8 1451.78 L1418.8 1456.04 Q1417.04 1455.21 1415.23 1454.77 Q1413.45 1454.33 1411.69 1454.33 Q1407.06 1454.33 1404.61 1457.45 Q1402.18 1460.58 1401.83 1466.9 Q1403.2 1464.89 1405.26 1463.82 Q1407.32 1462.73 1409.79 1462.73 Q1415 1462.73 1418.01 1465.9 Q1421.04 1469.05 1421.04 1474.49 Q1421.04 1479.82 1417.89 1483.03 Q1414.75 1486.25 1409.52 1486.25 Q1403.52 1486.25 1400.35 1481.67 Q1397.18 1477.06 1397.18 1468.33 Q1397.18 1460.14 1401.07 1455.28 Q1404.96 1450.39 1411.51 1450.39 Q1413.27 1450.39 1415.05 1450.74 Q1416.85 1451.09 1418.8 1451.78 Z" fill="#000000" fill-rule="evenodd" fill-opacity="1" /><path clip-path="url(#clip790)" d="M1860.1 1481.64 L1867.74 1481.64 L1867.74 1455.28 L1859.43 1456.95 L1859.43 1452.69 L1867.7 1451.02 L1872.37 1451.02 L1872.37 1481.64 L1880.01 1481.64 L1880.01 1485.58 L1860.1 1485.58 L1860.1 1481.64 Z" fill="#000000" fill-rule="evenodd" fill-opacity="1" /><path clip-path="url(#clip790)" d="M1889.46 1479.7 L1894.34 1479.7 L1894.34 1485.58 L1889.46 1485.58 L1889.46 1479.7 Z" fill="#000000" fill-rule="evenodd" fill-opacity="1" /><path clip-path="url(#clip790)" d="M1914.52 1469.17 Q1911.19 1469.17 1909.27 1470.95 Q1907.37 1472.73 1907.37 1475.86 Q1907.37 1478.98 1909.27 1480.77 Q1911.19 1482.55 1914.52 1482.55 Q1917.86 1482.55 1919.78 1480.77 Q1921.7 1478.96 1921.7 1475.86 Q1921.7 1472.73 1919.78 1470.95 Q1917.88 1469.17 1914.52 1469.17 M1909.85 1467.18 Q1906.84 1466.44 1905.15 1464.38 Q1903.48 1462.32 1903.48 1459.35 Q1903.48 1455.21 1906.42 1452.8 Q1909.39 1450.39 1914.52 1450.39 Q1919.69 1450.39 1922.63 1452.8 Q1925.57 1455.21 1925.57 1459.35 Q1925.57 1462.32 1923.88 1464.38 Q1922.21 1466.44 1919.22 1467.18 Q1922.6 1467.96 1924.48 1470.26 Q1926.38 1472.55 1926.38 1475.86 Q1926.38 1480.88 1923.3 1483.57 Q1920.24 1486.25 1914.52 1486.25 Q1908.81 1486.25 1905.73 1483.57 Q1902.67 1480.88 1902.67 1475.86 Q1902.67 1472.55 1904.57 1470.26 Q1906.47 1467.96 1909.85 1467.18 M1908.14 1459.79 Q1908.14 1462.48 1909.8 1463.98 Q1911.49 1465.49 1914.52 1465.49 Q1917.53 1465.49 1919.22 1463.98 Q1920.94 1462.48 1920.94 1459.79 Q1920.94 1457.11 1919.22 1455.6 Q1917.53 1454.1 1914.52 1454.1 Q1911.49 1454.1 1909.8 1455.6 Q1908.14 1457.11 1908.14 1459.79 Z" fill="#000000" fill-rule="evenodd" fill-opacity="1" /><path clip-path="url(#clip790)" d="M1051.75 1526.86 L1043.03 1550.51 L1060.5 1550.51 L1051.75 1526.86 M1048.12 1520.52 L1055.41 1520.52 L1073.52 1568.04 L1066.83 1568.04 L1062.5 1555.85 L1041.08 1555.85 L1036.76 1568.04 L1029.98 1568.04 L1048.12 1520.52 Z" fill="#000000" fill-rule="evenodd" fill-opacity="1" /><path clip-path="url(#clip790)" d="M1102.51 1537.81 L1102.51 1518.52 L1108.37 1518.52 L1108.37 1568.04 L1102.51 1568.04 L1102.51 1562.7 Q1100.67 1565.88 1097.83 1567.44 Q1095.03 1568.97 1091.09 1568.97 Q1084.63 1568.97 1080.55 1563.81 Q1076.51 1558.65 1076.51 1550.25 Q1076.51 1541.85 1080.55 1536.69 Q1084.63 1531.54 1091.09 1531.54 Q1095.03 1531.54 1097.83 1533.1 Q1100.67 1534.62 1102.51 1537.81 M1082.56 1550.25 Q1082.56 1556.71 1085.2 1560.4 Q1087.87 1564.07 1092.52 1564.07 Q1097.17 1564.07 1099.84 1560.4 Q1102.51 1556.71 1102.51 1550.25 Q1102.51 1543.79 1099.84 1540.13 Q1097.17 1536.44 1092.52 1536.44 Q1087.87 1536.44 1085.2 1540.13 Q1082.56 1543.79 1082.56 1550.25 Z" fill="#000000" fill-rule="evenodd" fill-opacity="1" /><path clip-path="url(#clip790)" d="M1120.43 1532.4 L1126.29 1532.4 L1126.29 1568.04 L1120.43 1568.04 L1120.43 1532.4 M1120.43 1518.52 L1126.29 1518.52 L1126.29 1525.93 L1120.43 1525.93 L1120.43 1518.52 Z" fill="#000000" fill-rule="evenodd" fill-opacity="1" /><path clip-path="url(#clip790)" d="M1144.21 1562.7 L1144.21 1581.6 L1138.32 1581.6 L1138.32 1532.4 L1144.21 1532.4 L1144.21 1537.81 Q1146.05 1534.62 1148.86 1533.1 Q1151.69 1531.54 1155.6 1531.54 Q1162.1 1531.54 1166.14 1536.69 Q1170.21 1541.85 1170.21 1550.25 Q1170.21 1558.65 1166.14 1563.81 Q1162.1 1568.97 1155.6 1568.97 Q1151.69 1568.97 1148.86 1567.44 Q1146.05 1565.88 1144.21 1562.7 M1164.13 1550.25 Q1164.13 1543.79 1161.46 1540.13 Q1158.82 1536.44 1154.17 1536.44 Q1149.52 1536.44 1146.85 1540.13 Q1144.21 1543.79 1144.21 1550.25 Q1144.21 1556.71 1146.85 1560.4 Q1149.52 1564.07 1154.17 1564.07 Q1158.82 1564.07 1161.46 1560.4 Q1164.13 1556.71 1164.13 1550.25 Z" fill="#000000" fill-rule="evenodd" fill-opacity="1" /><path clip-path="url(#clip790)" d="M1193.73 1536.5 Q1189.02 1536.5 1186.29 1540.19 Q1183.55 1543.85 1183.55 1550.25 Q1183.55 1556.65 1186.25 1560.34 Q1188.99 1564 1193.73 1564 Q1198.41 1564 1201.15 1560.31 Q1203.89 1556.62 1203.89 1550.25 Q1203.89 1543.92 1201.15 1540.23 Q1198.41 1536.5 1193.73 1536.5 M1193.73 1531.54 Q1201.37 1531.54 1205.73 1536.5 Q1210.09 1541.47 1210.09 1550.25 Q1210.09 1559 1205.73 1564 Q1201.37 1568.97 1193.73 1568.97 Q1186.06 1568.97 1181.7 1564 Q1177.37 1559 1177.37 1550.25 Q1177.37 1541.47 1181.7 1536.5 Q1186.06 1531.54 1193.73 1531.54 Z" fill="#000000" fill-rule="evenodd" fill-opacity="1" /><path clip-path="url(#clip790)" d="M1242.53 1533.45 L1242.53 1538.98 Q1240.04 1537.71 1237.37 1537.07 Q1234.7 1536.44 1231.83 1536.44 Q1227.47 1536.44 1225.28 1537.77 Q1223.11 1539.11 1223.11 1541.79 Q1223.11 1543.82 1224.67 1545 Q1226.23 1546.15 1230.94 1547.2 L1232.95 1547.64 Q1239.18 1548.98 1241.79 1551.43 Q1244.44 1553.85 1244.44 1558.21 Q1244.44 1563.17 1240.49 1566.07 Q1236.57 1568.97 1229.7 1568.97 Q1226.84 1568.97 1223.72 1568.39 Q1220.63 1567.85 1217.19 1566.74 L1217.19 1560.69 Q1220.44 1562.38 1223.59 1563.24 Q1226.74 1564.07 1229.83 1564.07 Q1233.96 1564.07 1236.19 1562.66 Q1238.42 1561.23 1238.42 1558.65 Q1238.42 1556.27 1236.8 1554.99 Q1235.21 1553.72 1229.76 1552.54 L1227.73 1552.07 Q1222.28 1550.92 1219.86 1548.56 Q1217.45 1546.18 1217.45 1542.04 Q1217.45 1537.01 1221.01 1534.27 Q1224.58 1531.54 1231.13 1531.54 Q1234.38 1531.54 1237.24 1532.01 Q1240.11 1532.49 1242.53 1533.45 Z" fill="#000000" fill-rule="evenodd" fill-opacity="1" /><path clip-path="url(#clip790)" d="M1253.76 1532.4 L1259.62 1532.4 L1259.62 1568.04 L1253.76 1568.04 L1253.76 1532.4 M1253.76 1518.52 L1259.62 1518.52 L1259.62 1525.93 L1253.76 1525.93 L1253.76 1518.52 Z" fill="#000000" fill-rule="evenodd" fill-opacity="1" /><path clip-path="url(#clip790)" d="M1277.67 1522.27 L1277.67 1532.4 L1289.73 1532.4 L1289.73 1536.95 L1277.67 1536.95 L1277.67 1556.3 Q1277.67 1560.66 1278.84 1561.9 Q1280.05 1563.14 1283.71 1563.14 L1289.73 1563.14 L1289.73 1568.04 L1283.71 1568.04 Q1276.93 1568.04 1274.36 1565.53 Q1271.78 1562.98 1271.78 1556.3 L1271.78 1536.95 L1267.48 1536.95 L1267.48 1532.4 L1271.78 1532.4 L1271.78 1522.27 L1277.67 1522.27 Z" fill="#000000" fill-rule="evenodd" fill-opacity="1" /><path clip-path="url(#clip790)" d="M1312.26 1571.35 Q1309.78 1577.72 1307.42 1579.66 Q1305.07 1581.6 1301.12 1581.6 L1296.44 1581.6 L1296.44 1576.7 L1299.88 1576.7 Q1302.3 1576.7 1303.64 1575.56 Q1304.97 1574.41 1306.6 1570.14 L1307.65 1567.47 L1293.23 1532.4 L1299.44 1532.4 L1310.58 1560.28 L1321.72 1532.4 L1327.92 1532.4 L1312.26 1571.35 Z" fill="#000000" fill-rule="evenodd" fill-opacity="1" /><path clip-path="url(#clip790)" d="M1356.98 1520.52 L1363.41 1520.52 L1363.41 1568.04 L1356.98 1568.04 L1356.98 1520.52 Z" fill="#000000" fill-rule="evenodd" fill-opacity="1" /><path clip-path="url(#clip790)" d="M1405.58 1546.53 L1405.58 1568.04 L1399.73 1568.04 L1399.73 1546.72 Q1399.73 1541.66 1397.75 1539.14 Q1395.78 1536.63 1391.83 1536.63 Q1387.09 1536.63 1384.35 1539.65 Q1381.62 1542.68 1381.62 1547.9 L1381.62 1568.04 L1375.73 1568.04 L1375.73 1532.4 L1381.62 1532.4 L1381.62 1537.93 Q1383.72 1534.72 1386.55 1533.13 Q1389.42 1531.54 1393.14 1531.54 Q1399.28 1531.54 1402.43 1535.36 Q1405.58 1539.14 1405.58 1546.53 Z" fill="#000000" fill-rule="evenodd" fill-opacity="1" /><path clip-path="url(#clip790)" d="M1440.72 1537.81 L1440.72 1518.52 L1446.58 1518.52 L1446.58 1568.04 L1440.72 1568.04 L1440.72 1562.7 Q1438.88 1565.88 1436.04 1567.44 Q1433.24 1568.97 1429.3 1568.97 Q1422.84 1568.97 1418.76 1563.81 Q1414.72 1558.65 1414.72 1550.25 Q1414.72 1541.85 1418.76 1536.69 Q1422.84 1531.54 1429.3 1531.54 Q1433.24 1531.54 1436.04 1533.1 Q1438.88 1534.62 1440.72 1537.81 M1420.77 1550.25 Q1420.77 1556.71 1423.41 1560.4 Q1426.08 1564.07 1430.73 1564.07 Q1435.38 1564.07 1438.05 1560.4 Q1440.72 1556.71 1440.72 1550.25 Q1440.72 1543.79 1438.05 1540.13 Q1435.38 1536.44 1430.73 1536.44 Q1426.08 1536.44 1423.41 1540.13 Q1420.77 1543.79 1420.77 1550.25 Z" fill="#000000" fill-rule="evenodd" fill-opacity="1" /><path clip-path="url(#clip790)" d="M1489.13 1548.76 L1489.13 1551.62 L1462.21 1551.62 Q1462.59 1557.67 1465.84 1560.85 Q1469.11 1564 1474.94 1564 Q1478.31 1564 1481.46 1563.17 Q1484.65 1562.35 1487.77 1560.69 L1487.77 1566.23 Q1484.61 1567.57 1481.3 1568.27 Q1477.99 1568.97 1474.59 1568.97 Q1466.06 1568.97 1461.06 1564 Q1456.1 1559.04 1456.1 1550.57 Q1456.1 1541.82 1460.81 1536.69 Q1465.55 1531.54 1473.57 1531.54 Q1480.76 1531.54 1484.93 1536.18 Q1489.13 1540.8 1489.13 1548.76 M1483.28 1547.04 Q1483.21 1542.23 1480.57 1539.37 Q1477.96 1536.5 1473.63 1536.5 Q1468.73 1536.5 1465.77 1539.27 Q1462.84 1542.04 1462.4 1547.07 L1483.28 1547.04 Z" fill="#000000" fill-rule="evenodd" fill-opacity="1" /><path clip-path="url(#clip790)" d="M1527.23 1532.4 L1514.34 1549.74 L1527.9 1568.04 L1520.99 1568.04 L1510.62 1554.04 L1500.24 1568.04 L1493.34 1568.04 L1507.18 1549.39 L1494.51 1532.4 L1501.42 1532.4 L1510.87 1545.1 L1520.33 1532.4 L1527.23 1532.4 Z" fill="#000000" fill-rule="evenodd" fill-opacity="1" /><polyline clip-path="url(#clip792)" style="stroke:#000000; stroke-linecap:round; stroke-linejoin:round; stroke-width:2; stroke-opacity:0.1; fill:none" points="205.121,1386.4 2352.76,1386.4 "/>
<polyline clip-path="url(#clip792)" style="stroke:#000000; stroke-linecap:round; stroke-linejoin:round; stroke-width:2; stroke-opacity:0.1; fill:none" points="205.121,1128.26 2352.76,1128.26 "/>
<polyline clip-path="url(#clip792)" style="stroke:#000000; stroke-linecap:round; stroke-linejoin:round; stroke-width:2; stroke-opacity:0.1; fill:none" points="205.121,870.126 2352.76,870.126 "/>
<polyline clip-path="url(#clip792)" style="stroke:#000000; stroke-linecap:round; stroke-linejoin:round; stroke-width:2; stroke-opacity:0.1; fill:none" points="205.121,611.992 2352.76,611.992 "/>
<polyline clip-path="url(#clip792)" style="stroke:#000000; stroke-linecap:round; stroke-linejoin:round; stroke-width:2; stroke-opacity:0.1; fill:none" points="205.121,353.857 2352.76,353.857 "/>
<polyline clip-path="url(#clip790)" style="stroke:#000000; stroke-linecap:round; stroke-linejoin:round; stroke-width:4; stroke-opacity:1; fill:none" points="205.121,1423.18 205.121,123.472 "/>
<polyline clip-path="url(#clip790)" style="stroke:#000000; stroke-linecap:round; stroke-linejoin:round; stroke-width:4; stroke-opacity:1; fill:none" points="205.121,1386.4 224.019,1386.4 "/>
<polyline clip-path="url(#clip790)" style="stroke:#000000; stroke-linecap:round; stroke-linejoin:round; stroke-width:4; stroke-opacity:1; fill:none" points="205.121,1128.26 224.019,1128.26 "/>
<polyline clip-path="url(#clip790)" style="stroke:#000000; stroke-linecap:round; stroke-linejoin:round; stroke-width:4; stroke-opacity:1; fill:none" points="205.121,870.126 224.019,870.126 "/>
<polyline clip-path="url(#clip790)" style="stroke:#000000; stroke-linecap:round; stroke-linejoin:round; stroke-width:4; stroke-opacity:1; fill:none" points="205.121,611.992 224.019,611.992 "/>
<polyline clip-path="url(#clip790)" style="stroke:#000000; stroke-linecap:round; stroke-linejoin:round; stroke-width:4; stroke-opacity:1; fill:none" points="205.121,353.857 224.019,353.857 "/>
<path clip-path="url(#clip790)" d="M157.177 1372.19 Q153.566 1372.19 151.737 1375.76 Q149.931 1379.3 149.931 1386.43 Q149.931 1393.54 151.737 1397.1 Q153.566 1400.64 157.177 1400.64 Q160.811 1400.64 162.616 1397.1 Q164.445 1393.54 164.445 1386.43 Q164.445 1379.3 162.616 1375.76 Q160.811 1372.19 157.177 1372.19 M157.177 1368.49 Q162.987 1368.49 166.042 1373.1 Q169.121 1377.68 169.121 1386.43 Q169.121 1395.16 166.042 1399.76 Q162.987 1404.35 157.177 1404.35 Q151.366 1404.35 148.288 1399.76 Q145.232 1395.16 145.232 1386.43 Q145.232 1377.68 148.288 1373.1 Q151.366 1368.49 157.177 1368.49 Z" fill="#000000" fill-rule="evenodd" fill-opacity="1" /><path clip-path="url(#clip790)" d="M117.825 1141.61 L125.464 1141.61 L125.464 1115.24 L117.154 1116.91 L117.154 1112.65 L125.418 1110.98 L130.093 1110.98 L130.093 1141.61 L137.732 1141.61 L137.732 1145.54 L117.825 1145.54 L117.825 1141.61 Z" fill="#000000" fill-rule="evenodd" fill-opacity="1" /><path clip-path="url(#clip790)" d="M157.177 1114.06 Q153.566 1114.06 151.737 1117.62 Q149.931 1121.17 149.931 1128.3 Q149.931 1135.4 151.737 1138.97 Q153.566 1142.51 157.177 1142.51 Q160.811 1142.51 162.616 1138.97 Q164.445 1135.4 164.445 1128.3 Q164.445 1121.17 162.616 1117.62 Q160.811 1114.06 157.177 1114.06 M157.177 1110.36 Q162.987 1110.36 166.042 1114.96 Q169.121 1119.55 169.121 1128.3 Q169.121 1137.02 166.042 1141.63 Q162.987 1146.21 157.177 1146.21 Q151.366 1146.21 148.288 1141.63 Q145.232 1137.02 145.232 1128.3 Q145.232 1119.55 148.288 1114.96 Q151.366 1110.36 157.177 1110.36 Z" fill="#000000" fill-rule="evenodd" fill-opacity="1" /><path clip-path="url(#clip790)" d="M121.043 883.471 L137.362 883.471 L137.362 887.406 L115.418 887.406 L115.418 883.471 Q118.08 880.717 122.663 876.087 Q127.269 871.434 128.45 870.092 Q130.695 867.569 131.575 865.833 Q132.478 864.073 132.478 862.383 Q132.478 859.629 130.533 857.893 Q128.612 856.157 125.51 856.157 Q123.311 856.157 120.857 856.921 Q118.427 857.684 115.649 859.235 L115.649 854.513 Q118.473 853.379 120.927 852.8 Q123.38 852.221 125.418 852.221 Q130.788 852.221 133.982 854.907 Q137.177 857.592 137.177 862.083 Q137.177 864.212 136.367 866.133 Q135.579 868.032 133.473 870.624 Q132.894 871.295 129.792 874.513 Q126.691 877.707 121.043 883.471 Z" fill="#000000" fill-rule="evenodd" fill-opacity="1" /><path clip-path="url(#clip790)" d="M157.177 855.925 Q153.566 855.925 151.737 859.49 Q149.931 863.032 149.931 870.161 Q149.931 877.268 151.737 880.832 Q153.566 884.374 157.177 884.374 Q160.811 884.374 162.616 880.832 Q164.445 877.268 164.445 870.161 Q164.445 863.032 162.616 859.49 Q160.811 855.925 157.177 855.925 M157.177 852.221 Q162.987 852.221 166.042 856.828 Q169.121 861.411 169.121 870.161 Q169.121 878.888 166.042 883.494 Q162.987 888.078 157.177 888.078 Q151.366 888.078 148.288 883.494 Q145.232 878.888 145.232 870.161 Q145.232 861.411 148.288 856.828 Q151.366 852.221 157.177 852.221 Z" fill="#000000" fill-rule="evenodd" fill-opacity="1" /><path clip-path="url(#clip790)" d="M131.181 610.638 Q134.538 611.355 136.413 613.624 Q138.311 615.892 138.311 619.226 Q138.311 624.341 134.792 627.142 Q131.274 629.943 124.793 629.943 Q122.617 629.943 120.302 629.503 Q118.01 629.087 115.556 628.23 L115.556 623.716 Q117.501 624.851 119.816 625.429 Q122.13 626.008 124.654 626.008 Q129.052 626.008 131.343 624.272 Q133.658 622.536 133.658 619.226 Q133.658 616.17 131.505 614.457 Q129.376 612.721 125.556 612.721 L121.529 612.721 L121.529 608.878 L125.742 608.878 Q129.191 608.878 131.019 607.513 Q132.848 606.124 132.848 603.531 Q132.848 600.869 130.95 599.457 Q129.075 598.022 125.556 598.022 Q123.635 598.022 121.436 598.439 Q119.237 598.855 116.598 599.735 L116.598 595.568 Q119.26 594.828 121.575 594.457 Q123.913 594.087 125.973 594.087 Q131.297 594.087 134.399 596.517 Q137.501 598.925 137.501 603.045 Q137.501 605.916 135.857 607.906 Q134.214 609.874 131.181 610.638 Z" fill="#000000" fill-rule="evenodd" fill-opacity="1" /><path clip-path="url(#clip790)" d="M157.177 597.791 Q153.566 597.791 151.737 601.355 Q149.931 604.897 149.931 612.027 Q149.931 619.133 151.737 622.698 Q153.566 626.239 157.177 626.239 Q160.811 626.239 162.616 622.698 Q164.445 619.133 164.445 612.027 Q164.445 604.897 162.616 601.355 Q160.811 597.791 157.177 597.791 M157.177 594.087 Q162.987 594.087 166.042 598.693 Q169.121 603.277 169.121 612.027 Q169.121 620.753 166.042 625.36 Q162.987 629.943 157.177 629.943 Q151.366 629.943 148.288 625.36 Q145.232 620.753 145.232 612.027 Q145.232 603.277 148.288 598.693 Q151.366 594.087 157.177 594.087 Z" fill="#000000" fill-rule="evenodd" fill-opacity="1" /><path clip-path="url(#clip790)" d="M129.862 340.651 L118.056 359.1 L129.862 359.1 L129.862 340.651 M128.635 336.577 L134.515 336.577 L134.515 359.1 L139.445 359.1 L139.445 362.989 L134.515 362.989 L134.515 371.137 L129.862 371.137 L129.862 362.989 L114.26 362.989 L114.26 358.475 L128.635 336.577 Z" fill="#000000" fill-rule="evenodd" fill-opacity="1" /><path clip-path="url(#clip790)" d="M157.177 339.656 Q153.566 339.656 151.737 343.221 Q149.931 346.762 149.931 353.892 Q149.931 360.998 151.737 364.563 Q153.566 368.105 157.177 368.105 Q160.811 368.105 162.616 364.563 Q164.445 360.998 164.445 353.892 Q164.445 346.762 162.616 343.221 Q160.811 339.656 157.177 339.656 M157.177 335.952 Q162.987 335.952 166.042 340.559 Q169.121 345.142 169.121 353.892 Q169.121 362.619 166.042 367.225 Q162.987 371.809 157.177 371.809 Q151.366 371.809 148.288 367.225 Q145.232 362.619 145.232 353.892 Q145.232 345.142 148.288 340.559 Q151.366 335.952 157.177 335.952 Z" fill="#000000" fill-rule="evenodd" fill-opacity="1" /><path clip-path="url(#clip790)" d="M21.7677 1037.06 L39.6235 1037.06 L39.6235 1028.97 Q39.6235 1024.48 37.3 1022.03 Q34.9765 1019.58 30.6797 1019.58 Q26.4147 1019.58 24.0912 1022.03 Q21.7677 1024.48 21.7677 1028.97 L21.7677 1037.06 M16.4842 1043.49 L16.4842 1028.97 Q16.4842 1020.98 20.1126 1016.91 Q23.7092 1012.8 30.6797 1012.8 Q37.7138 1012.8 41.3104 1016.91 Q44.907 1020.98 44.907 1028.97 L44.907 1037.06 L64.0042 1037.06 L64.0042 1043.49 L16.4842 1043.49 Z" fill="#000000" fill-rule="evenodd" fill-opacity="1" /><path clip-path="url(#clip790)" d="M44.7161 976.265 L47.5806 976.265 L47.5806 1003.19 Q53.6281 1002.81 56.8109 999.563 Q59.9619 996.285 59.9619 990.46 Q59.9619 987.086 59.1344 983.935 Q58.3069 980.753 56.6518 977.633 L62.1899 977.633 Q63.5267 980.784 64.227 984.095 Q64.9272 987.405 64.9272 990.81 Q64.9272 999.34 59.9619 1004.34 Q54.9967 1009.3 46.5303 1009.3 Q37.7774 1009.3 32.6531 1004.59 Q27.4968 999.85 27.4968 991.829 Q27.4968 984.636 32.1438 980.466 Q36.7589 976.265 44.7161 976.265 M42.9973 982.121 Q38.1912 982.185 35.3266 984.827 Q32.4621 987.437 32.4621 991.765 Q32.4621 996.667 35.2312 999.627 Q38.0002 1002.56 43.0292 1003 L42.9973 982.121 Z" fill="#000000" fill-rule="evenodd" fill-opacity="1" /><path clip-path="url(#clip790)" d="M33.8307 945.996 Q33.2578 946.982 33.0032 948.16 Q32.7167 949.306 32.7167 950.706 Q32.7167 955.672 35.9632 958.345 Q39.1779 960.987 45.2253 960.987 L64.0042 960.987 L64.0042 966.875 L28.3562 966.875 L28.3562 960.987 L33.8944 960.987 Q30.6479 959.141 29.0883 956.181 Q27.4968 953.221 27.4968 948.988 Q27.4968 948.383 27.5923 947.651 Q27.656 946.919 27.8151 946.028 L33.8307 945.996 Z" fill="#000000" fill-rule="evenodd" fill-opacity="1" /><path clip-path="url(#clip790)" d="M29.7248 915.631 L35.1993 915.631 Q33.8307 918.114 33.1623 920.628 Q32.4621 923.111 32.4621 925.657 Q32.4621 931.355 36.0905 934.506 Q39.6872 937.657 46.212 937.657 Q52.7369 937.657 56.3653 934.506 Q59.9619 931.355 59.9619 925.657 Q59.9619 923.111 59.2935 920.628 Q58.5933 918.114 57.2247 915.631 L62.6355 915.631 Q63.7814 918.082 64.3543 920.724 Q64.9272 923.334 64.9272 926.294 Q64.9272 934.347 59.8664 939.089 Q54.8057 943.831 46.212 943.831 Q37.491 943.831 32.4939 939.057 Q27.4968 934.251 27.4968 925.912 Q27.4968 923.207 28.0697 920.628 Q28.6108 918.05 29.7248 915.631 Z" fill="#000000" fill-rule="evenodd" fill-opacity="1" /><path clip-path="url(#clip790)" d="M44.7161 874.954 L47.5806 874.954 L47.5806 901.881 Q53.6281 901.499 56.8109 898.253 Q59.9619 894.975 59.9619 889.15 Q59.9619 885.776 59.1344 882.625 Q58.3069 879.442 56.6518 876.323 L62.1899 876.323 Q63.5267 879.474 64.227 882.784 Q64.9272 886.094 64.9272 889.5 Q64.9272 898.03 59.9619 903.027 Q54.9967 907.993 46.5303 907.993 Q37.7774 907.993 32.6531 903.282 Q27.4968 898.539 27.4968 890.519 Q27.4968 883.325 32.1438 879.156 Q36.7589 874.954 44.7161 874.954 M42.9973 880.811 Q38.1912 880.875 35.3266 883.516 Q32.4621 886.126 32.4621 890.455 Q32.4621 895.357 35.2312 898.317 Q38.0002 901.245 43.0292 901.69 L42.9973 880.811 Z" fill="#000000" fill-rule="evenodd" fill-opacity="1" /><path clip-path="url(#clip790)" d="M42.4881 835.71 L64.0042 835.71 L64.0042 841.566 L42.679 841.566 Q37.6183 841.566 35.1038 843.54 Q32.5894 845.513 32.5894 849.46 Q32.5894 854.202 35.6131 856.94 Q38.6368 859.677 43.8567 859.677 L64.0042 859.677 L64.0042 865.565 L28.3562 865.565 L28.3562 859.677 L33.8944 859.677 Q30.6797 857.576 29.0883 854.743 Q27.4968 851.879 27.4968 848.155 Q27.4968 842.012 31.3163 838.861 Q35.1038 835.71 42.4881 835.71 Z" fill="#000000" fill-rule="evenodd" fill-opacity="1" /><path clip-path="url(#clip790)" d="M18.2347 818.236 L28.3562 818.236 L28.3562 806.173 L32.9077 806.173 L32.9077 818.236 L52.2594 818.236 Q56.6199 818.236 57.8613 817.058 Q59.1026 815.849 59.1026 812.189 L59.1026 806.173 L64.0042 806.173 L64.0042 812.189 Q64.0042 818.968 61.4897 821.546 Q58.9434 824.124 52.2594 824.124 L32.9077 824.124 L32.9077 828.421 L28.3562 828.421 L28.3562 824.124 L18.2347 824.124 L18.2347 818.236 Z" fill="#000000" fill-rule="evenodd" fill-opacity="1" /><path clip-path="url(#clip790)" d="M41.3104 771.066 L58.7206 771.066 L58.7206 760.754 Q58.7206 755.566 56.5881 753.083 Q54.4238 750.569 49.9996 750.569 Q45.5436 750.569 43.4429 753.083 Q41.3104 755.566 41.3104 760.754 L41.3104 771.066 M21.7677 771.066 L36.0905 771.066 L36.0905 761.549 Q36.0905 756.839 34.34 754.547 Q32.5576 752.224 28.9291 752.224 Q25.3325 752.224 23.5501 754.547 Q21.7677 756.839 21.7677 761.549 L21.7677 771.066 M16.4842 777.496 L16.4842 761.072 Q16.4842 753.72 19.5397 749.741 Q22.5952 745.762 28.2289 745.762 Q32.5894 745.762 35.1675 747.8 Q37.7456 749.837 38.3822 753.783 Q39.4007 749.041 42.6472 746.431 Q45.8619 743.789 50.6998 743.789 Q57.0655 743.789 60.5348 748.118 Q64.0042 752.446 64.0042 760.435 L64.0042 777.496 L16.4842 777.496 Z" fill="#000000" fill-rule="evenodd" fill-opacity="1" /><path clip-path="url(#clip790)" d="M32.4621 719.217 Q32.4621 723.928 36.1542 726.665 Q39.8145 729.403 46.212 729.403 Q52.6095 729.403 56.3017 726.697 Q59.9619 723.96 59.9619 719.217 Q59.9619 714.539 56.2698 711.801 Q52.5777 709.064 46.212 709.064 Q39.8781 709.064 36.186 711.801 Q32.4621 714.539 32.4621 719.217 M27.4968 719.217 Q27.4968 711.579 32.4621 707.218 Q37.4273 702.858 46.212 702.858 Q54.9649 702.858 59.9619 707.218 Q64.9272 711.579 64.9272 719.217 Q64.9272 726.888 59.9619 731.249 Q54.9649 735.577 46.212 735.577 Q37.4273 735.577 32.4621 731.249 Q27.4968 726.888 27.4968 719.217 Z" fill="#000000" fill-rule="evenodd" fill-opacity="1" /><path clip-path="url(#clip790)" d="M33.7671 669.692 L14.479 669.692 L14.479 663.836 L64.0042 663.836 L64.0042 669.692 L58.657 669.692 Q61.8398 671.538 63.3994 674.371 Q64.9272 677.172 64.9272 681.119 Q64.9272 687.58 59.771 691.654 Q54.6147 695.696 46.212 695.696 Q37.8093 695.696 32.6531 691.654 Q27.4968 687.58 27.4968 681.119 Q27.4968 677.172 29.0564 674.371 Q30.5842 671.538 33.7671 669.692 M46.212 689.649 Q52.6732 689.649 56.3653 687.007 Q60.0256 684.333 60.0256 679.686 Q60.0256 675.039 56.3653 672.366 Q52.6732 669.692 46.212 669.692 Q39.7508 669.692 36.0905 672.366 Q32.3984 675.039 32.3984 679.686 Q32.3984 684.333 36.0905 687.007 Q39.7508 689.649 46.212 689.649 Z" fill="#000000" fill-rule="evenodd" fill-opacity="1" /><path clip-path="url(#clip790)" d="M67.3143 636.941 Q73.68 639.423 75.6216 641.779 Q77.5631 644.134 77.5631 648.081 L77.5631 652.76 L72.6615 652.76 L72.6615 649.322 Q72.6615 646.903 71.5157 645.566 Q70.3699 644.229 66.1048 642.606 L63.4312 641.556 L28.3562 655.974 L28.3562 649.768 L56.238 638.628 L28.3562 627.488 L28.3562 621.281 L67.3143 636.941 Z" fill="#000000" fill-rule="evenodd" fill-opacity="1" /><path clip-path="url(#clip790)" d="M16.4842 592.222 L16.4842 564.913 L21.895 564.913 L21.895 585.792 L35.8996 585.792 L35.8996 566.95 L41.3104 566.95 L41.3104 585.792 L64.0042 585.792 L64.0042 592.222 L16.4842 592.222 Z" fill="#000000" fill-rule="evenodd" fill-opacity="1" /><path clip-path="url(#clip790)" d="M46.0847 544.765 Q46.0847 551.863 47.7079 554.6 Q49.3312 557.338 53.2461 557.338 Q56.3653 557.338 58.2114 555.301 Q60.0256 553.232 60.0256 549.699 Q60.0256 544.829 56.5881 541.901 Q53.1188 538.941 47.3897 538.941 L46.0847 538.941 L46.0847 544.765 M43.6657 533.084 L64.0042 533.084 L64.0042 538.941 L58.5933 538.941 Q61.8398 540.946 63.3994 543.938 Q64.9272 546.93 64.9272 551.258 Q64.9272 556.733 61.8716 559.979 Q58.7843 563.194 53.6281 563.194 Q47.6125 563.194 44.5569 559.184 Q41.5014 555.141 41.5014 547.152 L41.5014 538.941 L40.9285 538.941 Q36.8862 538.941 34.6901 541.614 Q32.4621 544.256 32.4621 549.062 Q32.4621 552.118 33.1941 555.014 Q33.9262 557.91 35.3903 560.584 L29.9795 560.584 Q28.7381 557.369 28.1334 554.346 Q27.4968 551.322 27.4968 548.457 Q27.4968 540.723 31.5072 536.904 Q35.5176 533.084 43.6657 533.084 Z" fill="#000000" fill-rule="evenodd" fill-opacity="1" /><path clip-path="url(#clip790)" d="M18.2347 515.228 L28.3562 515.228 L28.3562 503.165 L32.9077 503.165 L32.9077 515.228 L52.2594 515.228 Q56.6199 515.228 57.8613 514.051 Q59.1026 512.841 59.1026 509.181 L59.1026 503.165 L64.0042 503.165 L64.0042 509.181 Q64.0042 515.96 61.4897 518.539 Q58.9434 521.117 52.2594 521.117 L32.9077 521.117 L32.9077 525.414 L28.3562 525.414 L28.3562 521.117 L18.2347 521.117 L18.2347 515.228 Z" fill="#000000" fill-rule="evenodd" fill-opacity="1" /><path clip-path="url(#clip790)" d="M490.916 12.096 L529.157 12.096 L529.157 18.9825 L499.099 18.9825 L499.099 36.8875 L527.901 36.8875 L527.901 43.7741 L499.099 43.7741 L499.099 65.6895 L529.886 65.6895 L529.886 72.576 L490.916 72.576 L490.916 12.096 Z" fill="#000000" fill-rule="evenodd" fill-opacity="1" /><path clip-path="url(#clip790)" d="M571.934 28.5427 L571.934 35.5912 Q568.774 33.9709 565.372 33.1607 Q561.969 32.3505 558.323 32.3505 Q552.773 32.3505 549.978 34.0519 Q547.224 35.7533 547.224 39.156 Q547.224 41.7486 549.209 43.2475 Q551.193 44.7058 557.189 46.0426 L559.741 46.6097 Q567.681 48.3111 571.002 51.4303 Q574.365 54.509 574.365 60.0587 Q574.365 66.3781 569.342 70.0644 Q564.359 73.7508 555.609 73.7508 Q551.963 73.7508 547.993 73.0216 Q544.064 72.3329 539.689 70.9151 L539.689 63.2184 Q543.821 65.3654 547.831 66.4591 Q551.842 67.5124 555.771 67.5124 Q561.037 67.5124 563.873 65.73 Q566.708 63.9071 566.708 60.6258 Q566.708 57.5877 564.642 55.9673 Q562.617 54.3469 555.69 52.8481 L553.097 52.2405 Q546.17 50.7821 543.092 47.7845 Q540.013 44.7463 540.013 39.4801 Q540.013 33.0797 544.55 29.5959 Q549.087 26.1121 557.432 26.1121 Q561.564 26.1121 565.21 26.7198 Q568.855 27.3274 571.934 28.5427 Z" fill="#000000" fill-rule="evenodd" fill-opacity="1" /><path clip-path="url(#clip790)" d="M593.606 14.324 L593.606 27.2059 L608.959 27.2059 L608.959 32.9987 L593.606 32.9987 L593.606 57.6282 Q593.606 63.1779 595.105 64.7578 Q596.645 66.3376 601.303 66.3376 L608.959 66.3376 L608.959 72.576 L601.303 72.576 Q592.675 72.576 589.394 69.3758 Q586.112 66.1351 586.112 57.6282 L586.112 32.9987 L580.644 32.9987 L580.644 27.2059 L586.112 27.2059 L586.112 14.324 L593.606 14.324 Z" fill="#000000" fill-rule="evenodd" fill-opacity="1" /><path clip-path="url(#clip790)" d="M618.763 27.2059 L626.216 27.2059 L626.216 72.576 L618.763 72.576 L618.763 27.2059 M618.763 9.54393 L626.216 9.54393 L626.216 18.9825 L618.763 18.9825 L618.763 9.54393 Z" fill="#000000" fill-rule="evenodd" fill-opacity="1" /><path clip-path="url(#clip790)" d="M677.136 35.9153 Q679.931 30.8922 683.82 28.5022 Q687.709 26.1121 692.975 26.1121 Q700.064 26.1121 703.913 31.0947 Q707.761 36.0368 707.761 45.1919 L707.761 72.576 L700.267 72.576 L700.267 45.4349 Q700.267 38.913 697.958 35.7533 Q695.649 32.5936 690.909 32.5936 Q685.116 32.5936 681.754 36.4419 Q678.392 40.2903 678.392 46.9338 L678.392 72.576 L670.898 72.576 L670.898 45.4349 Q670.898 38.8725 668.589 35.7533 Q666.28 32.5936 661.459 32.5936 Q655.747 32.5936 652.385 36.4824 Q649.023 40.3308 649.023 46.9338 L649.023 72.576 L641.529 72.576 L641.529 27.2059 L649.023 27.2059 L649.023 34.2544 Q651.575 30.082 655.14 28.0971 Q658.704 26.1121 663.606 26.1121 Q668.548 26.1121 671.991 28.6237 Q675.475 31.1352 677.136 35.9153 Z" fill="#000000" fill-rule="evenodd" fill-opacity="1" /><path clip-path="url(#clip790)" d="M743.247 49.7694 Q734.213 49.7694 730.73 51.8354 Q727.246 53.9013 727.246 58.8839 Q727.246 62.8538 729.838 65.2034 Q732.471 67.5124 736.968 67.5124 Q743.166 67.5124 746.893 63.1374 Q750.66 58.7219 750.66 51.4303 L750.66 49.7694 L743.247 49.7694 M758.114 46.6907 L758.114 72.576 L750.66 72.576 L750.66 65.6895 Q748.108 69.8214 744.3 71.8063 Q740.492 73.7508 734.983 73.7508 Q728.015 73.7508 723.884 69.8619 Q719.792 65.9325 719.792 59.3701 Q719.792 51.7138 724.896 47.825 Q730.041 43.9361 740.209 43.9361 L750.66 43.9361 L750.66 43.2069 Q750.66 38.0623 747.257 35.2672 Q743.895 32.4315 737.778 32.4315 Q733.889 32.4315 730.203 33.3632 Q726.517 34.295 723.114 36.1584 L723.114 29.2718 Q727.205 27.692 731.054 26.9223 Q734.902 26.1121 738.548 26.1121 Q748.392 26.1121 753.253 31.2163 Q758.114 36.3204 758.114 46.6907 Z" fill="#000000" fill-rule="evenodd" fill-opacity="1" /><path clip-path="url(#clip790)" d="M780.839 14.324 L780.839 27.2059 L796.192 27.2059 L796.192 32.9987 L780.839 32.9987 L780.839 57.6282 Q780.839 63.1779 782.338 64.7578 Q783.877 66.3376 788.536 66.3376 L796.192 66.3376 L796.192 72.576 L788.536 72.576 Q779.908 72.576 776.626 69.3758 Q773.345 66.1351 773.345 57.6282 L773.345 32.9987 L767.876 32.9987 L767.876 27.2059 L773.345 27.2059 L773.345 14.324 L780.839 14.324 Z" fill="#000000" fill-rule="evenodd" fill-opacity="1" /><path clip-path="url(#clip790)" d="M844.803 48.0275 L844.803 51.6733 L810.532 51.6733 Q811.018 59.3701 815.15 63.421 Q819.323 67.4314 826.736 67.4314 Q831.03 67.4314 835.04 66.3781 Q839.091 65.3249 843.061 63.2184 L843.061 70.267 Q839.051 71.9684 834.838 72.8596 Q830.625 73.7508 826.29 73.7508 Q815.434 73.7508 809.074 67.4314 Q802.755 61.1119 802.755 50.3365 Q802.755 39.1965 808.75 32.6746 Q814.786 26.1121 824.994 26.1121 Q834.149 26.1121 839.456 32.0264 Q844.803 37.9003 844.803 48.0275 M837.349 45.84 Q837.268 39.7232 833.906 36.0774 Q830.584 32.4315 825.075 32.4315 Q818.837 32.4315 815.069 35.9558 Q811.343 39.4801 810.775 45.8805 L837.349 45.84 Z" fill="#000000" fill-rule="evenodd" fill-opacity="1" /><path clip-path="url(#clip790)" d="M886.892 34.0924 L886.892 9.54393 L894.346 9.54393 L894.346 72.576 L886.892 72.576 L886.892 65.7705 Q884.542 69.8214 880.937 71.8063 Q877.372 73.7508 872.349 73.7508 Q864.126 73.7508 858.941 67.1883 Q853.796 60.6258 853.796 49.9314 Q853.796 39.2371 858.941 32.6746 Q864.126 26.1121 872.349 26.1121 Q877.372 26.1121 880.937 28.0971 Q884.542 30.0415 886.892 34.0924 M861.493 49.9314 Q861.493 58.1548 864.855 62.8538 Q868.258 67.5124 874.172 67.5124 Q880.086 67.5124 883.489 62.8538 Q886.892 58.1548 886.892 49.9314 Q886.892 41.7081 883.489 37.0496 Q880.086 32.3505 874.172 32.3505 Q868.258 32.3505 864.855 37.0496 Q861.493 41.7081 861.493 49.9314 Z" fill="#000000" fill-rule="evenodd" fill-opacity="1" /><path clip-path="url(#clip790)" d="M944.577 43.6931 L944.577 65.8515 L957.702 65.8515 Q964.305 65.8515 967.464 63.1374 Q970.665 60.3828 970.665 54.752 Q970.665 49.0808 967.464 46.4072 Q964.305 43.6931 957.702 43.6931 L944.577 43.6931 M944.577 18.8205 L944.577 37.0496 L956.689 37.0496 Q962.684 37.0496 965.601 34.8216 Q968.558 32.5531 968.558 27.935 Q968.558 23.3575 965.601 21.089 Q962.684 18.8205 956.689 18.8205 L944.577 18.8205 M936.394 12.096 L957.297 12.096 Q966.654 12.096 971.718 15.9849 Q976.781 19.8737 976.781 27.0438 Q976.781 32.5936 974.189 35.8748 Q971.596 39.156 966.573 39.9662 Q972.609 41.2625 975.931 45.3944 Q979.293 49.4858 979.293 55.6432 Q979.293 63.745 973.784 68.1605 Q968.275 72.576 958.107 72.576 L936.394 72.576 L936.394 12.096 Z" fill="#000000" fill-rule="evenodd" fill-opacity="1" /><path clip-path="url(#clip790)" d="M1010.57 32.4315 Q1004.57 32.4315 1001.09 37.1306 Q997.603 41.7891 997.603 49.9314 Q997.603 58.0738 1001.05 62.7728 Q1004.53 67.4314 1010.57 67.4314 Q1016.52 67.4314 1020 62.7323 Q1023.49 58.0333 1023.49 49.9314 Q1023.49 41.8701 1020 37.1711 Q1016.52 32.4315 1010.57 32.4315 M1010.57 26.1121 Q1020.29 26.1121 1025.84 32.4315 Q1031.39 38.7509 1031.39 49.9314 Q1031.39 61.0714 1025.84 67.4314 Q1020.29 73.7508 1010.57 73.7508 Q1000.8 73.7508 995.254 67.4314 Q989.744 61.0714 989.744 49.9314 Q989.744 38.7509 995.254 32.4315 Q1000.8 26.1121 1010.57 26.1121 Z" fill="#000000" fill-rule="evenodd" fill-opacity="1" /><path clip-path="url(#clip790)" d="M1073.6 34.0924 L1073.6 9.54393 L1081.05 9.54393 L1081.05 72.576 L1073.6 72.576 L1073.6 65.7705 Q1071.25 69.8214 1067.64 71.8063 Q1064.08 73.7508 1059.06 73.7508 Q1050.83 73.7508 1045.65 67.1883 Q1040.5 60.6258 1040.5 49.9314 Q1040.5 39.2371 1045.65 32.6746 Q1050.83 26.1121 1059.06 26.1121 Q1064.08 26.1121 1067.64 28.0971 Q1071.25 30.0415 1073.6 34.0924 M1048.2 49.9314 Q1048.2 58.1548 1051.56 62.8538 Q1054.96 67.5124 1060.88 67.5124 Q1066.79 67.5124 1070.2 62.8538 Q1073.6 58.1548 1073.6 49.9314 Q1073.6 41.7081 1070.2 37.0496 Q1066.79 32.3505 1060.88 32.3505 Q1054.96 32.3505 1051.56 37.0496 Q1048.2 41.7081 1048.2 49.9314 Z" fill="#000000" fill-rule="evenodd" fill-opacity="1" /><path clip-path="url(#clip790)" d="M1115.28 76.7889 Q1112.12 84.8907 1109.12 87.3618 Q1106.13 89.8329 1101.1 89.8329 L1095.15 89.8329 L1095.15 83.5945 L1099.52 83.5945 Q1102.6 83.5945 1104.3 82.1361 Q1106.01 80.6778 1108.07 75.2496 L1109.41 71.8468 L1091.06 27.2059 L1098.96 27.2059 L1113.13 62.6918 L1127.31 27.2059 L1135.21 27.2059 L1115.28 76.7889 Z" fill="#000000" fill-rule="evenodd" fill-opacity="1" /><path clip-path="url(#clip790)" d="M1172.2 12.096 L1206.95 12.096 L1206.95 18.9825 L1180.38 18.9825 L1180.38 36.8065 L1204.36 36.8065 L1204.36 43.6931 L1180.38 43.6931 L1180.38 72.576 L1172.2 72.576 L1172.2 12.096 Z" fill="#000000" fill-rule="evenodd" fill-opacity="1" /><path clip-path="url(#clip790)" d="M1232.6 49.7694 Q1223.56 49.7694 1220.08 51.8354 Q1216.6 53.9013 1216.6 58.8839 Q1216.6 62.8538 1219.19 65.2034 Q1221.82 67.5124 1226.32 67.5124 Q1232.52 67.5124 1236.24 63.1374 Q1240.01 58.7219 1240.01 51.4303 L1240.01 49.7694 L1232.6 49.7694 M1247.46 46.6907 L1247.46 72.576 L1240.01 72.576 L1240.01 65.6895 Q1237.46 69.8214 1233.65 71.8063 Q1229.84 73.7508 1224.33 73.7508 Q1217.36 73.7508 1213.23 69.8619 Q1209.14 65.9325 1209.14 59.3701 Q1209.14 51.7138 1214.25 47.825 Q1219.39 43.9361 1229.56 43.9361 L1240.01 43.9361 L1240.01 43.2069 Q1240.01 38.0623 1236.61 35.2672 Q1233.24 32.4315 1227.13 32.4315 Q1223.24 32.4315 1219.55 33.3632 Q1215.87 34.295 1212.46 36.1584 L1212.46 29.2718 Q1216.55 27.692 1220.4 26.9223 Q1224.25 26.1121 1227.9 26.1121 Q1237.74 26.1121 1242.6 31.2163 Q1247.46 36.3204 1247.46 46.6907 Z" fill="#000000" fill-rule="evenodd" fill-opacity="1" /><path clip-path="url(#clip790)" d="M1270.19 14.324 L1270.19 27.2059 L1285.54 27.2059 L1285.54 32.9987 L1270.19 32.9987 L1270.19 57.6282 Q1270.19 63.1779 1271.69 64.7578 Q1273.23 66.3376 1277.89 66.3376 L1285.54 66.3376 L1285.54 72.576 L1277.89 72.576 Q1269.26 72.576 1265.98 69.3758 Q1262.69 66.1351 1262.69 57.6282 L1262.69 32.9987 L1257.23 32.9987 L1257.23 27.2059 L1262.69 27.2059 L1262.69 14.324 L1270.19 14.324 Z" fill="#000000" fill-rule="evenodd" fill-opacity="1" /><path clip-path="url(#clip790)" d="M1316.37 27.2059 L1324.27 27.2059 L1338.45 65.2844 L1352.62 27.2059 L1360.52 27.2059 L1343.51 72.576 L1333.38 72.576 L1316.37 27.2059 Z" fill="#000000" fill-rule="evenodd" fill-opacity="1" /><path clip-path="url(#clip790)" d="M1399.74 28.5427 L1399.74 35.5912 Q1396.58 33.9709 1393.17 33.1607 Q1389.77 32.3505 1386.13 32.3505 Q1380.58 32.3505 1377.78 34.0519 Q1375.03 35.7533 1375.03 39.156 Q1375.03 41.7486 1377.01 43.2475 Q1379 44.7058 1384.99 46.0426 L1387.54 46.6097 Q1395.48 48.3111 1398.8 51.4303 Q1402.17 54.509 1402.17 60.0587 Q1402.17 66.3781 1397.14 70.0644 Q1392.16 73.7508 1383.41 73.7508 Q1379.77 73.7508 1375.8 73.0216 Q1371.87 72.3329 1367.49 70.9151 L1367.49 63.2184 Q1371.62 65.3654 1375.63 66.4591 Q1379.64 67.5124 1383.57 67.5124 Q1388.84 67.5124 1391.68 65.73 Q1394.51 63.9071 1394.51 60.6258 Q1394.51 57.5877 1392.44 55.9673 Q1390.42 54.3469 1383.49 52.8481 L1380.9 52.2405 Q1373.97 50.7821 1370.89 47.7845 Q1367.82 44.7463 1367.82 39.4801 Q1367.82 33.0797 1372.35 29.5959 Q1376.89 26.1121 1385.23 26.1121 Q1389.37 26.1121 1393.01 26.7198 Q1396.66 27.3274 1399.74 28.5427 Z" fill="#000000" fill-rule="evenodd" fill-opacity="1" /><path clip-path="url(#clip790)" d="M1460.95 20.1573 L1449.85 50.2555 L1472.09 50.2555 L1460.95 20.1573 M1456.33 12.096 L1465.6 12.096 L1488.65 72.576 L1480.15 72.576 L1474.64 57.061 L1447.38 57.061 L1441.87 72.576 L1433.24 72.576 L1456.33 12.096 Z" fill="#000000" fill-rule="evenodd" fill-opacity="1" /><path clip-path="url(#clip790)" d="M1525.56 34.0924 L1525.56 9.54393 L1533.01 9.54393 L1533.01 72.576 L1525.56 72.576 L1525.56 65.7705 Q1523.21 69.8214 1519.6 71.8063 Q1516.04 73.7508 1511.01 73.7508 Q1502.79 73.7508 1497.61 67.1883 Q1492.46 60.6258 1492.46 49.9314 Q1492.46 39.2371 1497.61 32.6746 Q1502.79 26.1121 1511.01 26.1121 Q1516.04 26.1121 1519.6 28.0971 Q1523.21 30.0415 1525.56 34.0924 M1500.16 49.9314 Q1500.16 58.1548 1503.52 62.8538 Q1506.92 67.5124 1512.84 67.5124 Q1518.75 67.5124 1522.15 62.8538 Q1525.56 58.1548 1525.56 49.9314 Q1525.56 41.7081 1522.15 37.0496 Q1518.75 32.3505 1512.84 32.3505 Q1506.92 32.3505 1503.52 37.0496 Q1500.16 41.7081 1500.16 49.9314 Z" fill="#000000" fill-rule="evenodd" fill-opacity="1" /><path clip-path="url(#clip790)" d="M1548.36 27.2059 L1555.82 27.2059 L1555.82 72.576 L1548.36 72.576 L1548.36 27.2059 M1548.36 9.54393 L1555.82 9.54393 L1555.82 18.9825 L1548.36 18.9825 L1548.36 9.54393 Z" fill="#000000" fill-rule="evenodd" fill-opacity="1" /><path clip-path="url(#clip790)" d="M1578.62 65.7705 L1578.62 89.8329 L1571.13 89.8329 L1571.13 27.2059 L1578.62 27.2059 L1578.62 34.0924 Q1580.97 30.0415 1584.54 28.0971 Q1588.14 26.1121 1593.13 26.1121 Q1601.39 26.1121 1606.54 32.6746 Q1611.72 39.2371 1611.72 49.9314 Q1611.72 60.6258 1606.54 67.1883 Q1601.39 73.7508 1593.13 73.7508 Q1588.14 73.7508 1584.54 71.8063 Q1580.97 69.8214 1578.62 65.7705 M1603.98 49.9314 Q1603.98 41.7081 1600.58 37.0496 Q1597.22 32.3505 1591.3 32.3505 Q1585.39 32.3505 1581.99 37.0496 Q1578.62 41.7081 1578.62 49.9314 Q1578.62 58.1548 1581.99 62.8538 Q1585.39 67.5124 1591.3 67.5124 Q1597.22 67.5124 1600.58 62.8538 Q1603.98 58.1548 1603.98 49.9314 Z" fill="#000000" fill-rule="evenodd" fill-opacity="1" /><path clip-path="url(#clip790)" d="M1641.66 32.4315 Q1635.66 32.4315 1632.18 37.1306 Q1628.69 41.7891 1628.69 49.9314 Q1628.69 58.0738 1632.14 62.7728 Q1635.62 67.4314 1641.66 67.4314 Q1647.61 67.4314 1651.1 62.7323 Q1654.58 58.0333 1654.58 49.9314 Q1654.58 41.8701 1651.1 37.1711 Q1647.61 32.4315 1641.66 32.4315 M1641.66 26.1121 Q1651.38 26.1121 1656.93 32.4315 Q1662.48 38.7509 1662.48 49.9314 Q1662.48 61.0714 1656.93 67.4314 Q1651.38 73.7508 1641.66 73.7508 Q1631.89 73.7508 1626.34 67.4314 Q1620.83 61.0714 1620.83 49.9314 Q1620.83 38.7509 1626.34 32.4315 Q1631.89 26.1121 1641.66 26.1121 Z" fill="#000000" fill-rule="evenodd" fill-opacity="1" /><path clip-path="url(#clip790)" d="M1703.76 28.5427 L1703.76 35.5912 Q1700.6 33.9709 1697.19 33.1607 Q1693.79 32.3505 1690.15 32.3505 Q1684.6 32.3505 1681.8 34.0519 Q1679.05 35.7533 1679.05 39.156 Q1679.05 41.7486 1681.03 43.2475 Q1683.02 44.7058 1689.01 46.0426 L1691.56 46.6097 Q1699.5 48.3111 1702.83 51.4303 Q1706.19 54.509 1706.19 60.0587 Q1706.19 66.3781 1701.16 70.0644 Q1696.18 73.7508 1687.43 73.7508 Q1683.79 73.7508 1679.82 73.0216 Q1675.89 72.3329 1671.51 70.9151 L1671.51 63.2184 Q1675.64 65.3654 1679.65 66.4591 Q1683.66 67.5124 1687.59 67.5124 Q1692.86 67.5124 1695.7 65.73 Q1698.53 63.9071 1698.53 60.6258 Q1698.53 57.5877 1696.47 55.9673 Q1694.44 54.3469 1687.51 52.8481 L1684.92 52.2405 Q1677.99 50.7821 1674.91 47.7845 Q1671.84 44.7463 1671.84 39.4801 Q1671.84 33.0797 1676.37 29.5959 Q1680.91 26.1121 1689.25 26.1121 Q1693.39 26.1121 1697.03 26.7198 Q1700.68 27.3274 1703.76 28.5427 Z" fill="#000000" fill-rule="evenodd" fill-opacity="1" /><path clip-path="url(#clip790)" d="M1718.06 27.2059 L1725.51 27.2059 L1725.51 72.576 L1718.06 72.576 L1718.06 27.2059 M1718.06 9.54393 L1725.51 9.54393 L1725.51 18.9825 L1718.06 18.9825 L1718.06 9.54393 Z" fill="#000000" fill-rule="evenodd" fill-opacity="1" /><path clip-path="url(#clip790)" d="M1748.48 14.324 L1748.48 27.2059 L1763.83 27.2059 L1763.83 32.9987 L1748.48 32.9987 L1748.48 57.6282 Q1748.48 63.1779 1749.98 64.7578 Q1751.52 66.3376 1756.18 66.3376 L1763.83 66.3376 L1763.83 72.576 L1756.18 72.576 Q1747.55 72.576 1744.27 69.3758 Q1740.98 66.1351 1740.98 57.6282 L1740.98 32.9987 L1735.52 32.9987 L1735.52 27.2059 L1740.98 27.2059 L1740.98 14.324 L1748.48 14.324 Z" fill="#000000" fill-rule="evenodd" fill-opacity="1" /><path clip-path="url(#clip790)" d="M1792.51 76.7889 Q1789.35 84.8907 1786.35 87.3618 Q1783.36 89.8329 1778.33 89.8329 L1772.38 89.8329 L1772.38 83.5945 L1776.75 83.5945 Q1779.83 83.5945 1781.53 82.1361 Q1783.24 80.6778 1785.3 75.2496 L1786.64 71.8468 L1768.29 27.2059 L1776.19 27.2059 L1790.37 62.6918 L1804.54 27.2059 L1812.44 27.2059 L1792.51 76.7889 Z" fill="#000000" fill-rule="evenodd" fill-opacity="1" /><path clip-path="url(#clip790)" d="M1849.43 12.096 L1857.61 12.096 L1857.61 72.576 L1849.43 72.576 L1849.43 12.096 Z" fill="#000000" fill-rule="evenodd" fill-opacity="1" /><path clip-path="url(#clip790)" d="M1911.28 45.1919 L1911.28 72.576 L1903.83 72.576 L1903.83 45.4349 Q1903.83 38.994 1901.32 35.7938 Q1898.81 32.5936 1893.78 32.5936 Q1887.75 32.5936 1884.27 36.4419 Q1880.78 40.2903 1880.78 46.9338 L1880.78 72.576 L1873.29 72.576 L1873.29 27.2059 L1880.78 27.2059 L1880.78 34.2544 Q1883.45 30.163 1887.06 28.1376 Q1890.71 26.1121 1895.45 26.1121 Q1903.26 26.1121 1907.27 30.9732 Q1911.28 35.7938 1911.28 45.1919 Z" fill="#000000" fill-rule="evenodd" fill-opacity="1" /><path clip-path="url(#clip790)" d="M1956.01 34.0924 L1956.01 9.54393 L1963.46 9.54393 L1963.46 72.576 L1956.01 72.576 L1956.01 65.7705 Q1953.66 69.8214 1950.05 71.8063 Q1946.49 73.7508 1941.46 73.7508 Q1933.24 73.7508 1928.06 67.1883 Q1922.91 60.6258 1922.91 49.9314 Q1922.91 39.2371 1928.06 32.6746 Q1933.24 26.1121 1941.46 26.1121 Q1946.49 26.1121 1950.05 28.0971 Q1953.66 30.0415 1956.01 34.0924 M1930.61 49.9314 Q1930.61 58.1548 1933.97 62.8538 Q1937.37 67.5124 1943.29 67.5124 Q1949.2 67.5124 1952.6 62.8538 Q1956.01 58.1548 1956.01 49.9314 Q1956.01 41.7081 1952.6 37.0496 Q1949.2 32.3505 1943.29 32.3505 Q1937.37 32.3505 1933.97 37.0496 Q1930.61 41.7081 1930.61 49.9314 Z" fill="#000000" fill-rule="evenodd" fill-opacity="1" /><path clip-path="url(#clip790)" d="M2017.62 48.0275 L2017.62 51.6733 L1983.35 51.6733 Q1983.84 59.3701 1987.97 63.421 Q1992.14 67.4314 1999.55 67.4314 Q2003.85 67.4314 2007.86 66.3781 Q2011.91 65.3249 2015.88 63.2184 L2015.88 70.267 Q2011.87 71.9684 2007.66 72.8596 Q2003.44 73.7508 1999.11 73.7508 Q1988.25 73.7508 1981.89 67.4314 Q1975.57 61.1119 1975.57 50.3365 Q1975.57 39.1965 1981.57 32.6746 Q1987.6 26.1121 1997.81 26.1121 Q2006.97 26.1121 2012.27 32.0264 Q2017.62 37.9003 2017.62 48.0275 M2010.17 45.84 Q2010.09 39.7232 2006.72 36.0774 Q2003.4 32.4315 1997.89 32.4315 Q1991.65 32.4315 1987.89 35.9558 Q1984.16 39.4801 1983.59 45.8805 L2010.17 45.84 Z" fill="#000000" fill-rule="evenodd" fill-opacity="1" /><path clip-path="url(#clip790)" d="M2066.11 27.2059 L2049.7 49.2833 L2066.96 72.576 L2058.17 72.576 L2044.96 54.752 L2031.76 72.576 L2022.97 72.576 L2040.59 48.8377 L2024.47 27.2059 L2033.26 27.2059 L2045.29 43.369 L2057.32 27.2059 L2066.11 27.2059 Z" fill="#000000" fill-rule="evenodd" fill-opacity="1" /><circle clip-path="url(#clip792)" cx="934.455" cy="1068.89" r="14.4" fill="#009af9" fill-rule="evenodd" fill-opacity="1" stroke="#000000" stroke-opacity="1" stroke-width="3.2"/>
<circle clip-path="url(#clip792)" cx="579.219" cy="1228.93" r="14.4" fill="#009af9" fill-rule="evenodd" fill-opacity="1" stroke="#000000" stroke-opacity="1" stroke-width="3.2"/>
<circle clip-path="url(#clip792)" cx="1087.09" cy="733.315" r="14.4" fill="#009af9" fill-rule="evenodd" fill-opacity="1" stroke="#000000" stroke-opacity="1" stroke-width="3.2"/>
<circle clip-path="url(#clip792)" cx="631.489" cy="1117.94" r="14.4" fill="#009af9" fill-rule="evenodd" fill-opacity="1" stroke="#000000" stroke-opacity="1" stroke-width="3.2"/>
<circle clip-path="url(#clip792)" cx="1698.81" cy="645.549" r="14.4" fill="#009af9" fill-rule="evenodd" fill-opacity="1" stroke="#000000" stroke-opacity="1" stroke-width="3.2"/>
<circle clip-path="url(#clip792)" cx="911.838" cy="846.894" r="14.4" fill="#009af9" fill-rule="evenodd" fill-opacity="1" stroke="#000000" stroke-opacity="1" stroke-width="3.2"/>
<circle clip-path="url(#clip792)" cx="913.984" cy="890.777" r="14.4" fill="#009af9" fill-rule="evenodd" fill-opacity="1" stroke="#000000" stroke-opacity="1" stroke-width="3.2"/>
<circle clip-path="url(#clip792)" cx="977.276" cy="1066.31" r="14.4" fill="#009af9" fill-rule="evenodd" fill-opacity="1" stroke="#000000" stroke-opacity="1" stroke-width="3.2"/>
<circle clip-path="url(#clip792)" cx="313.52" cy="1280.56" r="14.4" fill="#009af9" fill-rule="evenodd" fill-opacity="1" stroke="#000000" stroke-opacity="1" stroke-width="3.2"/>
<circle clip-path="url(#clip792)" cx="621.366" cy="1084.38" r="14.4" fill="#009af9" fill-rule="evenodd" fill-opacity="1" stroke="#000000" stroke-opacity="1" stroke-width="3.2"/>
<circle clip-path="url(#clip792)" cx="492.144" cy="1203.12" r="14.4" fill="#009af9" fill-rule="evenodd" fill-opacity="1" stroke="#000000" stroke-opacity="1" stroke-width="3.2"/>
<circle clip-path="url(#clip792)" cx="617.942" cy="1185.05" r="14.4" fill="#009af9" fill-rule="evenodd" fill-opacity="1" stroke="#000000" stroke-opacity="1" stroke-width="3.2"/>
<circle clip-path="url(#clip792)" cx="982.188" cy="849.476" r="14.4" fill="#009af9" fill-rule="evenodd" fill-opacity="1" stroke="#000000" stroke-opacity="1" stroke-width="3.2"/>
<circle clip-path="url(#clip792)" cx="1395.23" cy="839.15" r="14.4" fill="#009af9" fill-rule="evenodd" fill-opacity="1" stroke="#000000" stroke-opacity="1" stroke-width="3.2"/>
<circle clip-path="url(#clip792)" cx="1217.89" cy="815.918" r="14.4" fill="#009af9" fill-rule="evenodd" fill-opacity="1" stroke="#000000" stroke-opacity="1" stroke-width="3.2"/>
<circle clip-path="url(#clip792)" cx="1276.85" cy="846.894" r="14.4" fill="#009af9" fill-rule="evenodd" fill-opacity="1" stroke="#000000" stroke-opacity="1" stroke-width="3.2"/>
<circle clip-path="url(#clip792)" cx="1139.76" cy="637.805" r="14.4" fill="#009af9" fill-rule="evenodd" fill-opacity="1" stroke="#000000" stroke-opacity="1" stroke-width="3.2"/>
<circle clip-path="url(#clip792)" cx="976.358" cy="795.267" r="14.4" fill="#009af9" fill-rule="evenodd" fill-opacity="1" stroke="#000000" stroke-opacity="1" stroke-width="3.2"/>
<circle clip-path="url(#clip792)" cx="677.357" cy="973.38" r="14.4" fill="#009af9" fill-rule="evenodd" fill-opacity="1" stroke="#000000" stroke-opacity="1" stroke-width="3.2"/>
<circle clip-path="url(#clip792)" cx="1292.07" cy="960.474" r="14.4" fill="#009af9" fill-rule="evenodd" fill-opacity="1" stroke="#000000" stroke-opacity="1" stroke-width="3.2"/>
<circle clip-path="url(#clip792)" cx="1278.43" cy="893.359" r="14.4" fill="#009af9" fill-rule="evenodd" fill-opacity="1" stroke="#000000" stroke-opacity="1" stroke-width="3.2"/>
<circle clip-path="url(#clip792)" cx="1168.12" cy="994.031" r="14.4" fill="#009af9" fill-rule="evenodd" fill-opacity="1" stroke="#000000" stroke-opacity="1" stroke-width="3.2"/>
<circle clip-path="url(#clip792)" cx="542.667" cy="983.706" r="14.4" fill="#009af9" fill-rule="evenodd" fill-opacity="1" stroke="#000000" stroke-opacity="1" stroke-width="3.2"/>
<circle clip-path="url(#clip792)" cx="735.607" cy="929.497" r="14.4" fill="#009af9" fill-rule="evenodd" fill-opacity="1" stroke="#000000" stroke-opacity="1" stroke-width="3.2"/>
<circle clip-path="url(#clip792)" cx="280.585" cy="1025.01" r="14.4" fill="#009af9" fill-rule="evenodd" fill-opacity="1" stroke="#000000" stroke-opacity="1" stroke-width="3.2"/>
<circle clip-path="url(#clip792)" cx="555.633" cy="1290.89" r="14.4" fill="#009af9" fill-rule="evenodd" fill-opacity="1" stroke="#000000" stroke-opacity="1" stroke-width="3.2"/>
<circle clip-path="url(#clip792)" cx="560.906" cy="1182.47" r="14.4" fill="#009af9" fill-rule="evenodd" fill-opacity="1" stroke="#000000" stroke-opacity="1" stroke-width="3.2"/>
<circle clip-path="url(#clip792)" cx="1384.91" cy="795.267" r="14.4" fill="#009af9" fill-rule="evenodd" fill-opacity="1" stroke="#000000" stroke-opacity="1" stroke-width="3.2"/>
<circle clip-path="url(#clip792)" cx="332.42" cy="1290.89" r="14.4" fill="#009af9" fill-rule="evenodd" fill-opacity="1" stroke="#000000" stroke-opacity="1" stroke-width="3.2"/>
<circle clip-path="url(#clip792)" cx="714.197" cy="1159.24" r="14.4" fill="#009af9" fill-rule="evenodd" fill-opacity="1" stroke="#000000" stroke-opacity="1" stroke-width="3.2"/>
<circle clip-path="url(#clip792)" cx="934.245" cy="1079.22" r="14.4" fill="#009af9" fill-rule="evenodd" fill-opacity="1" stroke="#000000" stroke-opacity="1" stroke-width="3.2"/>
<circle clip-path="url(#clip792)" cx="919.085" cy="1239.26" r="14.4" fill="#009af9" fill-rule="evenodd" fill-opacity="1" stroke="#000000" stroke-opacity="1" stroke-width="3.2"/>
<circle clip-path="url(#clip792)" cx="332.194" cy="1081.8" r="14.4" fill="#009af9" fill-rule="evenodd" fill-opacity="1" stroke="#000000" stroke-opacity="1" stroke-width="3.2"/>
<circle clip-path="url(#clip792)" cx="1039.95" cy="836.569" r="14.4" fill="#009af9" fill-rule="evenodd" fill-opacity="1" stroke="#000000" stroke-opacity="1" stroke-width="3.2"/>
<circle clip-path="url(#clip792)" cx="1817.62" cy="552.621" r="14.4" fill="#009af9" fill-rule="evenodd" fill-opacity="1" stroke="#000000" stroke-opacity="1" stroke-width="3.2"/>
<circle clip-path="url(#clip792)" cx="2227.12" cy="351.276" r="14.4" fill="#009af9" fill-rule="evenodd" fill-opacity="1" stroke="#000000" stroke-opacity="1" stroke-width="3.2"/>
<circle clip-path="url(#clip792)" cx="1312.08" cy="761.71" r="14.4" fill="#009af9" fill-rule="evenodd" fill-opacity="1" stroke="#000000" stroke-opacity="1" stroke-width="3.2"/>
<circle clip-path="url(#clip792)" cx="1157.2" cy="653.293" r="14.4" fill="#009af9" fill-rule="evenodd" fill-opacity="1" stroke="#000000" stroke-opacity="1" stroke-width="3.2"/>
<circle clip-path="url(#clip792)" cx="2258.24" cy="477.762" r="14.4" fill="#009af9" fill-rule="evenodd" fill-opacity="1" stroke="#000000" stroke-opacity="1" stroke-width="3.2"/>
<circle clip-path="url(#clip792)" cx="1687.32" cy="544.877" r="14.4" fill="#009af9" fill-rule="evenodd" fill-opacity="1" stroke="#000000" stroke-opacity="1" stroke-width="3.2"/>
<circle clip-path="url(#clip792)" cx="2036.91" cy="495.831" r="14.4" fill="#009af9" fill-rule="evenodd" fill-opacity="1" stroke="#000000" stroke-opacity="1" stroke-width="3.2"/>
<circle clip-path="url(#clip792)" cx="1836" cy="570.69" r="14.4" fill="#009af9" fill-rule="evenodd" fill-opacity="1" stroke="#000000" stroke-opacity="1" stroke-width="3.2"/>
<circle clip-path="url(#clip792)" cx="1475.7" cy="560.365" r="14.4" fill="#009af9" fill-rule="evenodd" fill-opacity="1" stroke="#000000" stroke-opacity="1" stroke-width="3.2"/>
<circle clip-path="url(#clip792)" cx="875.377" cy="1187.63" r="14.4" fill="#009af9" fill-rule="evenodd" fill-opacity="1" stroke="#000000" stroke-opacity="1" stroke-width="3.2"/>
<circle clip-path="url(#clip792)" cx="679.811" cy="1027.59" r="14.4" fill="#009af9" fill-rule="evenodd" fill-opacity="1" stroke="#000000" stroke-opacity="1" stroke-width="3.2"/>
<circle clip-path="url(#clip792)" cx="436.708" cy="1107.61" r="14.4" fill="#009af9" fill-rule="evenodd" fill-opacity="1" stroke="#000000" stroke-opacity="1" stroke-width="3.2"/>
<circle clip-path="url(#clip792)" cx="758.895" cy="1241.84" r="14.4" fill="#009af9" fill-rule="evenodd" fill-opacity="1" stroke="#000000" stroke-opacity="1" stroke-width="3.2"/>
<circle clip-path="url(#clip792)" cx="1296.5" cy="1035.33" r="14.4" fill="#009af9" fill-rule="evenodd" fill-opacity="1" stroke="#000000" stroke-opacity="1" stroke-width="3.2"/>
<circle clip-path="url(#clip792)" cx="265.903" cy="1283.14" r="14.4" fill="#009af9" fill-rule="evenodd" fill-opacity="1" stroke="#000000" stroke-opacity="1" stroke-width="3.2"/>
<circle clip-path="url(#clip792)" cx="1208.74" cy="1123.1" r="14.4" fill="#009af9" fill-rule="evenodd" fill-opacity="1" stroke="#000000" stroke-opacity="1" stroke-width="3.2"/>
<circle clip-path="url(#clip792)" cx="730.205" cy="1216.03" r="14.4" fill="#009af9" fill-rule="evenodd" fill-opacity="1" stroke="#000000" stroke-opacity="1" stroke-width="3.2"/>
<circle clip-path="url(#clip792)" cx="1081.77" cy="1179.89" r="14.4" fill="#009af9" fill-rule="evenodd" fill-opacity="1" stroke="#000000" stroke-opacity="1" stroke-width="3.2"/>
<circle clip-path="url(#clip792)" cx="777.342" cy="1223.77" r="14.4" fill="#009af9" fill-rule="evenodd" fill-opacity="1" stroke="#000000" stroke-opacity="1" stroke-width="3.2"/>
<circle clip-path="url(#clip792)" cx="703.502" cy="1285.72" r="14.4" fill="#009af9" fill-rule="evenodd" fill-opacity="1" stroke="#000000" stroke-opacity="1" stroke-width="3.2"/>
<circle clip-path="url(#clip792)" cx="1439.03" cy="803.011" r="14.4" fill="#009af9" fill-rule="evenodd" fill-opacity="1" stroke="#000000" stroke-opacity="1" stroke-width="3.2"/>
<circle clip-path="url(#clip792)" cx="1546.27" cy="859.801" r="14.4" fill="#009af9" fill-rule="evenodd" fill-opacity="1" stroke="#000000" stroke-opacity="1" stroke-width="3.2"/>
<circle clip-path="url(#clip792)" cx="1566.55" cy="663.619" r="14.4" fill="#009af9" fill-rule="evenodd" fill-opacity="1" stroke="#000000" stroke-opacity="1" stroke-width="3.2"/>
<circle clip-path="url(#clip792)" cx="1706.64" cy="573.272" r="14.4" fill="#009af9" fill-rule="evenodd" fill-opacity="1" stroke="#000000" stroke-opacity="1" stroke-width="3.2"/>
<circle clip-path="url(#clip792)" cx="1324.37" cy="751.385" r="14.4" fill="#009af9" fill-rule="evenodd" fill-opacity="1" stroke="#000000" stroke-opacity="1" stroke-width="3.2"/>
<circle clip-path="url(#clip792)" cx="1538.37" cy="712.664" r="14.4" fill="#009af9" fill-rule="evenodd" fill-opacity="1" stroke="#000000" stroke-opacity="1" stroke-width="3.2"/>
<circle clip-path="url(#clip792)" cx="1214.19" cy="617.155" r="14.4" fill="#009af9" fill-rule="evenodd" fill-opacity="1" stroke="#000000" stroke-opacity="1" stroke-width="3.2"/>
<circle clip-path="url(#clip792)" cx="1636.57" cy="593.922" r="14.4" fill="#009af9" fill-rule="evenodd" fill-opacity="1" stroke="#000000" stroke-opacity="1" stroke-width="3.2"/>
<circle clip-path="url(#clip792)" cx="1557.43" cy="720.408" r="14.4" fill="#009af9" fill-rule="evenodd" fill-opacity="1" stroke="#000000" stroke-opacity="1" stroke-width="3.2"/>
<circle clip-path="url(#clip792)" cx="1613.55" cy="552.621" r="14.4" fill="#009af9" fill-rule="evenodd" fill-opacity="1" stroke="#000000" stroke-opacity="1" stroke-width="3.2"/>
<circle clip-path="url(#clip792)" cx="1511.35" cy="611.992" r="14.4" fill="#009af9" fill-rule="evenodd" fill-opacity="1" stroke="#000000" stroke-opacity="1" stroke-width="3.2"/>
<circle clip-path="url(#clip792)" cx="1045.9" cy="831.406" r="14.4" fill="#009af9" fill-rule="evenodd" fill-opacity="1" stroke="#000000" stroke-opacity="1" stroke-width="3.2"/>
<circle clip-path="url(#clip792)" cx="1246.11" cy="1030.17" r="14.4" fill="#009af9" fill-rule="evenodd" fill-opacity="1" stroke="#000000" stroke-opacity="1" stroke-width="3.2"/>
<circle clip-path="url(#clip792)" cx="431.462" cy="1223.77" r="14.4" fill="#009af9" fill-rule="evenodd" fill-opacity="1" stroke="#000000" stroke-opacity="1" stroke-width="3.2"/>
<circle clip-path="url(#clip792)" cx="1020.43" cy="1053.4" r="14.4" fill="#009af9" fill-rule="evenodd" fill-opacity="1" stroke="#000000" stroke-opacity="1" stroke-width="3.2"/>
<circle clip-path="url(#clip792)" cx="1368.6" cy="759.129" r="14.4" fill="#009af9" fill-rule="evenodd" fill-opacity="1" stroke="#000000" stroke-opacity="1" stroke-width="3.2"/>
<circle clip-path="url(#clip792)" cx="960.943" cy="1159.24" r="14.4" fill="#009af9" fill-rule="evenodd" fill-opacity="1" stroke="#000000" stroke-opacity="1" stroke-width="3.2"/>
<circle clip-path="url(#clip792)" cx="894.634" cy="1166.98" r="14.4" fill="#009af9" fill-rule="evenodd" fill-opacity="1" stroke="#000000" stroke-opacity="1" stroke-width="3.2"/>
<circle clip-path="url(#clip792)" cx="674.282" cy="1037.91" r="14.4" fill="#009af9" fill-rule="evenodd" fill-opacity="1" stroke="#000000" stroke-opacity="1" stroke-width="3.2"/>
<circle clip-path="url(#clip792)" cx="936.824" cy="1081.8" r="14.4" fill="#009af9" fill-rule="evenodd" fill-opacity="1" stroke="#000000" stroke-opacity="1" stroke-width="3.2"/>
<circle clip-path="url(#clip792)" cx="774.84" cy="908.847" r="14.4" fill="#009af9" fill-rule="evenodd" fill-opacity="1" stroke="#000000" stroke-opacity="1" stroke-width="3.2"/>
<circle clip-path="url(#clip792)" cx="334.64" cy="1159.24" r="14.4" fill="#009af9" fill-rule="evenodd" fill-opacity="1" stroke="#000000" stroke-opacity="1" stroke-width="3.2"/>
<circle clip-path="url(#clip792)" cx="1260.67" cy="813.337" r="14.4" fill="#009af9" fill-rule="evenodd" fill-opacity="1" stroke="#000000" stroke-opacity="1" stroke-width="3.2"/>
<circle clip-path="url(#clip792)" cx="1809.14" cy="831.406" r="14.4" fill="#009af9" fill-rule="evenodd" fill-opacity="1" stroke="#000000" stroke-opacity="1" stroke-width="3.2"/>
<circle clip-path="url(#clip792)" cx="1771.26" cy="901.103" r="14.4" fill="#009af9" fill-rule="evenodd" fill-opacity="1" stroke="#000000" stroke-opacity="1" stroke-width="3.2"/>
<circle clip-path="url(#clip792)" cx="1620.12" cy="575.853" r="14.4" fill="#009af9" fill-rule="evenodd" fill-opacity="1" stroke="#000000" stroke-opacity="1" stroke-width="3.2"/>
<circle clip-path="url(#clip792)" cx="1336.52" cy="694.595" r="14.4" fill="#009af9" fill-rule="evenodd" fill-opacity="1" stroke="#000000" stroke-opacity="1" stroke-width="3.2"/>
<circle clip-path="url(#clip792)" cx="1462.85" cy="911.428" r="14.4" fill="#009af9" fill-rule="evenodd" fill-opacity="1" stroke="#000000" stroke-opacity="1" stroke-width="3.2"/>
<circle clip-path="url(#clip792)" cx="1501.77" cy="689.432" r="14.4" fill="#009af9" fill-rule="evenodd" fill-opacity="1" stroke="#000000" stroke-opacity="1" stroke-width="3.2"/>
<circle clip-path="url(#clip792)" cx="1967.43" cy="689.432" r="14.4" fill="#009af9" fill-rule="evenodd" fill-opacity="1" stroke="#000000" stroke-opacity="1" stroke-width="3.2"/>
<circle clip-path="url(#clip792)" cx="1006.34" cy="699.758" r="14.4" fill="#009af9" fill-rule="evenodd" fill-opacity="1" stroke="#000000" stroke-opacity="1" stroke-width="3.2"/>
<circle clip-path="url(#clip792)" cx="1070.16" cy="1001.78" r="14.4" fill="#009af9" fill-rule="evenodd" fill-opacity="1" stroke="#000000" stroke-opacity="1" stroke-width="3.2"/>
<circle clip-path="url(#clip792)" cx="1167.77" cy="790.105" r="14.4" fill="#009af9" fill-rule="evenodd" fill-opacity="1" stroke="#000000" stroke-opacity="1" stroke-width="3.2"/>
<circle clip-path="url(#clip792)" cx="760.333" cy="1172.14" r="14.4" fill="#009af9" fill-rule="evenodd" fill-opacity="1" stroke="#000000" stroke-opacity="1" stroke-width="3.2"/>
<circle clip-path="url(#clip792)" cx="838.844" cy="1022.43" r="14.4" fill="#009af9" fill-rule="evenodd" fill-opacity="1" stroke="#000000" stroke-opacity="1" stroke-width="3.2"/>
<circle clip-path="url(#clip792)" cx="1414.34" cy="857.22" r="14.4" fill="#009af9" fill-rule="evenodd" fill-opacity="1" stroke="#000000" stroke-opacity="1" stroke-width="3.2"/>
<circle clip-path="url(#clip792)" cx="1126.12" cy="916.591" r="14.4" fill="#009af9" fill-rule="evenodd" fill-opacity="1" stroke="#000000" stroke-opacity="1" stroke-width="3.2"/>
<circle clip-path="url(#clip792)" cx="661.672" cy="1166.98" r="14.4" fill="#009af9" fill-rule="evenodd" fill-opacity="1" stroke="#000000" stroke-opacity="1" stroke-width="3.2"/>
<circle clip-path="url(#clip792)" cx="1334.15" cy="743.641" r="14.4" fill="#009af9" fill-rule="evenodd" fill-opacity="1" stroke="#000000" stroke-opacity="1" stroke-width="3.2"/>
<circle clip-path="url(#clip792)" cx="934.549" cy="1154.07" r="14.4" fill="#009af9" fill-rule="evenodd" fill-opacity="1" stroke="#000000" stroke-opacity="1" stroke-width="3.2"/>
<circle clip-path="url(#clip792)" cx="1181.92" cy="937.241" r="14.4" fill="#009af9" fill-rule="evenodd" fill-opacity="1" stroke="#000000" stroke-opacity="1" stroke-width="3.2"/>
<circle clip-path="url(#clip792)" cx="1010.89" cy="1138.59" r="14.4" fill="#009af9" fill-rule="evenodd" fill-opacity="1" stroke="#000000" stroke-opacity="1" stroke-width="3.2"/>
<circle clip-path="url(#clip792)" cx="808.109" cy="1094.7" r="14.4" fill="#009af9" fill-rule="evenodd" fill-opacity="1" stroke="#000000" stroke-opacity="1" stroke-width="3.2"/>
<circle clip-path="url(#clip792)" cx="1164.44" cy="926.916" r="14.4" fill="#009af9" fill-rule="evenodd" fill-opacity="1" stroke="#000000" stroke-opacity="1" stroke-width="3.2"/>
<circle clip-path="url(#clip792)" cx="980.709" cy="813.337" r="14.4" fill="#009af9" fill-rule="evenodd" fill-opacity="1" stroke="#000000" stroke-opacity="1" stroke-width="3.2"/>
<circle clip-path="url(#clip792)" cx="1107.24" cy="839.15" r="14.4" fill="#009af9" fill-rule="evenodd" fill-opacity="1" stroke="#000000" stroke-opacity="1" stroke-width="3.2"/>
<circle clip-path="url(#clip792)" cx="1293.77" cy="859.801" r="14.4" fill="#009af9" fill-rule="evenodd" fill-opacity="1" stroke="#000000" stroke-opacity="1" stroke-width="3.2"/>
<circle clip-path="url(#clip792)" cx="1039.59" cy="867.545" r="14.4" fill="#009af9" fill-rule="evenodd" fill-opacity="1" stroke="#000000" stroke-opacity="1" stroke-width="3.2"/>
<circle clip-path="url(#clip792)" cx="1193.84" cy="810.756" r="14.4" fill="#009af9" fill-rule="evenodd" fill-opacity="1" stroke="#000000" stroke-opacity="1" stroke-width="3.2"/>
<circle clip-path="url(#clip792)" cx="1627.43" cy="730.734" r="14.4" fill="#009af9" fill-rule="evenodd" fill-opacity="1" stroke="#000000" stroke-opacity="1" stroke-width="3.2"/>
<circle clip-path="url(#clip792)" cx="896.278" cy="921.753" r="14.4" fill="#009af9" fill-rule="evenodd" fill-opacity="1" stroke="#000000" stroke-opacity="1" stroke-width="3.2"/>
<circle clip-path="url(#clip792)" cx="1712.1" cy="888.196" r="14.4" fill="#009af9" fill-rule="evenodd" fill-opacity="1" stroke="#000000" stroke-opacity="1" stroke-width="3.2"/>
<circle clip-path="url(#clip792)" cx="1590.63" cy="914.009" r="14.4" fill="#009af9" fill-rule="evenodd" fill-opacity="1" stroke="#000000" stroke-opacity="1" stroke-width="3.2"/>
<circle clip-path="url(#clip792)" cx="792.081" cy="939.823" r="14.4" fill="#009af9" fill-rule="evenodd" fill-opacity="1" stroke="#000000" stroke-opacity="1" stroke-width="3.2"/>
<circle clip-path="url(#clip792)" cx="1286.87" cy="833.988" r="14.4" fill="#009af9" fill-rule="evenodd" fill-opacity="1" stroke="#000000" stroke-opacity="1" stroke-width="3.2"/>
<circle clip-path="url(#clip792)" cx="1052.29" cy="877.87" r="14.4" fill="#009af9" fill-rule="evenodd" fill-opacity="1" stroke="#000000" stroke-opacity="1" stroke-width="3.2"/>
<circle clip-path="url(#clip792)" cx="2086.7" cy="663.619" r="14.4" fill="#009af9" fill-rule="evenodd" fill-opacity="1" stroke="#000000" stroke-opacity="1" stroke-width="3.2"/>
<circle clip-path="url(#clip792)" cx="1335.21" cy="815.918" r="14.4" fill="#009af9" fill-rule="evenodd" fill-opacity="1" stroke="#000000" stroke-opacity="1" stroke-width="3.2"/>
<circle clip-path="url(#clip792)" cx="1240.4" cy="836.569" r="14.4" fill="#009af9" fill-rule="evenodd" fill-opacity="1" stroke="#000000" stroke-opacity="1" stroke-width="3.2"/>
<circle clip-path="url(#clip792)" cx="1280.38" cy="697.176" r="14.4" fill="#009af9" fill-rule="evenodd" fill-opacity="1" stroke="#000000" stroke-opacity="1" stroke-width="3.2"/>
<circle clip-path="url(#clip792)" cx="1045.57" cy="955.311" r="14.4" fill="#009af9" fill-rule="evenodd" fill-opacity="1" stroke="#000000" stroke-opacity="1" stroke-width="3.2"/>
<circle clip-path="url(#clip792)" cx="1087.86" cy="867.545" r="14.4" fill="#009af9" fill-rule="evenodd" fill-opacity="1" stroke="#000000" stroke-opacity="1" stroke-width="3.2"/>
<circle clip-path="url(#clip792)" cx="1013.03" cy="1027.59" r="14.4" fill="#009af9" fill-rule="evenodd" fill-opacity="1" stroke="#000000" stroke-opacity="1" stroke-width="3.2"/>
<circle clip-path="url(#clip792)" cx="1069.03" cy="720.408" r="14.4" fill="#009af9" fill-rule="evenodd" fill-opacity="1" stroke="#000000" stroke-opacity="1" stroke-width="3.2"/>
<circle clip-path="url(#clip792)" cx="666.282" cy="919.172" r="14.4" fill="#009af9" fill-rule="evenodd" fill-opacity="1" stroke="#000000" stroke-opacity="1" stroke-width="3.2"/>
<circle clip-path="url(#clip792)" cx="1342.06" cy="666.2" r="14.4" fill="#009af9" fill-rule="evenodd" fill-opacity="1" stroke="#000000" stroke-opacity="1" stroke-width="3.2"/>
<circle clip-path="url(#clip792)" cx="1526.89" cy="733.315" r="14.4" fill="#009af9" fill-rule="evenodd" fill-opacity="1" stroke="#000000" stroke-opacity="1" stroke-width="3.2"/>
<circle clip-path="url(#clip792)" cx="696.345" cy="1006.94" r="14.4" fill="#009af9" fill-rule="evenodd" fill-opacity="1" stroke="#000000" stroke-opacity="1" stroke-width="3.2"/>
<circle clip-path="url(#clip792)" cx="1022.17" cy="973.38" r="14.4" fill="#009af9" fill-rule="evenodd" fill-opacity="1" stroke="#000000" stroke-opacity="1" stroke-width="3.2"/>
<circle clip-path="url(#clip792)" cx="633.813" cy="1030.17" r="14.4" fill="#009af9" fill-rule="evenodd" fill-opacity="1" stroke="#000000" stroke-opacity="1" stroke-width="3.2"/>
<circle clip-path="url(#clip792)" cx="995.442" cy="934.66" r="14.4" fill="#009af9" fill-rule="evenodd" fill-opacity="1" stroke="#000000" stroke-opacity="1" stroke-width="3.2"/>
<circle clip-path="url(#clip792)" cx="1043.82" cy="684.27" r="14.4" fill="#009af9" fill-rule="evenodd" fill-opacity="1" stroke="#000000" stroke-opacity="1" stroke-width="3.2"/>
<circle clip-path="url(#clip792)" cx="392.752" cy="937.241" r="14.4" fill="#009af9" fill-rule="evenodd" fill-opacity="1" stroke="#000000" stroke-opacity="1" stroke-width="3.2"/>
<circle clip-path="url(#clip792)" cx="1095.04" cy="849.476" r="14.4" fill="#009af9" fill-rule="evenodd" fill-opacity="1" stroke="#000000" stroke-opacity="1" stroke-width="3.2"/>
<circle clip-path="url(#clip792)" cx="941.721" cy="1001.78" r="14.4" fill="#009af9" fill-rule="evenodd" fill-opacity="1" stroke="#000000" stroke-opacity="1" stroke-width="3.2"/>
<circle clip-path="url(#clip792)" cx="1149.81" cy="919.172" r="14.4" fill="#009af9" fill-rule="evenodd" fill-opacity="1" stroke="#000000" stroke-opacity="1" stroke-width="3.2"/>
<circle clip-path="url(#clip792)" cx="1124.26" cy="800.43" r="14.4" fill="#009af9" fill-rule="evenodd" fill-opacity="1" stroke="#000000" stroke-opacity="1" stroke-width="3.2"/>
<circle clip-path="url(#clip792)" cx="1514.54" cy="777.198" r="14.4" fill="#009af9" fill-rule="evenodd" fill-opacity="1" stroke="#000000" stroke-opacity="1" stroke-width="3.2"/>
<circle clip-path="url(#clip792)" cx="1170.61" cy="712.664" r="14.4" fill="#009af9" fill-rule="evenodd" fill-opacity="1" stroke="#000000" stroke-opacity="1" stroke-width="3.2"/>
<circle clip-path="url(#clip792)" cx="881.109" cy="756.547" r="14.4" fill="#009af9" fill-rule="evenodd" fill-opacity="1" stroke="#000000" stroke-opacity="1" stroke-width="3.2"/>
<circle clip-path="url(#clip792)" cx="1660.43" cy="686.851" r="14.4" fill="#009af9" fill-rule="evenodd" fill-opacity="1" stroke="#000000" stroke-opacity="1" stroke-width="3.2"/>
<circle clip-path="url(#clip792)" cx="886.034" cy="823.662" r="14.4" fill="#009af9" fill-rule="evenodd" fill-opacity="1" stroke="#000000" stroke-opacity="1" stroke-width="3.2"/>
<circle clip-path="url(#clip792)" cx="1659.16" cy="627.48" r="14.4" fill="#009af9" fill-rule="evenodd" fill-opacity="1" stroke="#000000" stroke-opacity="1" stroke-width="3.2"/>
<circle clip-path="url(#clip792)" cx="1079.11" cy="808.174" r="14.4" fill="#009af9" fill-rule="evenodd" fill-opacity="1" stroke="#000000" stroke-opacity="1" stroke-width="3.2"/>
<circle clip-path="url(#clip792)" cx="1855.27" cy="859.801" r="14.4" fill="#009af9" fill-rule="evenodd" fill-opacity="1" stroke="#000000" stroke-opacity="1" stroke-width="3.2"/>
<circle clip-path="url(#clip792)" cx="1264.91" cy="743.641" r="14.4" fill="#009af9" fill-rule="evenodd" fill-opacity="1" stroke="#000000" stroke-opacity="1" stroke-width="3.2"/>
<circle clip-path="url(#clip792)" cx="1251.2" cy="914.009" r="14.4" fill="#009af9" fill-rule="evenodd" fill-opacity="1" stroke="#000000" stroke-opacity="1" stroke-width="3.2"/>
<circle clip-path="url(#clip792)" cx="1127.23" cy="784.942" r="14.4" fill="#009af9" fill-rule="evenodd" fill-opacity="1" stroke="#000000" stroke-opacity="1" stroke-width="3.2"/>
<circle clip-path="url(#clip792)" cx="371.516" cy="1143.75" r="14.4" fill="#009af9" fill-rule="evenodd" fill-opacity="1" stroke="#000000" stroke-opacity="1" stroke-width="3.2"/>
<circle clip-path="url(#clip792)" cx="719.047" cy="1120.52" r="14.4" fill="#009af9" fill-rule="evenodd" fill-opacity="1" stroke="#000000" stroke-opacity="1" stroke-width="3.2"/>
<circle clip-path="url(#clip792)" cx="769.74" cy="1019.84" r="14.4" fill="#009af9" fill-rule="evenodd" fill-opacity="1" stroke="#000000" stroke-opacity="1" stroke-width="3.2"/>
<circle clip-path="url(#clip792)" cx="1202.89" cy="890.777" r="14.4" fill="#009af9" fill-rule="evenodd" fill-opacity="1" stroke="#000000" stroke-opacity="1" stroke-width="3.2"/>
<circle clip-path="url(#clip792)" cx="1185.89" cy="622.317" r="14.4" fill="#009af9" fill-rule="evenodd" fill-opacity="1" stroke="#000000" stroke-opacity="1" stroke-width="3.2"/>
<circle clip-path="url(#clip792)" cx="667.815" cy="1249.58" r="14.4" fill="#009af9" fill-rule="evenodd" fill-opacity="1" stroke="#000000" stroke-opacity="1" stroke-width="3.2"/>
<circle clip-path="url(#clip792)" cx="1390.44" cy="735.896" r="14.4" fill="#009af9" fill-rule="evenodd" fill-opacity="1" stroke="#000000" stroke-opacity="1" stroke-width="3.2"/>
<circle clip-path="url(#clip792)" cx="417.24" cy="1143.75" r="14.4" fill="#009af9" fill-rule="evenodd" fill-opacity="1" stroke="#000000" stroke-opacity="1" stroke-width="3.2"/>
<circle clip-path="url(#clip792)" cx="1018.58" cy="880.452" r="14.4" fill="#009af9" fill-rule="evenodd" fill-opacity="1" stroke="#000000" stroke-opacity="1" stroke-width="3.2"/>
<circle clip-path="url(#clip792)" cx="297.436" cy="1125.68" r="14.4" fill="#009af9" fill-rule="evenodd" fill-opacity="1" stroke="#000000" stroke-opacity="1" stroke-width="3.2"/>
<circle clip-path="url(#clip792)" cx="1102.46" cy="960.474" r="14.4" fill="#009af9" fill-rule="evenodd" fill-opacity="1" stroke="#000000" stroke-opacity="1" stroke-width="3.2"/>
<circle clip-path="url(#clip792)" cx="1485.65" cy="844.313" r="14.4" fill="#009af9" fill-rule="evenodd" fill-opacity="1" stroke="#000000" stroke-opacity="1" stroke-width="3.2"/>
<circle clip-path="url(#clip792)" cx="789.088" cy="939.823" r="14.4" fill="#009af9" fill-rule="evenodd" fill-opacity="1" stroke="#000000" stroke-opacity="1" stroke-width="3.2"/>
<circle clip-path="url(#clip792)" cx="1507.69" cy="581.016" r="14.4" fill="#009af9" fill-rule="evenodd" fill-opacity="1" stroke="#000000" stroke-opacity="1" stroke-width="3.2"/>
<circle clip-path="url(#clip792)" cx="1019.64" cy="1128.26" r="14.4" fill="#009af9" fill-rule="evenodd" fill-opacity="1" stroke="#000000" stroke-opacity="1" stroke-width="3.2"/>
<circle clip-path="url(#clip792)" cx="671.986" cy="1063.73" r="14.4" fill="#009af9" fill-rule="evenodd" fill-opacity="1" stroke="#000000" stroke-opacity="1" stroke-width="3.2"/>
<circle clip-path="url(#clip792)" cx="1222.4" cy="805.593" r="14.4" fill="#009af9" fill-rule="evenodd" fill-opacity="1" stroke="#000000" stroke-opacity="1" stroke-width="3.2"/>
<circle clip-path="url(#clip792)" cx="890.83" cy="1143.75" r="14.4" fill="#009af9" fill-rule="evenodd" fill-opacity="1" stroke="#000000" stroke-opacity="1" stroke-width="3.2"/>
<circle clip-path="url(#clip792)" cx="1177.28" cy="1009.52" r="14.4" fill="#009af9" fill-rule="evenodd" fill-opacity="1" stroke="#000000" stroke-opacity="1" stroke-width="3.2"/>
<circle clip-path="url(#clip792)" cx="908.269" cy="1050.82" r="14.4" fill="#009af9" fill-rule="evenodd" fill-opacity="1" stroke="#000000" stroke-opacity="1" stroke-width="3.2"/>
<circle clip-path="url(#clip792)" cx="1288.41" cy="996.612" r="14.4" fill="#009af9" fill-rule="evenodd" fill-opacity="1" stroke="#000000" stroke-opacity="1" stroke-width="3.2"/>
<circle clip-path="url(#clip792)" cx="1508.73" cy="681.688" r="14.4" fill="#009af9" fill-rule="evenodd" fill-opacity="1" stroke="#000000" stroke-opacity="1" stroke-width="3.2"/>
<circle clip-path="url(#clip792)" cx="805.373" cy="890.777" r="14.4" fill="#009af9" fill-rule="evenodd" fill-opacity="1" stroke="#000000" stroke-opacity="1" stroke-width="3.2"/>
<circle clip-path="url(#clip792)" cx="1108.19" cy="823.662" r="14.4" fill="#009af9" fill-rule="evenodd" fill-opacity="1" stroke="#000000" stroke-opacity="1" stroke-width="3.2"/>
<circle clip-path="url(#clip792)" cx="993.154" cy="862.382" r="14.4" fill="#009af9" fill-rule="evenodd" fill-opacity="1" stroke="#000000" stroke-opacity="1" stroke-width="3.2"/>
<circle clip-path="url(#clip792)" cx="1950.1" cy="500.994" r="14.4" fill="#009af9" fill-rule="evenodd" fill-opacity="1" stroke="#000000" stroke-opacity="1" stroke-width="3.2"/>
<circle clip-path="url(#clip792)" cx="1079.3" cy="960.474" r="14.4" fill="#009af9" fill-rule="evenodd" fill-opacity="1" stroke="#000000" stroke-opacity="1" stroke-width="3.2"/>
<circle clip-path="url(#clip792)" cx="705.274" cy="1308.96" r="14.4" fill="#009af9" fill-rule="evenodd" fill-opacity="1" stroke="#000000" stroke-opacity="1" stroke-width="3.2"/>
<circle clip-path="url(#clip792)" cx="643.434" cy="1368.33" r="14.4" fill="#009af9" fill-rule="evenodd" fill-opacity="1" stroke="#000000" stroke-opacity="1" stroke-width="3.2"/>
<circle clip-path="url(#clip792)" cx="1022.19" cy="857.22" r="14.4" fill="#009af9" fill-rule="evenodd" fill-opacity="1" stroke="#000000" stroke-opacity="1" stroke-width="3.2"/>
<circle clip-path="url(#clip792)" cx="1069.11" cy="950.148" r="14.4" fill="#009af9" fill-rule="evenodd" fill-opacity="1" stroke="#000000" stroke-opacity="1" stroke-width="3.2"/>
<circle clip-path="url(#clip792)" cx="1562.16" cy="733.315" r="14.4" fill="#009af9" fill-rule="evenodd" fill-opacity="1" stroke="#000000" stroke-opacity="1" stroke-width="3.2"/>
<circle clip-path="url(#clip792)" cx="728.769" cy="1130.84" r="14.4" fill="#009af9" fill-rule="evenodd" fill-opacity="1" stroke="#000000" stroke-opacity="1" stroke-width="3.2"/>
<circle clip-path="url(#clip792)" cx="802.833" cy="1048.24" r="14.4" fill="#009af9" fill-rule="evenodd" fill-opacity="1" stroke="#000000" stroke-opacity="1" stroke-width="3.2"/>
<circle clip-path="url(#clip792)" cx="1404.5" cy="614.573" r="14.4" fill="#009af9" fill-rule="evenodd" fill-opacity="1" stroke="#000000" stroke-opacity="1" stroke-width="3.2"/>
<circle clip-path="url(#clip792)" cx="922.85" cy="805.593" r="14.4" fill="#009af9" fill-rule="evenodd" fill-opacity="1" stroke="#000000" stroke-opacity="1" stroke-width="3.2"/>
<circle clip-path="url(#clip792)" cx="1246.76" cy="950.148" r="14.4" fill="#009af9" fill-rule="evenodd" fill-opacity="1" stroke="#000000" stroke-opacity="1" stroke-width="3.2"/>
<circle clip-path="url(#clip792)" cx="1516.64" cy="699.758" r="14.4" fill="#009af9" fill-rule="evenodd" fill-opacity="1" stroke="#000000" stroke-opacity="1" stroke-width="3.2"/>
<circle clip-path="url(#clip792)" cx="456.369" cy="1386.4" r="14.4" fill="#009af9" fill-rule="evenodd" fill-opacity="1" stroke="#000000" stroke-opacity="1" stroke-width="3.2"/>
<circle clip-path="url(#clip792)" cx="975.473" cy="1089.54" r="14.4" fill="#009af9" fill-rule="evenodd" fill-opacity="1" stroke="#000000" stroke-opacity="1" stroke-width="3.2"/>
<circle clip-path="url(#clip792)" cx="1060.13" cy="1074.05" r="14.4" fill="#009af9" fill-rule="evenodd" fill-opacity="1" stroke="#000000" stroke-opacity="1" stroke-width="3.2"/>
<circle clip-path="url(#clip792)" cx="1351.73" cy="934.66" r="14.4" fill="#009af9" fill-rule="evenodd" fill-opacity="1" stroke="#000000" stroke-opacity="1" stroke-width="3.2"/>
<circle clip-path="url(#clip792)" cx="711.646" cy="1164.4" r="14.4" fill="#009af9" fill-rule="evenodd" fill-opacity="1" stroke="#000000" stroke-opacity="1" stroke-width="3.2"/>
<circle clip-path="url(#clip792)" cx="1635.79" cy="777.198" r="14.4" fill="#009af9" fill-rule="evenodd" fill-opacity="1" stroke="#000000" stroke-opacity="1" stroke-width="3.2"/>
<circle clip-path="url(#clip792)" cx="1111.56" cy="859.801" r="14.4" fill="#009af9" fill-rule="evenodd" fill-opacity="1" stroke="#000000" stroke-opacity="1" stroke-width="3.2"/>
<circle clip-path="url(#clip792)" cx="1220.95" cy="857.22" r="14.4" fill="#009af9" fill-rule="evenodd" fill-opacity="1" stroke="#000000" stroke-opacity="1" stroke-width="3.2"/>
<circle clip-path="url(#clip792)" cx="1598.84" cy="756.547" r="14.4" fill="#009af9" fill-rule="evenodd" fill-opacity="1" stroke="#000000" stroke-opacity="1" stroke-width="3.2"/>
<circle clip-path="url(#clip792)" cx="655.175" cy="1092.12" r="14.4" fill="#009af9" fill-rule="evenodd" fill-opacity="1" stroke="#000000" stroke-opacity="1" stroke-width="3.2"/>
<circle clip-path="url(#clip792)" cx="1873.94" cy="402.903" r="14.4" fill="#009af9" fill-rule="evenodd" fill-opacity="1" stroke="#000000" stroke-opacity="1" stroke-width="3.2"/>
<circle clip-path="url(#clip792)" cx="977.071" cy="975.962" r="14.4" fill="#009af9" fill-rule="evenodd" fill-opacity="1" stroke="#000000" stroke-opacity="1" stroke-width="3.2"/>
<circle clip-path="url(#clip792)" cx="1528.58" cy="748.803" r="14.4" fill="#009af9" fill-rule="evenodd" fill-opacity="1" stroke="#000000" stroke-opacity="1" stroke-width="3.2"/>
<circle clip-path="url(#clip792)" cx="1032.47" cy="797.849" r="14.4" fill="#009af9" fill-rule="evenodd" fill-opacity="1" stroke="#000000" stroke-opacity="1" stroke-width="3.2"/>
<circle clip-path="url(#clip792)" cx="1328.5" cy="728.152" r="14.4" fill="#009af9" fill-rule="evenodd" fill-opacity="1" stroke="#000000" stroke-opacity="1" stroke-width="3.2"/>
<circle clip-path="url(#clip792)" cx="1022.01" cy="818.5" r="14.4" fill="#009af9" fill-rule="evenodd" fill-opacity="1" stroke="#000000" stroke-opacity="1" stroke-width="3.2"/>
<circle clip-path="url(#clip792)" cx="1200.29" cy="929.497" r="14.4" fill="#009af9" fill-rule="evenodd" fill-opacity="1" stroke="#000000" stroke-opacity="1" stroke-width="3.2"/>
<circle clip-path="url(#clip792)" cx="324.137" cy="1216.03" r="14.4" fill="#009af9" fill-rule="evenodd" fill-opacity="1" stroke="#000000" stroke-opacity="1" stroke-width="3.2"/>
<circle clip-path="url(#clip792)" cx="925.905" cy="777.198" r="14.4" fill="#009af9" fill-rule="evenodd" fill-opacity="1" stroke="#000000" stroke-opacity="1" stroke-width="3.2"/>
<circle clip-path="url(#clip792)" cx="875.28" cy="1071.47" r="14.4" fill="#009af9" fill-rule="evenodd" fill-opacity="1" stroke="#000000" stroke-opacity="1" stroke-width="3.2"/>
<circle clip-path="url(#clip792)" cx="1162.37" cy="815.918" r="14.4" fill="#009af9" fill-rule="evenodd" fill-opacity="1" stroke="#000000" stroke-opacity="1" stroke-width="3.2"/>
<circle clip-path="url(#clip792)" cx="1612.74" cy="645.549" r="14.4" fill="#009af9" fill-rule="evenodd" fill-opacity="1" stroke="#000000" stroke-opacity="1" stroke-width="3.2"/>
<circle clip-path="url(#clip792)" cx="939.469" cy="1231.51" r="14.4" fill="#009af9" fill-rule="evenodd" fill-opacity="1" stroke="#000000" stroke-opacity="1" stroke-width="3.2"/>
<circle clip-path="url(#clip792)" cx="1913.61" cy="488.087" r="14.4" fill="#009af9" fill-rule="evenodd" fill-opacity="1" stroke="#000000" stroke-opacity="1" stroke-width="3.2"/>
<circle clip-path="url(#clip792)" cx="996.041" cy="957.892" r="14.4" fill="#009af9" fill-rule="evenodd" fill-opacity="1" stroke="#000000" stroke-opacity="1" stroke-width="3.2"/>
<circle clip-path="url(#clip792)" cx="1261.9" cy="537.133" r="14.4" fill="#009af9" fill-rule="evenodd" fill-opacity="1" stroke="#000000" stroke-opacity="1" stroke-width="3.2"/>
<circle clip-path="url(#clip792)" cx="1640.49" cy="539.714" r="14.4" fill="#009af9" fill-rule="evenodd" fill-opacity="1" stroke="#000000" stroke-opacity="1" stroke-width="3.2"/>
<circle clip-path="url(#clip792)" cx="813.608" cy="1138.59" r="14.4" fill="#009af9" fill-rule="evenodd" fill-opacity="1" stroke="#000000" stroke-opacity="1" stroke-width="3.2"/>
<circle clip-path="url(#clip792)" cx="896.682" cy="1107.61" r="14.4" fill="#009af9" fill-rule="evenodd" fill-opacity="1" stroke="#000000" stroke-opacity="1" stroke-width="3.2"/>
<circle clip-path="url(#clip792)" cx="780.042" cy="1203.12" r="14.4" fill="#009af9" fill-rule="evenodd" fill-opacity="1" stroke="#000000" stroke-opacity="1" stroke-width="3.2"/>
<circle clip-path="url(#clip792)" cx="1540.21" cy="684.27" r="14.4" fill="#009af9" fill-rule="evenodd" fill-opacity="1" stroke="#000000" stroke-opacity="1" stroke-width="3.2"/>
<circle clip-path="url(#clip792)" cx="1208.03" cy="883.033" r="14.4" fill="#009af9" fill-rule="evenodd" fill-opacity="1" stroke="#000000" stroke-opacity="1" stroke-width="3.2"/>
<circle clip-path="url(#clip792)" cx="1241.06" cy="903.684" r="14.4" fill="#009af9" fill-rule="evenodd" fill-opacity="1" stroke="#000000" stroke-opacity="1" stroke-width="3.2"/>
<circle clip-path="url(#clip792)" cx="995.739" cy="883.033" r="14.4" fill="#009af9" fill-rule="evenodd" fill-opacity="1" stroke="#000000" stroke-opacity="1" stroke-width="3.2"/>
<circle clip-path="url(#clip792)" cx="2250.38" cy="160.256" r="14.4" fill="#009af9" fill-rule="evenodd" fill-opacity="1" stroke="#000000" stroke-opacity="1" stroke-width="3.2"/>
<circle clip-path="url(#clip792)" cx="805.439" cy="1035.33" r="14.4" fill="#009af9" fill-rule="evenodd" fill-opacity="1" stroke="#000000" stroke-opacity="1" stroke-width="3.2"/>
<circle clip-path="url(#clip792)" cx="732.982" cy="1192.79" r="14.4" fill="#009af9" fill-rule="evenodd" fill-opacity="1" stroke="#000000" stroke-opacity="1" stroke-width="3.2"/>
<circle clip-path="url(#clip792)" cx="1399.21" cy="753.966" r="14.4" fill="#009af9" fill-rule="evenodd" fill-opacity="1" stroke="#000000" stroke-opacity="1" stroke-width="3.2"/>
<circle clip-path="url(#clip792)" cx="1315.25" cy="999.194" r="14.4" fill="#009af9" fill-rule="evenodd" fill-opacity="1" stroke="#000000" stroke-opacity="1" stroke-width="3.2"/>
<circle clip-path="url(#clip792)" cx="1709.82" cy="1066.31" r="14.4" fill="#009af9" fill-rule="evenodd" fill-opacity="1" stroke="#000000" stroke-opacity="1" stroke-width="3.2"/>
<circle clip-path="url(#clip792)" cx="1655.61" cy="715.246" r="14.4" fill="#009af9" fill-rule="evenodd" fill-opacity="1" stroke="#000000" stroke-opacity="1" stroke-width="3.2"/>
<circle clip-path="url(#clip792)" cx="950.235" cy="1089.54" r="14.4" fill="#009af9" fill-rule="evenodd" fill-opacity="1" stroke="#000000" stroke-opacity="1" stroke-width="3.2"/>
<circle clip-path="url(#clip792)" cx="993.954" cy="1252.17" r="14.4" fill="#009af9" fill-rule="evenodd" fill-opacity="1" stroke="#000000" stroke-opacity="1" stroke-width="3.2"/>
<circle clip-path="url(#clip792)" cx="1255.81" cy="1105.03" r="14.4" fill="#009af9" fill-rule="evenodd" fill-opacity="1" stroke="#000000" stroke-opacity="1" stroke-width="3.2"/>
<circle clip-path="url(#clip792)" cx="977.798" cy="1063.73" r="14.4" fill="#009af9" fill-rule="evenodd" fill-opacity="1" stroke="#000000" stroke-opacity="1" stroke-width="3.2"/>
<circle clip-path="url(#clip792)" cx="1107.2" cy="1004.36" r="14.4" fill="#009af9" fill-rule="evenodd" fill-opacity="1" stroke="#000000" stroke-opacity="1" stroke-width="3.2"/>
<circle clip-path="url(#clip792)" cx="1282.92" cy="735.896" r="14.4" fill="#009af9" fill-rule="evenodd" fill-opacity="1" stroke="#000000" stroke-opacity="1" stroke-width="3.2"/>
<circle clip-path="url(#clip792)" cx="928.681" cy="1001.78" r="14.4" fill="#009af9" fill-rule="evenodd" fill-opacity="1" stroke="#000000" stroke-opacity="1" stroke-width="3.2"/>
<circle clip-path="url(#clip792)" cx="1321.25" cy="947.567" r="14.4" fill="#009af9" fill-rule="evenodd" fill-opacity="1" stroke="#000000" stroke-opacity="1" stroke-width="3.2"/>
<circle clip-path="url(#clip792)" cx="1084.96" cy="1112.77" r="14.4" fill="#009af9" fill-rule="evenodd" fill-opacity="1" stroke="#000000" stroke-opacity="1" stroke-width="3.2"/>
<circle clip-path="url(#clip792)" cx="1489.7" cy="970.799" r="14.4" fill="#009af9" fill-rule="evenodd" fill-opacity="1" stroke="#000000" stroke-opacity="1" stroke-width="3.2"/>
<circle clip-path="url(#clip792)" cx="904.957" cy="988.868" r="14.4" fill="#009af9" fill-rule="evenodd" fill-opacity="1" stroke="#000000" stroke-opacity="1" stroke-width="3.2"/>
<circle clip-path="url(#clip792)" cx="1560.68" cy="697.176" r="14.4" fill="#009af9" fill-rule="evenodd" fill-opacity="1" stroke="#000000" stroke-opacity="1" stroke-width="3.2"/>
<circle clip-path="url(#clip792)" cx="1538.58" cy="720.408" r="14.4" fill="#009af9" fill-rule="evenodd" fill-opacity="1" stroke="#000000" stroke-opacity="1" stroke-width="3.2"/>
<circle clip-path="url(#clip792)" cx="1460.86" cy="906.265" r="14.4" fill="#009af9" fill-rule="evenodd" fill-opacity="1" stroke="#000000" stroke-opacity="1" stroke-width="3.2"/>
<circle clip-path="url(#clip792)" cx="1441.15" cy="746.222" r="14.4" fill="#009af9" fill-rule="evenodd" fill-opacity="1" stroke="#000000" stroke-opacity="1" stroke-width="3.2"/>
<circle clip-path="url(#clip792)" cx="1969.1" cy="681.688" r="14.4" fill="#009af9" fill-rule="evenodd" fill-opacity="1" stroke="#000000" stroke-opacity="1" stroke-width="3.2"/>
<circle clip-path="url(#clip792)" cx="800.2" cy="1066.31" r="14.4" fill="#009af9" fill-rule="evenodd" fill-opacity="1" stroke="#000000" stroke-opacity="1" stroke-width="3.2"/>
<circle clip-path="url(#clip792)" cx="1285.26" cy="614.573" r="14.4" fill="#009af9" fill-rule="evenodd" fill-opacity="1" stroke="#000000" stroke-opacity="1" stroke-width="3.2"/>
<circle clip-path="url(#clip792)" cx="1032.83" cy="947.567" r="14.4" fill="#009af9" fill-rule="evenodd" fill-opacity="1" stroke="#000000" stroke-opacity="1" stroke-width="3.2"/>
<circle clip-path="url(#clip792)" cx="2110.99" cy="482.925" r="14.4" fill="#009af9" fill-rule="evenodd" fill-opacity="1" stroke="#000000" stroke-opacity="1" stroke-width="3.2"/>
<circle clip-path="url(#clip792)" cx="1456.4" cy="601.666" r="14.4" fill="#009af9" fill-rule="evenodd" fill-opacity="1" stroke="#000000" stroke-opacity="1" stroke-width="3.2"/>
<circle clip-path="url(#clip792)" cx="1969.87" cy="544.877" r="14.4" fill="#009af9" fill-rule="evenodd" fill-opacity="1" stroke="#000000" stroke-opacity="1" stroke-width="3.2"/>
<circle clip-path="url(#clip792)" cx="1696.81" cy="637.805" r="14.4" fill="#009af9" fill-rule="evenodd" fill-opacity="1" stroke="#000000" stroke-opacity="1" stroke-width="3.2"/>
<circle clip-path="url(#clip792)" cx="907.941" cy="994.031" r="14.4" fill="#009af9" fill-rule="evenodd" fill-opacity="1" stroke="#000000" stroke-opacity="1" stroke-width="3.2"/>
<circle clip-path="url(#clip792)" cx="1609.38" cy="606.829" r="14.4" fill="#009af9" fill-rule="evenodd" fill-opacity="1" stroke="#000000" stroke-opacity="1" stroke-width="3.2"/>
<circle clip-path="url(#clip792)" cx="1271.91" cy="1102.45" r="14.4" fill="#009af9" fill-rule="evenodd" fill-opacity="1" stroke="#000000" stroke-opacity="1" stroke-width="3.2"/>
<circle clip-path="url(#clip792)" cx="1652.42" cy="519.063" r="14.4" fill="#009af9" fill-rule="evenodd" fill-opacity="1" stroke="#000000" stroke-opacity="1" stroke-width="3.2"/>
<circle clip-path="url(#clip792)" cx="2291.97" cy="630.061" r="14.4" fill="#009af9" fill-rule="evenodd" fill-opacity="1" stroke="#000000" stroke-opacity="1" stroke-width="3.2"/>
<circle clip-path="url(#clip792)" cx="1615.05" cy="715.246" r="14.4" fill="#009af9" fill-rule="evenodd" fill-opacity="1" stroke="#000000" stroke-opacity="1" stroke-width="3.2"/>
<circle clip-path="url(#clip792)" cx="1816.31" cy="562.946" r="14.4" fill="#009af9" fill-rule="evenodd" fill-opacity="1" stroke="#000000" stroke-opacity="1" stroke-width="3.2"/>
</svg>
