<?xml version="1.0" encoding="utf-8"?>
<svg xmlns="http://www.w3.org/2000/svg" xmlns:xlink="http://www.w3.org/1999/xlink" width="600" height="400" viewBox="0 0 2400 1600">
<defs>
  <clipPath id="clip750">
    <rect x="0" y="0" width="2400" height="1600"/>
  </clipPath>
</defs>
<path clip-path="url(#clip750)" d="M0 1600 L2400 1600 L2400 0 L0 0  Z" fill="#ffffff" fill-rule="evenodd" fill-opacity="1"/>
<defs>
  <clipPath id="clip751">
    <rect x="480" y="0" width="1681" height="1600"/>
  </clipPath>
</defs>
<path clip-path="url(#clip750)" d="M277.621 1423.18 L2352.76 1423.18 L2352.76 123.472 L277.621 123.472  Z" fill="#ffffff" fill-rule="evenodd" fill-opacity="1"/>
<defs>
  <clipPath id="clip752">
    <rect x="277" y="123" width="2076" height="1301"/>
  </clipPath>
</defs>
<polyline clip-path="url(#clip752)" style="stroke:#000000; stroke-linecap:round; stroke-linejoin:round; stroke-width:2; stroke-opacity:0.1; fill:none" points="443.235,1423.18 443.235,123.472 "/>
<polyline clip-path="url(#clip752)" style="stroke:#000000; stroke-linecap:round; stroke-linejoin:round; stroke-width:2; stroke-opacity:0.1; fill:none" points="931.633,1423.18 931.633,123.472 "/>
<polyline clip-path="url(#clip752)" style="stroke:#000000; stroke-linecap:round; stroke-linejoin:round; stroke-width:2; stroke-opacity:0.1; fill:none" points="1420.03,1423.18 1420.03,123.472 "/>
<polyline clip-path="url(#clip752)" style="stroke:#000000; stroke-linecap:round; stroke-linejoin:round; stroke-width:2; stroke-opacity:0.1; fill:none" points="1908.43,1423.18 1908.43,123.472 "/>
<polyline clip-path="url(#clip750)" style="stroke:#000000; stroke-linecap:round; stroke-linejoin:round; stroke-width:4; stroke-opacity:1; fill:none" points="277.621,1423.18 2352.76,1423.18 "/>
<polyline clip-path="url(#clip750)" style="stroke:#000000; stroke-linecap:round; stroke-linejoin:round; stroke-width:4; stroke-opacity:1; fill:none" points="443.235,1423.18 443.235,1404.28 "/>
<polyline clip-path="url(#clip750)" style="stroke:#000000; stroke-linecap:round; stroke-linejoin:round; stroke-width:4; stroke-opacity:1; fill:none" points="931.633,1423.18 931.633,1404.28 "/>
<polyline clip-path="url(#clip750)" style="stroke:#000000; stroke-linecap:round; stroke-linejoin:round; stroke-width:4; stroke-opacity:1; fill:none" points="1420.03,1423.18 1420.03,1404.28 "/>
<polyline clip-path="url(#clip750)" style="stroke:#000000; stroke-linecap:round; stroke-linejoin:round; stroke-width:4; stroke-opacity:1; fill:none" points="1908.43,1423.18 1908.43,1404.28 "/>
<path clip-path="url(#clip750)" d="M411.186 1481.64 L418.825 1481.64 L418.825 1455.28 L410.515 1456.95 L410.515 1452.69 L418.779 1451.02 L423.455 1451.02 L423.455 1481.64 L431.094 1481.64 L431.094 1485.58 L411.186 1485.58 L411.186 1481.64 Z" fill="#000000" fill-rule="evenodd" fill-opacity="1" /><path clip-path="url(#clip750)" d="M440.538 1479.7 L445.422 1479.7 L445.422 1485.58 L440.538 1485.58 L440.538 1479.7 Z" fill="#000000" fill-rule="evenodd" fill-opacity="1" /><path clip-path="url(#clip750)" d="M459.635 1481.64 L475.955 1481.64 L475.955 1485.58 L454.01 1485.58 L454.01 1481.64 Q456.672 1478.89 461.256 1474.26 Q465.862 1469.61 467.043 1468.27 Q469.288 1465.74 470.168 1464.01 Q471.07 1462.25 471.07 1460.56 Q471.07 1457.8 469.126 1456.07 Q467.205 1454.33 464.103 1454.33 Q461.904 1454.33 459.45 1455.09 Q457.02 1455.86 454.242 1457.41 L454.242 1452.69 Q457.066 1451.55 459.519 1450.97 Q461.973 1450.39 464.01 1450.39 Q469.381 1450.39 472.575 1453.08 Q475.769 1455.77 475.769 1460.26 Q475.769 1462.39 474.959 1464.31 Q474.172 1466.2 472.066 1468.8 Q471.487 1469.47 468.385 1472.69 Q465.283 1475.88 459.635 1481.64 Z" fill="#000000" fill-rule="evenodd" fill-opacity="1" /><path clip-path="url(#clip750)" d="M898.543 1481.64 L906.181 1481.64 L906.181 1455.28 L897.871 1456.95 L897.871 1452.69 L906.135 1451.02 L910.811 1451.02 L910.811 1481.64 L918.45 1481.64 L918.45 1485.58 L898.543 1485.58 L898.543 1481.64 Z" fill="#000000" fill-rule="evenodd" fill-opacity="1" /><path clip-path="url(#clip750)" d="M927.894 1479.7 L932.778 1479.7 L932.778 1485.58 L927.894 1485.58 L927.894 1479.7 Z" fill="#000000" fill-rule="evenodd" fill-opacity="1" /><path clip-path="url(#clip750)" d="M955.811 1455.09 L944.005 1473.54 L955.811 1473.54 L955.811 1455.09 M954.584 1451.02 L960.464 1451.02 L960.464 1473.54 L965.394 1473.54 L965.394 1477.43 L960.464 1477.43 L960.464 1485.58 L955.811 1485.58 L955.811 1477.43 L940.209 1477.43 L940.209 1472.92 L954.584 1451.02 Z" fill="#000000" fill-rule="evenodd" fill-opacity="1" /><path clip-path="url(#clip750)" d="M1387.1 1481.64 L1394.74 1481.64 L1394.74 1455.28 L1386.43 1456.95 L1386.43 1452.69 L1394.69 1451.02 L1399.37 1451.02 L1399.37 1481.64 L1407.01 1481.64 L1407.01 1485.58 L1387.1 1485.58 L1387.1 1481.64 Z" fill="#000000" fill-rule="evenodd" fill-opacity="1" /><path clip-path="url(#clip750)" d="M1416.45 1479.7 L1421.34 1479.7 L1421.34 1485.58 L1416.45 1485.58 L1416.45 1479.7 Z" fill="#000000" fill-rule="evenodd" fill-opacity="1" /><path clip-path="url(#clip750)" d="M1442.1 1466.44 Q1438.95 1466.44 1437.1 1468.59 Q1435.27 1470.74 1435.27 1474.49 Q1435.27 1478.22 1437.1 1480.39 Q1438.95 1482.55 1442.1 1482.55 Q1445.25 1482.55 1447.08 1480.39 Q1448.93 1478.22 1448.93 1474.49 Q1448.93 1470.74 1447.08 1468.59 Q1445.25 1466.44 1442.1 1466.44 M1451.38 1451.78 L1451.38 1456.04 Q1449.63 1455.21 1447.82 1454.77 Q1446.04 1454.33 1444.28 1454.33 Q1439.65 1454.33 1437.19 1457.45 Q1434.76 1460.58 1434.42 1466.9 Q1435.78 1464.89 1437.84 1463.82 Q1439.9 1462.73 1442.38 1462.73 Q1447.59 1462.73 1450.6 1465.9 Q1453.63 1469.05 1453.63 1474.49 Q1453.63 1479.82 1450.48 1483.03 Q1447.33 1486.25 1442.1 1486.25 Q1436.11 1486.25 1432.94 1481.67 Q1429.76 1477.06 1429.76 1468.33 Q1429.76 1460.14 1433.65 1455.28 Q1437.54 1450.39 1444.09 1450.39 Q1445.85 1450.39 1447.63 1450.74 Q1449.44 1451.09 1451.38 1451.78 Z" fill="#000000" fill-rule="evenodd" fill-opacity="1" /><path clip-path="url(#clip750)" d="M1875.63 1481.64 L1883.27 1481.64 L1883.27 1455.28 L1874.96 1456.95 L1874.96 1452.69 L1883.22 1451.02 L1887.9 1451.02 L1887.9 1481.64 L1895.53 1481.64 L1895.53 1485.58 L1875.63 1485.58 L1875.63 1481.64 Z" fill="#000000" fill-rule="evenodd" fill-opacity="1" /><path clip-path="url(#clip750)" d="M1904.98 1479.7 L1909.86 1479.7 L1909.86 1485.58 L1904.98 1485.58 L1904.98 1479.7 Z" fill="#000000" fill-rule="evenodd" fill-opacity="1" /><path clip-path="url(#clip750)" d="M1930.05 1469.17 Q1926.72 1469.17 1924.79 1470.95 Q1922.9 1472.73 1922.9 1475.86 Q1922.9 1478.98 1924.79 1480.77 Q1926.72 1482.55 1930.05 1482.55 Q1933.38 1482.55 1935.3 1480.77 Q1937.22 1478.96 1937.22 1475.86 Q1937.22 1472.73 1935.3 1470.95 Q1933.4 1469.17 1930.05 1469.17 M1925.37 1467.18 Q1922.36 1466.44 1920.67 1464.38 Q1919.01 1462.32 1919.01 1459.35 Q1919.01 1455.21 1921.95 1452.8 Q1924.91 1450.39 1930.05 1450.39 Q1935.21 1450.39 1938.15 1452.8 Q1941.09 1455.21 1941.09 1459.35 Q1941.09 1462.32 1939.4 1464.38 Q1937.73 1466.44 1934.75 1467.18 Q1938.13 1467.96 1940 1470.26 Q1941.9 1472.55 1941.9 1475.86 Q1941.9 1480.88 1938.82 1483.57 Q1935.77 1486.25 1930.05 1486.25 Q1924.33 1486.25 1921.25 1483.57 Q1918.2 1480.88 1918.2 1475.86 Q1918.2 1472.55 1920.09 1470.26 Q1921.99 1467.96 1925.37 1467.18 M1923.66 1459.79 Q1923.66 1462.48 1925.33 1463.98 Q1927.02 1465.49 1930.05 1465.49 Q1933.06 1465.49 1934.75 1463.98 Q1936.46 1462.48 1936.46 1459.79 Q1936.46 1457.11 1934.75 1455.6 Q1933.06 1454.1 1930.05 1454.1 Q1927.02 1454.1 1925.33 1455.6 Q1923.66 1457.11 1923.66 1459.79 Z" fill="#000000" fill-rule="evenodd" fill-opacity="1" /><path clip-path="url(#clip750)" d="M1088 1526.86 L1079.28 1550.51 L1096.75 1550.51 L1088 1526.86 M1084.37 1520.52 L1091.66 1520.52 L1109.77 1568.04 L1103.08 1568.04 L1098.75 1555.85 L1077.33 1555.85 L1073 1568.04 L1066.23 1568.04 L1084.37 1520.52 Z" fill="#000000" fill-rule="evenodd" fill-opacity="1" /><path clip-path="url(#clip750)" d="M1138.76 1537.81 L1138.76 1518.52 L1144.62 1518.52 L1144.62 1568.04 L1138.76 1568.04 L1138.76 1562.7 Q1136.92 1565.88 1134.08 1567.44 Q1131.28 1568.97 1127.34 1568.97 Q1120.88 1568.97 1116.8 1563.81 Q1112.76 1558.65 1112.76 1550.25 Q1112.76 1541.85 1116.8 1536.69 Q1120.88 1531.54 1127.34 1531.54 Q1131.28 1531.54 1134.08 1533.1 Q1136.92 1534.62 1138.76 1537.81 M1118.81 1550.25 Q1118.81 1556.71 1121.45 1560.4 Q1124.12 1564.07 1128.77 1564.07 Q1133.42 1564.07 1136.09 1560.4 Q1138.76 1556.71 1138.76 1550.25 Q1138.76 1543.79 1136.09 1540.13 Q1133.42 1536.44 1128.77 1536.44 Q1124.12 1536.44 1121.45 1540.13 Q1118.81 1543.79 1118.81 1550.25 Z" fill="#000000" fill-rule="evenodd" fill-opacity="1" /><path clip-path="url(#clip750)" d="M1156.68 1532.4 L1162.54 1532.4 L1162.54 1568.04 L1156.68 1568.04 L1156.68 1532.4 M1156.68 1518.52 L1162.54 1518.52 L1162.54 1525.93 L1156.68 1525.93 L1156.68 1518.52 Z" fill="#000000" fill-rule="evenodd" fill-opacity="1" /><path clip-path="url(#clip750)" d="M1180.46 1562.7 L1180.46 1581.6 L1174.57 1581.6 L1174.57 1532.4 L1180.46 1532.4 L1180.46 1537.81 Q1182.3 1534.62 1185.11 1533.1 Q1187.94 1531.54 1191.85 1531.54 Q1198.35 1531.54 1202.39 1536.69 Q1206.46 1541.85 1206.46 1550.25 Q1206.46 1558.65 1202.39 1563.81 Q1198.35 1568.97 1191.85 1568.97 Q1187.94 1568.97 1185.11 1567.44 Q1182.3 1565.88 1180.46 1562.7 M1200.38 1550.25 Q1200.38 1543.79 1197.71 1540.13 Q1195.07 1536.44 1190.42 1536.44 Q1185.77 1536.44 1183.1 1540.13 Q1180.46 1543.79 1180.46 1550.25 Q1180.46 1556.71 1183.1 1560.4 Q1185.77 1564.07 1190.42 1564.07 Q1195.07 1564.07 1197.71 1560.4 Q1200.38 1556.71 1200.38 1550.25 Z" fill="#000000" fill-rule="evenodd" fill-opacity="1" /><path clip-path="url(#clip750)" d="M1229.98 1536.5 Q1225.27 1536.5 1222.54 1540.19 Q1219.8 1543.85 1219.8 1550.25 Q1219.8 1556.65 1222.5 1560.34 Q1225.24 1564 1229.98 1564 Q1234.66 1564 1237.4 1560.31 Q1240.14 1556.62 1240.14 1550.25 Q1240.14 1543.92 1237.4 1540.23 Q1234.66 1536.5 1229.98 1536.5 M1229.98 1531.54 Q1237.62 1531.54 1241.98 1536.5 Q1246.34 1541.47 1246.34 1550.25 Q1246.34 1559 1241.98 1564 Q1237.62 1568.97 1229.98 1568.97 Q1222.31 1568.97 1217.95 1564 Q1213.62 1559 1213.62 1550.25 Q1213.62 1541.47 1217.95 1536.5 Q1222.31 1531.54 1229.98 1531.54 Z" fill="#000000" fill-rule="evenodd" fill-opacity="1" /><path clip-path="url(#clip750)" d="M1278.78 1533.45 L1278.78 1538.98 Q1276.29 1537.71 1273.62 1537.07 Q1270.95 1536.44 1268.08 1536.44 Q1263.72 1536.44 1261.53 1537.77 Q1259.36 1539.11 1259.36 1541.79 Q1259.36 1543.82 1260.92 1545 Q1262.48 1546.15 1267.19 1547.2 L1269.2 1547.64 Q1275.43 1548.98 1278.04 1551.43 Q1280.69 1553.85 1280.69 1558.21 Q1280.69 1563.17 1276.74 1566.07 Q1272.82 1568.97 1265.95 1568.97 Q1263.08 1568.97 1259.97 1568.39 Q1256.88 1567.85 1253.44 1566.74 L1253.44 1560.69 Q1256.69 1562.38 1259.84 1563.24 Q1262.99 1564.07 1266.08 1564.07 Q1270.21 1564.07 1272.44 1562.66 Q1274.67 1561.23 1274.67 1558.65 Q1274.67 1556.27 1273.05 1554.99 Q1271.46 1553.72 1266.01 1552.54 L1263.98 1552.07 Q1258.53 1550.92 1256.11 1548.56 Q1253.7 1546.18 1253.7 1542.04 Q1253.7 1537.01 1257.26 1534.27 Q1260.83 1531.54 1267.38 1531.54 Q1270.63 1531.54 1273.49 1532.01 Q1276.36 1532.49 1278.78 1533.45 Z" fill="#000000" fill-rule="evenodd" fill-opacity="1" /><path clip-path="url(#clip750)" d="M1290.01 1532.4 L1295.87 1532.4 L1295.87 1568.04 L1290.01 1568.04 L1290.01 1532.4 M1290.01 1518.52 L1295.87 1518.52 L1295.87 1525.93 L1290.01 1525.93 L1290.01 1518.52 Z" fill="#000000" fill-rule="evenodd" fill-opacity="1" /><path clip-path="url(#clip750)" d="M1313.92 1522.27 L1313.92 1532.4 L1325.98 1532.4 L1325.98 1536.95 L1313.92 1536.95 L1313.92 1556.3 Q1313.92 1560.66 1315.09 1561.9 Q1316.3 1563.14 1319.96 1563.14 L1325.98 1563.14 L1325.98 1568.04 L1319.96 1568.04 Q1313.18 1568.04 1310.6 1565.53 Q1308.03 1562.98 1308.03 1556.3 L1308.03 1536.95 L1303.73 1536.95 L1303.73 1532.4 L1308.03 1532.4 L1308.03 1522.27 L1313.92 1522.27 Z" fill="#000000" fill-rule="evenodd" fill-opacity="1" /><path clip-path="url(#clip750)" d="M1348.51 1571.35 Q1346.03 1577.72 1343.67 1579.66 Q1341.32 1581.6 1337.37 1581.6 L1332.69 1581.6 L1332.69 1576.7 L1336.13 1576.7 Q1338.55 1576.7 1339.89 1575.56 Q1341.22 1574.41 1342.85 1570.14 L1343.9 1567.47 L1329.48 1532.4 L1335.69 1532.4 L1346.83 1560.28 L1357.97 1532.4 L1364.17 1532.4 L1348.51 1571.35 Z" fill="#000000" fill-rule="evenodd" fill-opacity="1" /><path clip-path="url(#clip750)" d="M1393.23 1520.52 L1399.66 1520.52 L1399.66 1568.04 L1393.23 1568.04 L1393.23 1520.52 Z" fill="#000000" fill-rule="evenodd" fill-opacity="1" /><path clip-path="url(#clip750)" d="M1441.83 1546.53 L1441.83 1568.04 L1435.98 1568.04 L1435.98 1546.72 Q1435.98 1541.66 1434 1539.14 Q1432.03 1536.63 1428.08 1536.63 Q1423.34 1536.63 1420.6 1539.65 Q1417.87 1542.68 1417.87 1547.9 L1417.87 1568.04 L1411.98 1568.04 L1411.98 1532.4 L1417.87 1532.4 L1417.87 1537.93 Q1419.97 1534.72 1422.8 1533.13 Q1425.67 1531.54 1429.39 1531.54 Q1435.53 1531.54 1438.68 1535.36 Q1441.83 1539.14 1441.83 1546.53 Z" fill="#000000" fill-rule="evenodd" fill-opacity="1" /><path clip-path="url(#clip750)" d="M1476.97 1537.81 L1476.97 1518.52 L1482.83 1518.52 L1482.83 1568.04 L1476.97 1568.04 L1476.97 1562.7 Q1475.13 1565.88 1472.29 1567.44 Q1469.49 1568.97 1465.55 1568.97 Q1459.09 1568.97 1455.01 1563.81 Q1450.97 1558.65 1450.97 1550.25 Q1450.97 1541.85 1455.01 1536.69 Q1459.09 1531.54 1465.55 1531.54 Q1469.49 1531.54 1472.29 1533.1 Q1475.13 1534.62 1476.97 1537.81 M1457.02 1550.25 Q1457.02 1556.71 1459.66 1560.4 Q1462.33 1564.07 1466.98 1564.07 Q1471.63 1564.07 1474.3 1560.4 Q1476.97 1556.71 1476.97 1550.25 Q1476.97 1543.79 1474.3 1540.13 Q1471.63 1536.44 1466.98 1536.44 Q1462.33 1536.44 1459.66 1540.13 Q1457.02 1543.79 1457.02 1550.25 Z" fill="#000000" fill-rule="evenodd" fill-opacity="1" /><path clip-path="url(#clip750)" d="M1525.38 1548.76 L1525.38 1551.62 L1498.46 1551.62 Q1498.84 1557.67 1502.09 1560.85 Q1505.36 1564 1511.19 1564 Q1514.56 1564 1517.71 1563.17 Q1520.9 1562.35 1524.02 1560.69 L1524.02 1566.23 Q1520.86 1567.57 1517.55 1568.27 Q1514.24 1568.97 1510.84 1568.97 Q1502.31 1568.97 1497.31 1564 Q1492.35 1559.04 1492.35 1550.57 Q1492.35 1541.82 1497.06 1536.69 Q1501.8 1531.54 1509.82 1531.54 Q1517.01 1531.54 1521.18 1536.18 Q1525.38 1540.8 1525.38 1548.76 M1519.53 1547.04 Q1519.46 1542.23 1516.82 1539.37 Q1514.21 1536.5 1509.88 1536.5 Q1504.98 1536.5 1502.02 1539.27 Q1499.09 1542.04 1498.65 1547.07 L1519.53 1547.04 Z" fill="#000000" fill-rule="evenodd" fill-opacity="1" /><path clip-path="url(#clip750)" d="M1563.48 1532.4 L1550.59 1549.74 L1564.15 1568.04 L1557.24 1568.04 L1546.87 1554.04 L1536.49 1568.04 L1529.59 1568.04 L1543.43 1549.39 L1530.76 1532.4 L1537.67 1532.4 L1547.12 1545.1 L1556.58 1532.4 L1563.48 1532.4 Z" fill="#000000" fill-rule="evenodd" fill-opacity="1" /><polyline clip-path="url(#clip752)" style="stroke:#000000; stroke-linecap:round; stroke-linejoin:round; stroke-width:2; stroke-opacity:0.1; fill:none" points="277.621,1332.57 2352.76,1332.57 "/>
<polyline clip-path="url(#clip752)" style="stroke:#000000; stroke-linecap:round; stroke-linejoin:round; stroke-width:2; stroke-opacity:0.1; fill:none" points="277.621,1063.44 2352.76,1063.44 "/>
<polyline clip-path="url(#clip752)" style="stroke:#000000; stroke-linecap:round; stroke-linejoin:round; stroke-width:2; stroke-opacity:0.1; fill:none" points="277.621,794.318 2352.76,794.318 "/>
<polyline clip-path="url(#clip752)" style="stroke:#000000; stroke-linecap:round; stroke-linejoin:round; stroke-width:2; stroke-opacity:0.1; fill:none" points="277.621,525.192 2352.76,525.192 "/>
<polyline clip-path="url(#clip752)" style="stroke:#000000; stroke-linecap:round; stroke-linejoin:round; stroke-width:2; stroke-opacity:0.1; fill:none" points="277.621,256.065 2352.76,256.065 "/>
<polyline clip-path="url(#clip750)" style="stroke:#000000; stroke-linecap:round; stroke-linejoin:round; stroke-width:4; stroke-opacity:1; fill:none" points="277.621,1423.18 277.621,123.472 "/>
<polyline clip-path="url(#clip750)" style="stroke:#000000; stroke-linecap:round; stroke-linejoin:round; stroke-width:4; stroke-opacity:1; fill:none" points="277.621,1332.57 296.518,1332.57 "/>
<polyline clip-path="url(#clip750)" style="stroke:#000000; stroke-linecap:round; stroke-linejoin:round; stroke-width:4; stroke-opacity:1; fill:none" points="277.621,1063.44 296.518,1063.44 "/>
<polyline clip-path="url(#clip750)" style="stroke:#000000; stroke-linecap:round; stroke-linejoin:round; stroke-width:4; stroke-opacity:1; fill:none" points="277.621,794.318 296.518,794.318 "/>
<polyline clip-path="url(#clip750)" style="stroke:#000000; stroke-linecap:round; stroke-linejoin:round; stroke-width:4; stroke-opacity:1; fill:none" points="277.621,525.192 296.518,525.192 "/>
<polyline clip-path="url(#clip750)" style="stroke:#000000; stroke-linecap:round; stroke-linejoin:round; stroke-width:4; stroke-opacity:1; fill:none" points="277.621,256.065 296.518,256.065 "/>
<path clip-path="url(#clip750)" d="M114.931 1345.92 L122.57 1345.92 L122.57 1319.55 L114.26 1321.22 L114.26 1316.96 L122.524 1315.29 L127.2 1315.29 L127.2 1345.92 L134.839 1345.92 L134.839 1349.85 L114.931 1349.85 L114.931 1345.92 Z" fill="#000000" fill-rule="evenodd" fill-opacity="1" /><path clip-path="url(#clip750)" d="M144.283 1343.97 L149.167 1343.97 L149.167 1349.85 L144.283 1349.85 L144.283 1343.97 Z" fill="#000000" fill-rule="evenodd" fill-opacity="1" /><path clip-path="url(#clip750)" d="M169.352 1318.37 Q165.741 1318.37 163.913 1321.93 Q162.107 1325.48 162.107 1332.61 Q162.107 1339.71 163.913 1343.28 Q165.741 1346.82 169.352 1346.82 Q172.987 1346.82 174.792 1343.28 Q176.621 1339.71 176.621 1332.61 Q176.621 1325.48 174.792 1321.93 Q172.987 1318.37 169.352 1318.37 M169.352 1314.67 Q175.163 1314.67 178.218 1319.27 Q181.297 1323.86 181.297 1332.61 Q181.297 1341.33 178.218 1345.94 Q175.163 1350.52 169.352 1350.52 Q163.542 1350.52 160.464 1345.94 Q157.408 1341.33 157.408 1332.61 Q157.408 1323.86 160.464 1319.27 Q163.542 1314.67 169.352 1314.67 Z" fill="#000000" fill-rule="evenodd" fill-opacity="1" /><path clip-path="url(#clip750)" d="M199.514 1318.37 Q195.903 1318.37 194.075 1321.93 Q192.269 1325.48 192.269 1332.61 Q192.269 1339.71 194.075 1343.28 Q195.903 1346.82 199.514 1346.82 Q203.149 1346.82 204.954 1343.28 Q206.783 1339.71 206.783 1332.61 Q206.783 1325.48 204.954 1321.93 Q203.149 1318.37 199.514 1318.37 M199.514 1314.67 Q205.324 1314.67 208.38 1319.27 Q211.459 1323.86 211.459 1332.61 Q211.459 1341.33 208.38 1345.94 Q205.324 1350.52 199.514 1350.52 Q193.704 1350.52 190.625 1345.94 Q187.57 1341.33 187.57 1332.61 Q187.57 1323.86 190.625 1319.27 Q193.704 1314.67 199.514 1314.67 Z" fill="#000000" fill-rule="evenodd" fill-opacity="1" /><path clip-path="url(#clip750)" d="M229.676 1318.37 Q226.065 1318.37 224.236 1321.93 Q222.431 1325.48 222.431 1332.61 Q222.431 1339.71 224.236 1343.28 Q226.065 1346.82 229.676 1346.82 Q233.31 1346.82 235.116 1343.28 Q236.945 1339.71 236.945 1332.61 Q236.945 1325.48 235.116 1321.93 Q233.31 1318.37 229.676 1318.37 M229.676 1314.67 Q235.486 1314.67 238.542 1319.27 Q241.621 1323.86 241.621 1332.61 Q241.621 1341.33 238.542 1345.94 Q235.486 1350.52 229.676 1350.52 Q223.866 1350.52 220.787 1345.94 Q217.732 1341.33 217.732 1332.61 Q217.732 1323.86 220.787 1319.27 Q223.866 1314.67 229.676 1314.67 Z" fill="#000000" fill-rule="evenodd" fill-opacity="1" /><path clip-path="url(#clip750)" d="M115.927 1076.79 L123.566 1076.79 L123.566 1050.42 L115.256 1052.09 L115.256 1047.83 L123.519 1046.16 L128.195 1046.16 L128.195 1076.79 L135.834 1076.79 L135.834 1080.72 L115.927 1080.72 L115.927 1076.79 Z" fill="#000000" fill-rule="evenodd" fill-opacity="1" /><path clip-path="url(#clip750)" d="M145.279 1074.84 L150.163 1074.84 L150.163 1080.72 L145.279 1080.72 L145.279 1074.84 Z" fill="#000000" fill-rule="evenodd" fill-opacity="1" /><path clip-path="url(#clip750)" d="M170.348 1049.24 Q166.737 1049.24 164.908 1052.81 Q163.102 1056.35 163.102 1063.48 Q163.102 1070.59 164.908 1074.15 Q166.737 1077.69 170.348 1077.69 Q173.982 1077.69 175.788 1074.15 Q177.616 1070.59 177.616 1063.48 Q177.616 1056.35 175.788 1052.81 Q173.982 1049.24 170.348 1049.24 M170.348 1045.54 Q176.158 1045.54 179.214 1050.15 Q182.292 1054.73 182.292 1063.48 Q182.292 1072.21 179.214 1076.81 Q176.158 1081.4 170.348 1081.4 Q164.538 1081.4 161.459 1076.81 Q158.403 1072.21 158.403 1063.48 Q158.403 1054.73 161.459 1050.15 Q164.538 1045.54 170.348 1045.54 Z" fill="#000000" fill-rule="evenodd" fill-opacity="1" /><path clip-path="url(#clip750)" d="M194.538 1076.79 L210.857 1076.79 L210.857 1080.72 L188.913 1080.72 L188.913 1076.79 Q191.575 1074.03 196.158 1069.4 Q200.764 1064.75 201.945 1063.41 Q204.19 1060.89 205.07 1059.15 Q205.973 1057.39 205.973 1055.7 Q205.973 1052.95 204.028 1051.21 Q202.107 1049.47 199.005 1049.47 Q196.806 1049.47 194.352 1050.24 Q191.922 1051 189.144 1052.55 L189.144 1047.83 Q191.968 1046.7 194.422 1046.12 Q196.875 1045.54 198.912 1045.54 Q204.283 1045.54 207.477 1048.22 Q210.672 1050.91 210.672 1055.4 Q210.672 1057.53 209.861 1059.45 Q209.074 1061.35 206.968 1063.94 Q206.389 1064.61 203.287 1067.83 Q200.186 1071.03 194.538 1076.79 Z" fill="#000000" fill-rule="evenodd" fill-opacity="1" /><path clip-path="url(#clip750)" d="M220.718 1046.16 L239.074 1046.16 L239.074 1050.1 L225 1050.1 L225 1058.57 Q226.019 1058.22 227.037 1058.06 Q228.056 1057.88 229.074 1057.88 Q234.861 1057.88 238.241 1061.05 Q241.621 1064.22 241.621 1069.64 Q241.621 1075.21 238.148 1078.32 Q234.676 1081.4 228.357 1081.4 Q226.181 1081.4 223.912 1081.03 Q221.667 1080.65 219.26 1079.91 L219.26 1075.21 Q221.343 1076.35 223.565 1076.9 Q225.787 1077.46 228.264 1077.46 Q232.269 1077.46 234.607 1075.35 Q236.945 1073.25 236.945 1069.64 Q236.945 1066.03 234.607 1063.92 Q232.269 1061.81 228.264 1061.81 Q226.389 1061.81 224.514 1062.23 Q222.662 1062.65 220.718 1063.53 L220.718 1046.16 Z" fill="#000000" fill-rule="evenodd" fill-opacity="1" /><path clip-path="url(#clip750)" d="M114.931 807.663 L122.57 807.663 L122.57 781.297 L114.26 782.964 L114.26 778.704 L122.524 777.038 L127.2 777.038 L127.2 807.663 L134.839 807.663 L134.839 811.598 L114.931 811.598 L114.931 807.663 Z" fill="#000000" fill-rule="evenodd" fill-opacity="1" /><path clip-path="url(#clip750)" d="M144.283 805.718 L149.167 805.718 L149.167 811.598 L144.283 811.598 L144.283 805.718 Z" fill="#000000" fill-rule="evenodd" fill-opacity="1" /><path clip-path="url(#clip750)" d="M169.352 780.117 Q165.741 780.117 163.913 783.681 Q162.107 787.223 162.107 794.353 Q162.107 801.459 163.913 805.024 Q165.741 808.565 169.352 808.565 Q172.987 808.565 174.792 805.024 Q176.621 801.459 176.621 794.353 Q176.621 787.223 174.792 783.681 Q172.987 780.117 169.352 780.117 M169.352 776.413 Q175.163 776.413 178.218 781.019 Q181.297 785.603 181.297 794.353 Q181.297 803.079 178.218 807.686 Q175.163 812.269 169.352 812.269 Q163.542 812.269 160.464 807.686 Q157.408 803.079 157.408 794.353 Q157.408 785.603 160.464 781.019 Q163.542 776.413 169.352 776.413 Z" fill="#000000" fill-rule="evenodd" fill-opacity="1" /><path clip-path="url(#clip750)" d="M189.561 777.038 L207.917 777.038 L207.917 780.973 L193.843 780.973 L193.843 789.445 Q194.862 789.098 195.88 788.936 Q196.899 788.751 197.917 788.751 Q203.704 788.751 207.084 791.922 Q210.463 795.093 210.463 800.51 Q210.463 806.089 206.991 809.19 Q203.519 812.269 197.2 812.269 Q195.024 812.269 192.755 811.899 Q190.51 811.528 188.102 810.788 L188.102 806.089 Q190.186 807.223 192.408 807.778 Q194.63 808.334 197.107 808.334 Q201.112 808.334 203.449 806.227 Q205.787 804.121 205.787 800.51 Q205.787 796.899 203.449 794.792 Q201.112 792.686 197.107 792.686 Q195.232 792.686 193.357 793.103 Q191.505 793.519 189.561 794.399 L189.561 777.038 Z" fill="#000000" fill-rule="evenodd" fill-opacity="1" /><path clip-path="url(#clip750)" d="M229.676 780.117 Q226.065 780.117 224.236 783.681 Q222.431 787.223 222.431 794.353 Q222.431 801.459 224.236 805.024 Q226.065 808.565 229.676 808.565 Q233.31 808.565 235.116 805.024 Q236.945 801.459 236.945 794.353 Q236.945 787.223 235.116 783.681 Q233.31 780.117 229.676 780.117 M229.676 776.413 Q235.486 776.413 238.542 781.019 Q241.621 785.603 241.621 794.353 Q241.621 803.079 238.542 807.686 Q235.486 812.269 229.676 812.269 Q223.866 812.269 220.787 807.686 Q217.732 803.079 217.732 794.353 Q217.732 785.603 220.787 781.019 Q223.866 776.413 229.676 776.413 Z" fill="#000000" fill-rule="evenodd" fill-opacity="1" /><path clip-path="url(#clip750)" d="M115.927 538.536 L123.566 538.536 L123.566 512.171 L115.256 513.837 L115.256 509.578 L123.519 507.912 L128.195 507.912 L128.195 538.536 L135.834 538.536 L135.834 542.472 L115.927 542.472 L115.927 538.536 Z" fill="#000000" fill-rule="evenodd" fill-opacity="1" /><path clip-path="url(#clip750)" d="M145.279 536.592 L150.163 536.592 L150.163 542.472 L145.279 542.472 L145.279 536.592 Z" fill="#000000" fill-rule="evenodd" fill-opacity="1" /><path clip-path="url(#clip750)" d="M170.348 510.99 Q166.737 510.99 164.908 514.555 Q163.102 518.097 163.102 525.226 Q163.102 532.333 164.908 535.898 Q166.737 539.439 170.348 539.439 Q173.982 539.439 175.788 535.898 Q177.616 532.333 177.616 525.226 Q177.616 518.097 175.788 514.555 Q173.982 510.99 170.348 510.99 M170.348 507.287 Q176.158 507.287 179.214 511.893 Q182.292 516.476 182.292 525.226 Q182.292 533.953 179.214 538.56 Q176.158 543.143 170.348 543.143 Q164.538 543.143 161.459 538.56 Q158.403 533.953 158.403 525.226 Q158.403 516.476 161.459 511.893 Q164.538 507.287 170.348 507.287 Z" fill="#000000" fill-rule="evenodd" fill-opacity="1" /><path clip-path="url(#clip750)" d="M189.329 507.912 L211.551 507.912 L211.551 509.902 L199.005 542.472 L194.121 542.472 L205.926 511.847 L189.329 511.847 L189.329 507.912 Z" fill="#000000" fill-rule="evenodd" fill-opacity="1" /><path clip-path="url(#clip750)" d="M220.718 507.912 L239.074 507.912 L239.074 511.847 L225 511.847 L225 520.319 Q226.019 519.972 227.037 519.81 Q228.056 519.624 229.074 519.624 Q234.861 519.624 238.241 522.796 Q241.621 525.967 241.621 531.384 Q241.621 536.962 238.148 540.064 Q234.676 543.143 228.357 543.143 Q226.181 543.143 223.912 542.772 Q221.667 542.402 219.26 541.661 L219.26 536.962 Q221.343 538.097 223.565 538.652 Q225.787 539.208 228.264 539.208 Q232.269 539.208 234.607 537.101 Q236.945 534.995 236.945 531.384 Q236.945 527.773 234.607 525.666 Q232.269 523.56 228.264 523.56 Q226.389 523.56 224.514 523.976 Q222.662 524.393 220.718 525.273 L220.718 507.912 Z" fill="#000000" fill-rule="evenodd" fill-opacity="1" /><path clip-path="url(#clip750)" d="M114.931 269.41 L122.57 269.41 L122.57 243.045 L114.26 244.711 L114.26 240.452 L122.524 238.785 L127.2 238.785 L127.2 269.41 L134.839 269.41 L134.839 273.345 L114.931 273.345 L114.931 269.41 Z" fill="#000000" fill-rule="evenodd" fill-opacity="1" /><path clip-path="url(#clip750)" d="M144.283 267.466 L149.167 267.466 L149.167 273.345 L144.283 273.345 L144.283 267.466 Z" fill="#000000" fill-rule="evenodd" fill-opacity="1" /><path clip-path="url(#clip750)" d="M160.163 269.41 L167.802 269.41 L167.802 243.045 L159.491 244.711 L159.491 240.452 L167.755 238.785 L172.431 238.785 L172.431 269.41 L180.07 269.41 L180.07 273.345 L160.163 273.345 L160.163 269.41 Z" fill="#000000" fill-rule="evenodd" fill-opacity="1" /><path clip-path="url(#clip750)" d="M199.514 241.864 Q195.903 241.864 194.075 245.429 Q192.269 248.97 192.269 256.1 Q192.269 263.206 194.075 266.771 Q195.903 270.313 199.514 270.313 Q203.149 270.313 204.954 266.771 Q206.783 263.206 206.783 256.1 Q206.783 248.97 204.954 245.429 Q203.149 241.864 199.514 241.864 M199.514 238.16 Q205.324 238.16 208.38 242.767 Q211.459 247.35 211.459 256.1 Q211.459 264.827 208.38 269.433 Q205.324 274.017 199.514 274.017 Q193.704 274.017 190.625 269.433 Q187.57 264.827 187.57 256.1 Q187.57 247.35 190.625 242.767 Q193.704 238.16 199.514 238.16 Z" fill="#000000" fill-rule="evenodd" fill-opacity="1" /><path clip-path="url(#clip750)" d="M229.676 241.864 Q226.065 241.864 224.236 245.429 Q222.431 248.97 222.431 256.1 Q222.431 263.206 224.236 266.771 Q226.065 270.313 229.676 270.313 Q233.31 270.313 235.116 266.771 Q236.945 263.206 236.945 256.1 Q236.945 248.97 235.116 245.429 Q233.31 241.864 229.676 241.864 M229.676 238.16 Q235.486 238.16 238.542 242.767 Q241.621 247.35 241.621 256.1 Q241.621 264.827 238.542 269.433 Q235.486 274.017 229.676 274.017 Q223.866 274.017 220.787 269.433 Q217.732 264.827 217.732 256.1 Q217.732 247.35 220.787 242.767 Q223.866 238.16 229.676 238.16 Z" fill="#000000" fill-rule="evenodd" fill-opacity="1" /><path clip-path="url(#clip750)" d="M18.0438 995.871 L24.314 995.871 Q22.5634 999.531 21.704 1002.78 Q20.8447 1006.02 20.8447 1009.05 Q20.8447 1014.3 22.8817 1017.16 Q24.9187 1020 28.6745 1020 Q31.8255 1020 33.4488 1018.12 Q35.0402 1016.21 36.0269 1010.93 L36.8226 1007.04 Q38.1912 999.85 41.6605 996.444 Q45.098 993.007 50.8908 993.007 Q57.7976 993.007 61.3624 997.653 Q64.9272 1002.27 64.9272 1011.21 Q64.9272 1014.59 64.1633 1018.41 Q63.3994 1022.19 61.9035 1026.27 L55.2831 1026.27 Q57.4793 1022.35 58.5933 1018.6 Q59.7073 1014.84 59.7073 1011.21 Q59.7073 1005.71 57.543 1002.71 Q55.3786 999.722 51.3682 999.722 Q47.8671 999.722 45.8937 1001.89 Q43.9204 1004.02 42.9337 1008.92 L42.1698 1012.84 Q40.7375 1020.03 37.682 1023.24 Q34.6264 1026.46 29.1837 1026.46 Q22.8817 1026.46 19.2532 1022.03 Q15.6248 1017.58 15.6248 1009.78 Q15.6248 1006.44 16.2295 1002.97 Q16.8343 999.5 18.0438 995.871 Z" fill="#000000" fill-rule="evenodd" fill-opacity="1" /><path clip-path="url(#clip750)" d="M58.657 977.57 L77.5631 977.57 L77.5631 983.458 L28.3562 983.458 L28.3562 977.57 L33.7671 977.57 Q30.5842 975.724 29.0564 972.923 Q27.4968 970.09 27.4968 966.175 Q27.4968 959.682 32.6531 955.64 Q37.8093 951.566 46.212 951.566 Q54.6147 951.566 59.771 955.64 Q64.9272 959.682 64.9272 966.175 Q64.9272 970.09 63.3994 972.923 Q61.8398 975.724 58.657 977.57 M46.212 957.645 Q39.7508 957.645 36.0905 960.319 Q32.3984 962.96 32.3984 967.607 Q32.3984 972.254 36.0905 974.928 Q39.7508 977.57 46.212 977.57 Q52.6732 977.57 56.3653 974.928 Q60.0256 972.254 60.0256 967.607 Q60.0256 962.96 56.3653 960.319 Q52.6732 957.645 46.212 957.645 Z" fill="#000000" fill-rule="evenodd" fill-opacity="1" /><path clip-path="url(#clip750)" d="M44.7161 911.366 L47.5806 911.366 L47.5806 938.293 Q53.6281 937.911 56.8109 934.665 Q59.9619 931.386 59.9619 925.562 Q59.9619 922.188 59.1344 919.037 Q58.3069 915.854 56.6518 912.735 L62.1899 912.735 Q63.5267 915.886 64.227 919.196 Q64.9272 922.506 64.9272 925.912 Q64.9272 934.442 59.9619 939.439 Q54.9967 944.404 46.5303 944.404 Q37.7774 944.404 32.6531 939.694 Q27.4968 934.951 27.4968 926.93 Q27.4968 919.737 32.1438 915.568 Q36.7589 911.366 44.7161 911.366 M42.9973 917.223 Q38.1912 917.286 35.3266 919.928 Q32.4621 922.538 32.4621 926.867 Q32.4621 931.768 35.2312 934.728 Q38.0002 937.657 43.0292 938.102 L42.9973 917.223 Z" fill="#000000" fill-rule="evenodd" fill-opacity="1" /><path clip-path="url(#clip750)" d="M29.7248 876.1 L35.1993 876.1 Q33.8307 878.583 33.1623 881.097 Q32.4621 883.58 32.4621 886.126 Q32.4621 891.824 36.0905 894.975 Q39.6872 898.126 46.212 898.126 Q52.7369 898.126 56.3653 894.975 Q59.9619 891.824 59.9619 886.126 Q59.9619 883.58 59.2935 881.097 Q58.5933 878.583 57.2247 876.1 L62.6355 876.1 Q63.7814 878.551 64.3543 881.193 Q64.9272 883.803 64.9272 886.763 Q64.9272 894.815 59.8664 899.558 Q54.8057 904.3 46.212 904.3 Q37.491 904.3 32.4939 899.526 Q27.4968 894.72 27.4968 886.381 Q27.4968 883.676 28.0697 881.097 Q28.6108 878.519 29.7248 876.1 Z" fill="#000000" fill-rule="evenodd" fill-opacity="1" /><path clip-path="url(#clip750)" d="M28.3562 865.915 L28.3562 860.059 L64.0042 860.059 L64.0042 865.915 L28.3562 865.915 M14.479 865.915 L14.479 860.059 L21.895 860.059 L21.895 865.915 L14.479 865.915 Z" fill="#000000" fill-rule="evenodd" fill-opacity="1" /><path clip-path="url(#clip750)" d="M14.479 829.758 L19.3487 829.758 L19.3487 835.36 Q19.3487 838.511 20.6219 839.752 Q21.895 840.962 25.2052 840.962 L28.3562 840.962 L28.3562 831.318 L32.9077 831.318 L32.9077 840.962 L64.0042 840.962 L64.0042 846.85 L32.9077 846.85 L32.9077 852.452 L28.3562 852.452 L28.3562 846.85 L25.8736 846.85 Q19.9216 846.85 17.2162 844.081 Q14.479 841.312 14.479 835.296 L14.479 829.758 Z" fill="#000000" fill-rule="evenodd" fill-opacity="1" /><path clip-path="url(#clip750)" d="M28.3562 824.856 L28.3562 819 L64.0042 819 L64.0042 824.856 L28.3562 824.856 M14.479 824.856 L14.479 819 L21.895 819 L21.895 824.856 L14.479 824.856 Z" fill="#000000" fill-rule="evenodd" fill-opacity="1" /><path clip-path="url(#clip750)" d="M29.7248 781.092 L35.1993 781.092 Q33.8307 783.575 33.1623 786.089 Q32.4621 788.572 32.4621 791.118 Q32.4621 796.815 36.0905 799.966 Q39.6872 803.117 46.212 803.117 Q52.7369 803.117 56.3653 799.966 Q59.9619 796.815 59.9619 791.118 Q59.9619 788.572 59.2935 786.089 Q58.5933 783.575 57.2247 781.092 L62.6355 781.092 Q63.7814 783.543 64.3543 786.185 Q64.9272 788.795 64.9272 791.755 Q64.9272 799.807 59.8664 804.55 Q54.8057 809.292 46.212 809.292 Q37.491 809.292 32.4939 804.518 Q27.4968 799.712 27.4968 791.373 Q27.4968 788.667 28.0697 786.089 Q28.6108 783.511 29.7248 781.092 Z" fill="#000000" fill-rule="evenodd" fill-opacity="1" /><path clip-path="url(#clip750)" d="M57.2247 717.531 L44.4614 717.531 L44.4614 728.034 L39.1779 728.034 L39.1779 711.165 L59.58 711.165 Q62.2218 714.889 63.5904 719.377 Q64.9272 723.864 64.9272 728.957 Q64.9272 740.097 58.4342 746.399 Q51.9093 752.669 40.2919 752.669 Q28.6427 752.669 22.1496 746.399 Q15.6248 740.097 15.6248 728.957 Q15.6248 724.31 16.7706 720.141 Q17.9164 715.939 20.1444 712.406 L26.9876 712.406 Q23.9639 715.971 22.4361 719.981 Q20.9083 723.992 20.9083 728.416 Q20.9083 737.137 25.7781 741.529 Q30.6479 745.89 40.2919 745.89 Q49.9041 745.89 54.7739 741.529 Q59.6436 737.137 59.6436 728.416 Q59.6436 725.01 59.0707 722.337 Q58.466 719.663 57.2247 717.531 Z" fill="#000000" fill-rule="evenodd" fill-opacity="1" /><path clip-path="url(#clip750)" d="M33.8307 679.018 Q33.2578 680.005 33.0032 681.182 Q32.7167 682.328 32.7167 683.729 Q32.7167 688.694 35.9632 691.368 Q39.1779 694.009 45.2253 694.009 L64.0042 694.009 L64.0042 699.898 L28.3562 699.898 L28.3562 694.009 L33.8944 694.009 Q30.6479 692.163 29.0883 689.203 Q27.4968 686.243 27.4968 682.01 Q27.4968 681.405 27.5923 680.673 Q27.656 679.941 27.8151 679.05 L33.8307 679.018 Z" fill="#000000" fill-rule="evenodd" fill-opacity="1" /><path clip-path="url(#clip750)" d="M46.0847 656.674 Q46.0847 663.772 47.7079 666.509 Q49.3312 669.247 53.2461 669.247 Q56.3653 669.247 58.2114 667.21 Q60.0256 665.141 60.0256 661.608 Q60.0256 656.738 56.5881 653.81 Q53.1188 650.85 47.3897 650.85 L46.0847 650.85 L46.0847 656.674 M43.6657 644.993 L64.0042 644.993 L64.0042 650.85 L58.5933 650.85 Q61.8398 652.855 63.3994 655.847 Q64.9272 658.839 64.9272 663.167 Q64.9272 668.642 61.8716 671.888 Q58.7843 675.103 53.6281 675.103 Q47.6125 675.103 44.5569 671.093 Q41.5014 667.051 41.5014 659.062 L41.5014 650.85 L40.9285 650.85 Q36.8862 650.85 34.6901 653.523 Q32.4621 656.165 32.4621 660.971 Q32.4621 664.027 33.1941 666.923 Q33.9262 669.82 35.3903 672.493 L29.9795 672.493 Q28.7381 669.279 28.1334 666.255 Q27.4968 663.231 27.4968 660.367 Q27.4968 652.632 31.5072 648.813 Q35.5176 644.993 43.6657 644.993 Z" fill="#000000" fill-rule="evenodd" fill-opacity="1" /><path clip-path="url(#clip750)" d="M28.3562 637.132 L28.3562 630.925 L58.275 619.785 L28.3562 608.645 L28.3562 602.439 L64.0042 615.807 L64.0042 623.764 L28.3562 637.132 Z" fill="#000000" fill-rule="evenodd" fill-opacity="1" /><path clip-path="url(#clip750)" d="M28.3562 594.354 L28.3562 588.498 L64.0042 588.498 L64.0042 594.354 L28.3562 594.354 M14.479 594.354 L14.479 588.498 L21.895 588.498 L21.895 594.354 L14.479 594.354 Z" fill="#000000" fill-rule="evenodd" fill-opacity="1" /><path clip-path="url(#clip750)" d="M18.2347 570.451 L28.3562 570.451 L28.3562 558.388 L32.9077 558.388 L32.9077 570.451 L52.2594 570.451 Q56.6199 570.451 57.8613 569.273 Q59.1026 568.064 59.1026 564.403 L59.1026 558.388 L64.0042 558.388 L64.0042 564.403 Q64.0042 571.183 61.4897 573.761 Q58.9434 576.339 52.2594 576.339 L32.9077 576.339 L32.9077 580.636 L28.3562 580.636 L28.3562 576.339 L18.2347 576.339 L18.2347 570.451 Z" fill="#000000" fill-rule="evenodd" fill-opacity="1" /><path clip-path="url(#clip750)" d="M67.3143 535.853 Q73.68 538.336 75.6216 540.691 Q77.5631 543.047 77.5631 546.993 L77.5631 551.672 L72.6615 551.672 L72.6615 548.235 Q72.6615 545.816 71.5157 544.479 Q70.3699 543.142 66.1048 541.519 L63.4312 540.468 L28.3562 554.887 L28.3562 548.68 L56.238 537.54 L28.3562 526.4 L28.3562 520.194 L67.3143 535.853 Z" fill="#000000" fill-rule="evenodd" fill-opacity="1" /><path clip-path="url(#clip750)" d="M556.029 12.096 L568.222 12.096 L583.656 53.2532 L599.171 12.096 L611.364 12.096 L611.364 72.576 L603.384 72.576 L603.384 19.4686 L587.788 60.9499 L579.564 60.9499 L563.968 19.4686 L563.968 72.576 L556.029 72.576 L556.029 12.096 Z" fill="#000000" fill-rule="evenodd" fill-opacity="1" /><path clip-path="url(#clip750)" d="M666.092 48.0275 L666.092 51.6733 L631.821 51.6733 Q632.307 59.3701 636.439 63.421 Q640.611 67.4314 648.025 67.4314 Q652.319 67.4314 656.329 66.3781 Q660.38 65.3249 664.35 63.2184 L664.35 70.267 Q660.339 71.9684 656.126 72.8596 Q651.913 73.7508 647.579 73.7508 Q636.723 73.7508 630.363 67.4314 Q624.043 61.1119 624.043 50.3365 Q624.043 39.1965 630.039 32.6746 Q636.074 26.1121 646.283 26.1121 Q655.438 26.1121 660.744 32.0264 Q666.092 37.9003 666.092 48.0275 M658.638 45.84 Q658.557 39.7232 655.195 36.0774 Q651.873 32.4315 646.364 32.4315 Q640.125 32.4315 636.358 35.9558 Q632.631 39.4801 632.064 45.8805 L658.638 45.84 Z" fill="#000000" fill-rule="evenodd" fill-opacity="1" /><path clip-path="url(#clip750)" d="M698.944 49.7694 Q689.911 49.7694 686.427 51.8354 Q682.943 53.9013 682.943 58.8839 Q682.943 62.8538 685.536 65.2034 Q688.169 67.5124 692.666 67.5124 Q698.863 67.5124 702.59 63.1374 Q706.358 58.7219 706.358 51.4303 L706.358 49.7694 L698.944 49.7694 M713.811 46.6907 L713.811 72.576 L706.358 72.576 L706.358 65.6895 Q703.806 69.8214 699.998 71.8063 Q696.19 73.7508 690.681 73.7508 Q683.713 73.7508 679.581 69.8619 Q675.49 65.9325 675.49 59.3701 Q675.49 51.7138 680.594 47.825 Q685.738 43.9361 695.906 43.9361 L706.358 43.9361 L706.358 43.2069 Q706.358 38.0623 702.955 35.2672 Q699.593 32.4315 693.476 32.4315 Q689.587 32.4315 685.901 33.3632 Q682.214 34.295 678.811 36.1584 L678.811 29.2718 Q682.903 27.692 686.751 26.9223 Q690.6 26.1121 694.245 26.1121 Q704.089 26.1121 708.95 31.2163 Q713.811 36.3204 713.811 46.6907 Z" fill="#000000" fill-rule="evenodd" fill-opacity="1" /><path clip-path="url(#clip750)" d="M758.088 28.5427 L758.088 35.5912 Q754.928 33.9709 751.525 33.1607 Q748.122 32.3505 744.477 32.3505 Q738.927 32.3505 736.132 34.0519 Q733.377 35.7533 733.377 39.156 Q733.377 41.7486 735.362 43.2475 Q737.347 44.7058 743.342 46.0426 L745.894 46.6097 Q753.834 48.3111 757.156 51.4303 Q760.518 54.509 760.518 60.0587 Q760.518 66.3781 755.495 70.0644 Q750.512 73.7508 741.762 73.7508 Q738.117 73.7508 734.147 73.0216 Q730.217 72.3329 725.842 70.9151 L725.842 63.2184 Q729.974 65.3654 733.985 66.4591 Q737.995 67.5124 741.925 67.5124 Q747.191 67.5124 750.026 65.73 Q752.862 63.9071 752.862 60.6258 Q752.862 57.5877 750.796 55.9673 Q748.771 54.3469 741.844 52.8481 L739.251 52.2405 Q732.324 50.7821 729.245 47.7845 Q726.167 44.7463 726.167 39.4801 Q726.167 33.0797 730.704 29.5959 Q735.241 26.1121 743.585 26.1121 Q747.717 26.1121 751.363 26.7198 Q755.009 27.3274 758.088 28.5427 Z" fill="#000000" fill-rule="evenodd" fill-opacity="1" /><path clip-path="url(#clip750)" d="M771.618 54.671 L771.618 27.2059 L779.071 27.2059 L779.071 54.3874 Q779.071 60.8284 781.583 64.0691 Q784.094 67.2693 789.118 67.2693 Q795.153 67.2693 798.637 63.421 Q802.161 59.5726 802.161 52.9291 L802.161 27.2059 L809.615 27.2059 L809.615 72.576 L802.161 72.576 L802.161 65.6084 Q799.447 69.7404 795.842 71.7658 Q792.277 73.7508 787.538 73.7508 Q779.719 73.7508 775.669 68.8897 Q771.618 64.0286 771.618 54.671 M790.373 26.1121 L790.373 26.1121 Z" fill="#000000" fill-rule="evenodd" fill-opacity="1" /><path clip-path="url(#clip750)" d="M851.258 34.1734 Q850.003 33.4443 848.504 33.1202 Q847.045 32.7556 845.263 32.7556 Q838.944 32.7556 835.541 36.8875 Q832.179 40.9789 832.179 48.6757 L832.179 72.576 L824.685 72.576 L824.685 27.2059 L832.179 27.2059 L832.179 34.2544 Q834.528 30.1225 838.296 28.1376 Q842.063 26.1121 847.451 26.1121 Q848.22 26.1121 849.152 26.2337 Q850.084 26.3147 851.218 26.5172 L851.258 34.1734 Z" fill="#000000" fill-rule="evenodd" fill-opacity="1" /><path clip-path="url(#clip750)" d="M896.061 48.0275 L896.061 51.6733 L861.791 51.6733 Q862.277 59.3701 866.409 63.421 Q870.581 67.4314 877.994 67.4314 Q882.288 67.4314 886.299 66.3781 Q890.35 65.3249 894.32 63.2184 L894.32 70.267 Q890.309 71.9684 886.096 72.8596 Q881.883 73.7508 877.549 73.7508 Q866.692 73.7508 860.332 67.4314 Q854.013 61.1119 854.013 50.3365 Q854.013 39.1965 860.008 32.6746 Q866.044 26.1121 876.253 26.1121 Q885.408 26.1121 890.714 32.0264 Q896.061 37.9003 896.061 48.0275 M888.608 45.84 Q888.527 39.7232 885.165 36.0774 Q881.843 32.4315 876.334 32.4315 Q870.095 32.4315 866.328 35.9558 Q862.601 39.4801 862.034 45.8805 L888.608 45.84 Z" fill="#000000" fill-rule="evenodd" fill-opacity="1" /><path clip-path="url(#clip750)" d="M938.15 34.0924 L938.15 9.54393 L945.604 9.54393 L945.604 72.576 L938.15 72.576 L938.15 65.7705 Q935.801 69.8214 932.196 71.8063 Q928.631 73.7508 923.608 73.7508 Q915.384 73.7508 910.199 67.1883 Q905.054 60.6258 905.054 49.9314 Q905.054 39.2371 910.199 32.6746 Q915.384 26.1121 923.608 26.1121 Q928.631 26.1121 932.196 28.0971 Q935.801 30.0415 938.15 34.0924 M912.751 49.9314 Q912.751 58.1548 916.113 62.8538 Q919.516 67.5124 925.43 67.5124 Q931.345 67.5124 934.748 62.8538 Q938.15 58.1548 938.15 49.9314 Q938.15 41.7081 934.748 37.0496 Q931.345 32.3505 925.43 32.3505 Q919.516 32.3505 916.113 37.0496 Q912.751 41.7081 912.751 49.9314 Z" fill="#000000" fill-rule="evenodd" fill-opacity="1" /><path clip-path="url(#clip750)" d="M995.835 18.8205 L995.835 65.8515 L1005.72 65.8515 Q1018.24 65.8515 1024.03 60.1802 Q1029.86 54.509 1029.86 42.2752 Q1029.86 30.1225 1024.03 24.4918 Q1018.24 18.8205 1005.72 18.8205 L995.835 18.8205 M987.652 12.096 L1004.46 12.096 Q1022.04 12.096 1030.27 19.4281 Q1038.49 26.7198 1038.49 42.2752 Q1038.49 57.9117 1030.23 65.2439 Q1021.96 72.576 1004.46 72.576 L987.652 72.576 L987.652 12.096 Z" fill="#000000" fill-rule="evenodd" fill-opacity="1" /><path clip-path="url(#clip750)" d="M1090.02 48.0275 L1090.02 51.6733 L1055.75 51.6733 Q1056.23 59.3701 1060.37 63.421 Q1064.54 67.4314 1071.95 67.4314 Q1076.25 67.4314 1080.26 66.3781 Q1084.31 65.3249 1088.28 63.2184 L1088.28 70.267 Q1084.27 71.9684 1080.05 72.8596 Q1075.84 73.7508 1071.51 73.7508 Q1060.65 73.7508 1054.29 67.4314 Q1047.97 61.1119 1047.97 50.3365 Q1047.97 39.1965 1053.97 32.6746 Q1060 26.1121 1070.21 26.1121 Q1079.36 26.1121 1084.67 32.0264 Q1090.02 37.9003 1090.02 48.0275 M1082.57 45.84 Q1082.48 39.7232 1079.12 36.0774 Q1075.8 32.4315 1070.29 32.4315 Q1064.05 32.4315 1060.29 35.9558 Q1056.56 39.4801 1055.99 45.8805 L1082.57 45.84 Z" fill="#000000" fill-rule="evenodd" fill-opacity="1" /><path clip-path="url(#clip750)" d="M1139.97 45.1919 L1139.97 72.576 L1132.51 72.576 L1132.51 45.4349 Q1132.51 38.994 1130 35.7938 Q1127.49 32.5936 1122.47 32.5936 Q1116.43 32.5936 1112.95 36.4419 Q1109.46 40.2903 1109.46 46.9338 L1109.46 72.576 L1101.97 72.576 L1101.97 27.2059 L1109.46 27.2059 L1109.46 34.2544 Q1112.14 30.163 1115.74 28.1376 Q1119.39 26.1121 1124.13 26.1121 Q1131.95 26.1121 1135.96 30.9732 Q1139.97 35.7938 1139.97 45.1919 Z" fill="#000000" fill-rule="evenodd" fill-opacity="1" /><path clip-path="url(#clip750)" d="M1183.76 28.5427 L1183.76 35.5912 Q1180.6 33.9709 1177.19 33.1607 Q1173.79 32.3505 1170.15 32.3505 Q1164.6 32.3505 1161.8 34.0519 Q1159.05 35.7533 1159.05 39.156 Q1159.05 41.7486 1161.03 43.2475 Q1163.02 44.7058 1169.01 46.0426 L1171.56 46.6097 Q1179.5 48.3111 1182.82 51.4303 Q1186.19 54.509 1186.19 60.0587 Q1186.19 66.3781 1181.16 70.0644 Q1176.18 73.7508 1167.43 73.7508 Q1163.79 73.7508 1159.82 73.0216 Q1155.89 72.3329 1151.51 70.9151 L1151.51 63.2184 Q1155.64 65.3654 1159.65 66.4591 Q1163.66 67.5124 1167.59 67.5124 Q1172.86 67.5124 1175.7 65.73 Q1178.53 63.9071 1178.53 60.6258 Q1178.53 57.5877 1176.47 55.9673 Q1174.44 54.3469 1167.51 52.8481 L1164.92 52.2405 Q1157.99 50.7821 1154.91 47.7845 Q1151.84 44.7463 1151.84 39.4801 Q1151.84 33.0797 1156.37 29.5959 Q1160.91 26.1121 1169.25 26.1121 Q1173.39 26.1121 1177.03 26.7198 Q1180.68 27.3274 1183.76 28.5427 Z" fill="#000000" fill-rule="evenodd" fill-opacity="1" /><path clip-path="url(#clip750)" d="M1198.06 27.2059 L1205.51 27.2059 L1205.51 72.576 L1198.06 72.576 L1198.06 27.2059 M1198.06 9.54393 L1205.51 9.54393 L1205.51 18.9825 L1198.06 18.9825 L1198.06 9.54393 Z" fill="#000000" fill-rule="evenodd" fill-opacity="1" /><path clip-path="url(#clip750)" d="M1228.48 14.324 L1228.48 27.2059 L1243.83 27.2059 L1243.83 32.9987 L1228.48 32.9987 L1228.48 57.6282 Q1228.48 63.1779 1229.98 64.7578 Q1231.52 66.3376 1236.18 66.3376 L1243.83 66.3376 L1243.83 72.576 L1236.18 72.576 Q1227.55 72.576 1224.27 69.3758 Q1220.98 66.1351 1220.98 57.6282 L1220.98 32.9987 L1215.52 32.9987 L1215.52 27.2059 L1220.98 27.2059 L1220.98 14.324 L1228.48 14.324 Z" fill="#000000" fill-rule="evenodd" fill-opacity="1" /><path clip-path="url(#clip750)" d="M1272.51 76.7889 Q1269.35 84.8907 1266.35 87.3618 Q1263.36 89.8329 1258.33 89.8329 L1252.38 89.8329 L1252.38 83.5945 L1256.75 83.5945 Q1259.83 83.5945 1261.53 82.1361 Q1263.24 80.6778 1265.3 75.2496 L1266.64 71.8468 L1248.29 27.2059 L1256.19 27.2059 L1270.36 62.6918 L1284.54 27.2059 L1292.44 27.2059 L1272.51 76.7889 Z" fill="#000000" fill-rule="evenodd" fill-opacity="1" /><path clip-path="url(#clip750)" d="M1323.76 27.2059 L1331.66 27.2059 L1345.83 65.2844 L1360.01 27.2059 L1367.91 27.2059 L1350.9 72.576 L1340.77 72.576 L1323.76 27.2059 Z" fill="#000000" fill-rule="evenodd" fill-opacity="1" /><path clip-path="url(#clip750)" d="M1407.12 28.5427 L1407.12 35.5912 Q1403.96 33.9709 1400.56 33.1607 Q1397.16 32.3505 1393.51 32.3505 Q1387.96 32.3505 1385.17 34.0519 Q1382.41 35.7533 1382.41 39.156 Q1382.41 41.7486 1384.4 43.2475 Q1386.38 44.7058 1392.38 46.0426 L1394.93 46.6097 Q1402.87 48.3111 1406.19 51.4303 Q1409.55 54.509 1409.55 60.0587 Q1409.55 66.3781 1404.53 70.0644 Q1399.55 73.7508 1390.8 73.7508 Q1387.15 73.7508 1383.18 73.0216 Q1379.25 72.3329 1374.88 70.9151 L1374.88 63.2184 Q1379.01 65.3654 1383.02 66.4591 Q1387.03 67.5124 1390.96 67.5124 Q1396.23 67.5124 1399.06 65.73 Q1401.9 63.9071 1401.9 60.6258 Q1401.9 57.5877 1399.83 55.9673 Q1397.81 54.3469 1390.88 52.8481 L1388.29 52.2405 Q1381.36 50.7821 1378.28 47.7845 Q1375.2 44.7463 1375.2 39.4801 Q1375.2 33.0797 1379.74 29.5959 Q1384.28 26.1121 1392.62 26.1121 Q1396.75 26.1121 1400.4 26.7198 Q1404.04 27.3274 1407.12 28.5427 Z" fill="#000000" fill-rule="evenodd" fill-opacity="1" /><path clip-path="url(#clip750)" d="M1468.33 20.1573 L1457.23 50.2555 L1479.47 50.2555 L1468.33 20.1573 M1463.71 12.096 L1472.99 12.096 L1496.04 72.576 L1487.53 72.576 L1482.02 57.061 L1454.76 57.061 L1449.25 72.576 L1440.62 72.576 L1463.71 12.096 Z" fill="#000000" fill-rule="evenodd" fill-opacity="1" /><path clip-path="url(#clip750)" d="M1532.94 34.0924 L1532.94 9.54393 L1540.4 9.54393 L1540.4 72.576 L1532.94 72.576 L1532.94 65.7705 Q1530.6 69.8214 1526.99 71.8063 Q1523.42 73.7508 1518.4 73.7508 Q1510.18 73.7508 1504.99 67.1883 Q1499.85 60.6258 1499.85 49.9314 Q1499.85 39.2371 1504.99 32.6746 Q1510.18 26.1121 1518.4 26.1121 Q1523.42 26.1121 1526.99 28.0971 Q1530.6 30.0415 1532.94 34.0924 M1507.55 49.9314 Q1507.55 58.1548 1510.91 62.8538 Q1514.31 67.5124 1520.22 67.5124 Q1526.14 67.5124 1529.54 62.8538 Q1532.94 58.1548 1532.94 49.9314 Q1532.94 41.7081 1529.54 37.0496 Q1526.14 32.3505 1520.22 32.3505 Q1514.31 32.3505 1510.91 37.0496 Q1507.55 41.7081 1507.55 49.9314 Z" fill="#000000" fill-rule="evenodd" fill-opacity="1" /><path clip-path="url(#clip750)" d="M1555.75 27.2059 L1563.2 27.2059 L1563.2 72.576 L1555.75 72.576 L1555.75 27.2059 M1555.75 9.54393 L1563.2 9.54393 L1563.2 18.9825 L1555.75 18.9825 L1555.75 9.54393 Z" fill="#000000" fill-rule="evenodd" fill-opacity="1" /><path clip-path="url(#clip750)" d="M1586.01 65.7705 L1586.01 89.8329 L1578.52 89.8329 L1578.52 27.2059 L1586.01 27.2059 L1586.01 34.0924 Q1588.36 30.0415 1591.93 28.0971 Q1595.53 26.1121 1600.51 26.1121 Q1608.78 26.1121 1613.92 32.6746 Q1619.11 39.2371 1619.11 49.9314 Q1619.11 60.6258 1613.92 67.1883 Q1608.78 73.7508 1600.51 73.7508 Q1595.53 73.7508 1591.93 71.8063 Q1588.36 69.8214 1586.01 65.7705 M1611.37 49.9314 Q1611.37 41.7081 1607.97 37.0496 Q1604.61 32.3505 1598.69 32.3505 Q1592.78 32.3505 1589.37 37.0496 Q1586.01 41.7081 1586.01 49.9314 Q1586.01 58.1548 1589.37 62.8538 Q1592.78 67.5124 1598.69 67.5124 Q1604.61 67.5124 1607.97 62.8538 Q1611.37 58.1548 1611.37 49.9314 Z" fill="#000000" fill-rule="evenodd" fill-opacity="1" /><path clip-path="url(#clip750)" d="M1649.04 32.4315 Q1643.05 32.4315 1639.56 37.1306 Q1636.08 41.7891 1636.08 49.9314 Q1636.08 58.0738 1639.52 62.7728 Q1643.01 67.4314 1649.04 67.4314 Q1655 67.4314 1658.48 62.7323 Q1661.97 58.0333 1661.97 49.9314 Q1661.97 41.8701 1658.48 37.1711 Q1655 32.4315 1649.04 32.4315 M1649.04 26.1121 Q1658.77 26.1121 1664.32 32.4315 Q1669.87 38.7509 1669.87 49.9314 Q1669.87 61.0714 1664.32 67.4314 Q1658.77 73.7508 1649.04 73.7508 Q1639.28 73.7508 1633.73 67.4314 Q1628.22 61.0714 1628.22 49.9314 Q1628.22 38.7509 1633.73 32.4315 Q1639.28 26.1121 1649.04 26.1121 Z" fill="#000000" fill-rule="evenodd" fill-opacity="1" /><path clip-path="url(#clip750)" d="M1711.14 28.5427 L1711.14 35.5912 Q1707.98 33.9709 1704.58 33.1607 Q1701.18 32.3505 1697.53 32.3505 Q1691.98 32.3505 1689.19 34.0519 Q1686.43 35.7533 1686.43 39.156 Q1686.43 41.7486 1688.42 43.2475 Q1690.4 44.7058 1696.4 46.0426 L1698.95 46.6097 Q1706.89 48.3111 1710.21 51.4303 Q1713.57 54.509 1713.57 60.0587 Q1713.57 66.3781 1708.55 70.0644 Q1703.57 73.7508 1694.82 73.7508 Q1691.17 73.7508 1687.2 73.0216 Q1683.27 72.3329 1678.9 70.9151 L1678.9 63.2184 Q1683.03 65.3654 1687.04 66.4591 Q1691.05 67.5124 1694.98 67.5124 Q1700.25 67.5124 1703.08 65.73 Q1705.92 63.9071 1705.92 60.6258 Q1705.92 57.5877 1703.85 55.9673 Q1701.83 54.3469 1694.9 52.8481 L1692.31 52.2405 Q1685.38 50.7821 1682.3 47.7845 Q1679.22 44.7463 1679.22 39.4801 Q1679.22 33.0797 1683.76 29.5959 Q1688.3 26.1121 1696.64 26.1121 Q1700.77 26.1121 1704.42 26.7198 Q1708.07 27.3274 1711.14 28.5427 Z" fill="#000000" fill-rule="evenodd" fill-opacity="1" /><path clip-path="url(#clip750)" d="M1725.44 27.2059 L1732.9 27.2059 L1732.9 72.576 L1725.44 72.576 L1725.44 27.2059 M1725.44 9.54393 L1732.9 9.54393 L1732.9 18.9825 L1725.44 18.9825 L1725.44 9.54393 Z" fill="#000000" fill-rule="evenodd" fill-opacity="1" /><path clip-path="url(#clip750)" d="M1755.87 14.324 L1755.87 27.2059 L1771.22 27.2059 L1771.22 32.9987 L1755.87 32.9987 L1755.87 57.6282 Q1755.87 63.1779 1757.36 64.7578 Q1758.9 66.3376 1763.56 66.3376 L1771.22 66.3376 L1771.22 72.576 L1763.56 72.576 Q1754.93 72.576 1751.65 69.3758 Q1748.37 66.1351 1748.37 57.6282 L1748.37 32.9987 L1742.9 32.9987 L1742.9 27.2059 L1748.37 27.2059 L1748.37 14.324 L1755.87 14.324 Z" fill="#000000" fill-rule="evenodd" fill-opacity="1" /><path clip-path="url(#clip750)" d="M1799.9 76.7889 Q1796.74 84.8907 1793.74 87.3618 Q1790.74 89.8329 1785.72 89.8329 L1779.77 89.8329 L1779.77 83.5945 L1784.14 83.5945 Q1787.22 83.5945 1788.92 82.1361 Q1790.62 80.6778 1792.69 75.2496 L1794.03 71.8468 L1775.67 27.2059 L1783.57 27.2059 L1797.75 62.6918 L1811.93 27.2059 L1819.83 27.2059 L1799.9 76.7889 Z" fill="#000000" fill-rule="evenodd" fill-opacity="1" /><path clip-path="url(#clip750)" d="M1856.81 12.096 L1865 12.096 L1865 72.576 L1856.81 72.576 L1856.81 12.096 Z" fill="#000000" fill-rule="evenodd" fill-opacity="1" /><path clip-path="url(#clip750)" d="M1918.67 45.1919 L1918.67 72.576 L1911.22 72.576 L1911.22 45.4349 Q1911.22 38.994 1908.71 35.7938 Q1906.19 32.5936 1901.17 32.5936 Q1895.14 32.5936 1891.65 36.4419 Q1888.17 40.2903 1888.17 46.9338 L1888.17 72.576 L1880.67 72.576 L1880.67 27.2059 L1888.17 27.2059 L1888.17 34.2544 Q1890.84 30.163 1894.45 28.1376 Q1898.09 26.1121 1902.83 26.1121 Q1910.65 26.1121 1914.66 30.9732 Q1918.67 35.7938 1918.67 45.1919 Z" fill="#000000" fill-rule="evenodd" fill-opacity="1" /><path clip-path="url(#clip750)" d="M1963.39 34.0924 L1963.39 9.54393 L1970.85 9.54393 L1970.85 72.576 L1963.39 72.576 L1963.39 65.7705 Q1961.04 69.8214 1957.44 71.8063 Q1953.87 73.7508 1948.85 73.7508 Q1940.63 73.7508 1935.44 67.1883 Q1930.3 60.6258 1930.3 49.9314 Q1930.3 39.2371 1935.44 32.6746 Q1940.63 26.1121 1948.85 26.1121 Q1953.87 26.1121 1957.44 28.0971 Q1961.04 30.0415 1963.39 34.0924 M1937.99 49.9314 Q1937.99 58.1548 1941.36 62.8538 Q1944.76 67.5124 1950.67 67.5124 Q1956.59 67.5124 1959.99 62.8538 Q1963.39 58.1548 1963.39 49.9314 Q1963.39 41.7081 1959.99 37.0496 Q1956.59 32.3505 1950.67 32.3505 Q1944.76 32.3505 1941.36 37.0496 Q1937.99 41.7081 1937.99 49.9314 Z" fill="#000000" fill-rule="evenodd" fill-opacity="1" /><path clip-path="url(#clip750)" d="M2025.01 48.0275 L2025.01 51.6733 L1990.74 51.6733 Q1991.22 59.3701 1995.36 63.421 Q1999.53 67.4314 2006.94 67.4314 Q2011.23 67.4314 2015.25 66.3781 Q2019.3 65.3249 2023.27 63.2184 L2023.27 70.267 Q2019.26 71.9684 2015.04 72.8596 Q2010.83 73.7508 2006.5 73.7508 Q1995.64 73.7508 1989.28 67.4314 Q1982.96 61.1119 1982.96 50.3365 Q1982.96 39.1965 1988.95 32.6746 Q1994.99 26.1121 2005.2 26.1121 Q2014.35 26.1121 2019.66 32.0264 Q2025.01 37.9003 2025.01 48.0275 M2017.55 45.84 Q2017.47 39.7232 2014.11 36.0774 Q2010.79 32.4315 2005.28 32.4315 Q1999.04 32.4315 1995.27 35.9558 Q1991.55 39.4801 1990.98 45.8805 L2017.55 45.84 Z" fill="#000000" fill-rule="evenodd" fill-opacity="1" /><path clip-path="url(#clip750)" d="M2073.5 27.2059 L2057.09 49.2833 L2074.35 72.576 L2065.56 72.576 L2052.35 54.752 L2039.15 72.576 L2030.36 72.576 L2047.98 48.8377 L2031.85 27.2059 L2040.64 27.2059 L2052.68 43.369 L2064.71 27.2059 L2073.5 27.2059 Z" fill="#000000" fill-rule="evenodd" fill-opacity="1" /><circle clip-path="url(#clip752)" cx="982.334" cy="570.405" r="14.4" fill="#009af9" fill-rule="evenodd" fill-opacity="1" stroke="#000000" stroke-opacity="1" stroke-width="3.2"/>
<circle clip-path="url(#clip752)" cx="639.09" cy="414.312" r="14.4" fill="#009af9" fill-rule="evenodd" fill-opacity="1" stroke="#000000" stroke-opacity="1" stroke-width="3.2"/>
<circle clip-path="url(#clip752)" cx="1129.82" cy="886.897" r="14.4" fill="#009af9" fill-rule="evenodd" fill-opacity="1" stroke="#000000" stroke-opacity="1" stroke-width="3.2"/>
<circle clip-path="url(#clip752)" cx="689.596" cy="524.115" r="14.4" fill="#009af9" fill-rule="evenodd" fill-opacity="1" stroke="#000000" stroke-opacity="1" stroke-width="3.2"/>
<circle clip-path="url(#clip752)" cx="1720.88" cy="966.559" r="14.4" fill="#009af9" fill-rule="evenodd" fill-opacity="1" stroke="#000000" stroke-opacity="1" stroke-width="3.2"/>
<circle clip-path="url(#clip752)" cx="960.481" cy="792.165" r="14.4" fill="#009af9" fill-rule="evenodd" fill-opacity="1" stroke="#000000" stroke-opacity="1" stroke-width="3.2"/>
<circle clip-path="url(#clip752)" cx="962.554" cy="741.569" r="14.4" fill="#009af9" fill-rule="evenodd" fill-opacity="1" stroke="#000000" stroke-opacity="1" stroke-width="3.2"/>
<circle clip-path="url(#clip752)" cx="1023.71" cy="574.711" r="14.4" fill="#009af9" fill-rule="evenodd" fill-opacity="1" stroke="#000000" stroke-opacity="1" stroke-width="3.2"/>
<circle clip-path="url(#clip752)" cx="382.36" cy="363.716" r="14.4" fill="#009af9" fill-rule="evenodd" fill-opacity="1" stroke="#000000" stroke-opacity="1" stroke-width="3.2"/>
<circle clip-path="url(#clip752)" cx="679.814" cy="555.334" r="14.4" fill="#009af9" fill-rule="evenodd" fill-opacity="1" stroke="#000000" stroke-opacity="1" stroke-width="3.2"/>
<circle clip-path="url(#clip752)" cx="554.954" cy="439.071" r="14.4" fill="#009af9" fill-rule="evenodd" fill-opacity="1" stroke="#000000" stroke-opacity="1" stroke-width="3.2"/>
<circle clip-path="url(#clip752)" cx="676.505" cy="458.448" r="14.4" fill="#009af9" fill-rule="evenodd" fill-opacity="1" stroke="#000000" stroke-opacity="1" stroke-width="3.2"/>
<circle clip-path="url(#clip752)" cx="1028.46" cy="780.323" r="14.4" fill="#009af9" fill-rule="evenodd" fill-opacity="1" stroke="#000000" stroke-opacity="1" stroke-width="3.2"/>
<circle clip-path="url(#clip752)" cx="1427.55" cy="788.935" r="14.4" fill="#009af9" fill-rule="evenodd" fill-opacity="1" stroke="#000000" stroke-opacity="1" stroke-width="3.2"/>
<circle clip-path="url(#clip752)" cx="1256.2" cy="811.542" r="14.4" fill="#009af9" fill-rule="evenodd" fill-opacity="1" stroke="#000000" stroke-opacity="1" stroke-width="3.2"/>
<circle clip-path="url(#clip752)" cx="1313.17" cy="781.4" r="14.4" fill="#009af9" fill-rule="evenodd" fill-opacity="1" stroke="#000000" stroke-opacity="1" stroke-width="3.2"/>
<circle clip-path="url(#clip752)" cx="1180.71" cy="974.094" r="14.4" fill="#009af9" fill-rule="evenodd" fill-opacity="1" stroke="#000000" stroke-opacity="1" stroke-width="3.2"/>
<circle clip-path="url(#clip752)" cx="1022.82" cy="828.766" r="14.4" fill="#009af9" fill-rule="evenodd" fill-opacity="1" stroke="#000000" stroke-opacity="1" stroke-width="3.2"/>
<circle clip-path="url(#clip752)" cx="733.915" cy="662.984" r="14.4" fill="#009af9" fill-rule="evenodd" fill-opacity="1" stroke="#000000" stroke-opacity="1" stroke-width="3.2"/>
<circle clip-path="url(#clip752)" cx="1327.88" cy="675.902" r="14.4" fill="#009af9" fill-rule="evenodd" fill-opacity="1" stroke="#000000" stroke-opacity="1" stroke-width="3.2"/>
<circle clip-path="url(#clip752)" cx="1314.7" cy="739.416" r="14.4" fill="#009af9" fill-rule="evenodd" fill-opacity="1" stroke="#000000" stroke-opacity="1" stroke-width="3.2"/>
<circle clip-path="url(#clip752)" cx="1208.11" cy="643.607" r="14.4" fill="#009af9" fill-rule="evenodd" fill-opacity="1" stroke="#000000" stroke-opacity="1" stroke-width="3.2"/>
<circle clip-path="url(#clip752)" cx="603.772" cy="653.296" r="14.4" fill="#009af9" fill-rule="evenodd" fill-opacity="1" stroke="#000000" stroke-opacity="1" stroke-width="3.2"/>
<circle clip-path="url(#clip752)" cx="790.198" cy="703.891" r="14.4" fill="#009af9" fill-rule="evenodd" fill-opacity="1" stroke="#000000" stroke-opacity="1" stroke-width="3.2"/>
<circle clip-path="url(#clip752)" cx="350.537" cy="613.465" r="14.4" fill="#009af9" fill-rule="evenodd" fill-opacity="1" stroke="#000000" stroke-opacity="1" stroke-width="3.2"/>
<circle clip-path="url(#clip752)" cx="616.3" cy="351.874" r="14.4" fill="#009af9" fill-rule="evenodd" fill-opacity="1" stroke="#000000" stroke-opacity="1" stroke-width="3.2"/>
<circle clip-path="url(#clip752)" cx="621.395" cy="459.525" r="14.4" fill="#009af9" fill-rule="evenodd" fill-opacity="1" stroke="#000000" stroke-opacity="1" stroke-width="3.2"/>
<circle clip-path="url(#clip752)" cx="1417.58" cy="828.766" r="14.4" fill="#009af9" fill-rule="evenodd" fill-opacity="1" stroke="#000000" stroke-opacity="1" stroke-width="3.2"/>
<circle clip-path="url(#clip752)" cx="400.622" cy="352.951" r="14.4" fill="#009af9" fill-rule="evenodd" fill-opacity="1" stroke="#000000" stroke-opacity="1" stroke-width="3.2"/>
<circle clip-path="url(#clip752)" cx="769.511" cy="482.131" r="14.4" fill="#009af9" fill-rule="evenodd" fill-opacity="1" stroke="#000000" stroke-opacity="1" stroke-width="3.2"/>
<circle clip-path="url(#clip752)" cx="982.131" cy="561.793" r="14.4" fill="#009af9" fill-rule="evenodd" fill-opacity="1" stroke="#000000" stroke-opacity="1" stroke-width="3.2"/>
<circle clip-path="url(#clip752)" cx="967.482" cy="404.623" r="14.4" fill="#009af9" fill-rule="evenodd" fill-opacity="1" stroke="#000000" stroke-opacity="1" stroke-width="3.2"/>
<circle clip-path="url(#clip752)" cx="400.404" cy="558.563" r="14.4" fill="#009af9" fill-rule="evenodd" fill-opacity="1" stroke="#000000" stroke-opacity="1" stroke-width="3.2"/>
<circle clip-path="url(#clip752)" cx="1084.27" cy="792.165" r="14.4" fill="#009af9" fill-rule="evenodd" fill-opacity="1" stroke="#000000" stroke-opacity="1" stroke-width="3.2"/>
<circle clip-path="url(#clip752)" cx="1835.68" cy="1049.45" r="14.4" fill="#009af9" fill-rule="evenodd" fill-opacity="1" stroke="#000000" stroke-opacity="1" stroke-width="3.2"/>
<circle clip-path="url(#clip752)" cx="2231.36" cy="1223.84" r="14.4" fill="#009af9" fill-rule="evenodd" fill-opacity="1" stroke="#000000" stroke-opacity="1" stroke-width="3.2"/>
<circle clip-path="url(#clip752)" cx="1347.21" cy="861.061" r="14.4" fill="#009af9" fill-rule="evenodd" fill-opacity="1" stroke="#000000" stroke-opacity="1" stroke-width="3.2"/>
<circle clip-path="url(#clip752)" cx="1197.56" cy="960.1" r="14.4" fill="#009af9" fill-rule="evenodd" fill-opacity="1" stroke="#000000" stroke-opacity="1" stroke-width="3.2"/>
<circle clip-path="url(#clip752)" cx="2261.43" cy="1115.12" r="14.4" fill="#009af9" fill-rule="evenodd" fill-opacity="1" stroke="#000000" stroke-opacity="1" stroke-width="3.2"/>
<circle clip-path="url(#clip752)" cx="1709.78" cy="1054.83" r="14.4" fill="#009af9" fill-rule="evenodd" fill-opacity="1" stroke="#000000" stroke-opacity="1" stroke-width="3.2"/>
<circle clip-path="url(#clip752)" cx="2047.57" cy="1098.97" r="14.4" fill="#009af9" fill-rule="evenodd" fill-opacity="1" stroke="#000000" stroke-opacity="1" stroke-width="3.2"/>
<circle clip-path="url(#clip752)" cx="1853.45" cy="1032.23" r="14.4" fill="#009af9" fill-rule="evenodd" fill-opacity="1" stroke="#000000" stroke-opacity="1" stroke-width="3.2"/>
<circle clip-path="url(#clip752)" cx="1505.31" cy="1042.99" r="14.4" fill="#009af9" fill-rule="evenodd" fill-opacity="1" stroke="#000000" stroke-opacity="1" stroke-width="3.2"/>
<circle clip-path="url(#clip752)" cx="925.25" cy="456.295" r="14.4" fill="#009af9" fill-rule="evenodd" fill-opacity="1" stroke="#000000" stroke-opacity="1" stroke-width="3.2"/>
<circle clip-path="url(#clip752)" cx="736.286" cy="611.312" r="14.4" fill="#009af9" fill-rule="evenodd" fill-opacity="1" stroke="#000000" stroke-opacity="1" stroke-width="3.2"/>
<circle clip-path="url(#clip752)" cx="501.39" cy="533.804" r="14.4" fill="#009af9" fill-rule="evenodd" fill-opacity="1" stroke="#000000" stroke-opacity="1" stroke-width="3.2"/>
<circle clip-path="url(#clip752)" cx="812.7" cy="616.694" r="14.4" fill="#009af9" fill-rule="evenodd" fill-opacity="1" stroke="#000000" stroke-opacity="1" stroke-width="3.2"/>
<circle clip-path="url(#clip752)" cx="1332.16" cy="602.7" r="14.4" fill="#009af9" fill-rule="evenodd" fill-opacity="1" stroke="#000000" stroke-opacity="1" stroke-width="3.2"/>
<circle clip-path="url(#clip752)" cx="336.351" cy="360.486" r="14.4" fill="#009af9" fill-rule="evenodd" fill-opacity="1" stroke="#000000" stroke-opacity="1" stroke-width="3.2"/>
<circle clip-path="url(#clip752)" cx="1247.36" cy="518.733" r="14.4" fill="#009af9" fill-rule="evenodd" fill-opacity="1" stroke="#000000" stroke-opacity="1" stroke-width="3.2"/>
<circle clip-path="url(#clip752)" cx="784.979" cy="428.306" r="14.4" fill="#009af9" fill-rule="evenodd" fill-opacity="1" stroke="#000000" stroke-opacity="1" stroke-width="3.2"/>
<circle clip-path="url(#clip752)" cx="1124.67" cy="463.831" r="14.4" fill="#009af9" fill-rule="evenodd" fill-opacity="1" stroke="#000000" stroke-opacity="1" stroke-width="3.2"/>
<circle clip-path="url(#clip752)" cx="830.525" cy="419.694" r="14.4" fill="#009af9" fill-rule="evenodd" fill-opacity="1" stroke="#000000" stroke-opacity="1" stroke-width="3.2"/>
<circle clip-path="url(#clip752)" cx="759.177" cy="357.257" r="14.4" fill="#009af9" fill-rule="evenodd" fill-opacity="1" stroke="#000000" stroke-opacity="1" stroke-width="3.2"/>
<circle clip-path="url(#clip752)" cx="1469.88" cy="823.383" r="14.4" fill="#009af9" fill-rule="evenodd" fill-opacity="1" stroke="#000000" stroke-opacity="1" stroke-width="3.2"/>
<circle clip-path="url(#clip752)" cx="1573.49" cy="768.482" r="14.4" fill="#009af9" fill-rule="evenodd" fill-opacity="1" stroke="#000000" stroke-opacity="1" stroke-width="3.2"/>
<circle clip-path="url(#clip752)" cx="1593.09" cy="949.335" r="14.4" fill="#009af9" fill-rule="evenodd" fill-opacity="1" stroke="#000000" stroke-opacity="1" stroke-width="3.2"/>
<circle clip-path="url(#clip752)" cx="1728.45" cy="1031.15" r="14.4" fill="#009af9" fill-rule="evenodd" fill-opacity="1" stroke="#000000" stroke-opacity="1" stroke-width="3.2"/>
<circle clip-path="url(#clip752)" cx="1359.08" cy="869.673" r="14.4" fill="#009af9" fill-rule="evenodd" fill-opacity="1" stroke="#000000" stroke-opacity="1" stroke-width="3.2"/>
<circle clip-path="url(#clip752)" cx="1565.86" cy="906.274" r="14.4" fill="#009af9" fill-rule="evenodd" fill-opacity="1" stroke="#000000" stroke-opacity="1" stroke-width="3.2"/>
<circle clip-path="url(#clip752)" cx="1252.63" cy="991.318" r="14.4" fill="#009af9" fill-rule="evenodd" fill-opacity="1" stroke="#000000" stroke-opacity="1" stroke-width="3.2"/>
<circle clip-path="url(#clip752)" cx="1660.75" cy="1011.77" r="14.4" fill="#009af9" fill-rule="evenodd" fill-opacity="1" stroke="#000000" stroke-opacity="1" stroke-width="3.2"/>
<circle clip-path="url(#clip752)" cx="1584.28" cy="898.739" r="14.4" fill="#009af9" fill-rule="evenodd" fill-opacity="1" stroke="#000000" stroke-opacity="1" stroke-width="3.2"/>
<circle clip-path="url(#clip752)" cx="1638.5" cy="1048.37" r="14.4" fill="#009af9" fill-rule="evenodd" fill-opacity="1" stroke="#000000" stroke-opacity="1" stroke-width="3.2"/>
<circle clip-path="url(#clip752)" cx="1539.75" cy="995.624" r="14.4" fill="#009af9" fill-rule="evenodd" fill-opacity="1" stroke="#000000" stroke-opacity="1" stroke-width="3.2"/>
<circle clip-path="url(#clip752)" cx="1090.02" cy="795.394" r="14.4" fill="#009af9" fill-rule="evenodd" fill-opacity="1" stroke="#000000" stroke-opacity="1" stroke-width="3.2"/>
<circle clip-path="url(#clip752)" cx="1283.47" cy="608.082" r="14.4" fill="#009af9" fill-rule="evenodd" fill-opacity="1" stroke="#000000" stroke-opacity="1" stroke-width="3.2"/>
<circle clip-path="url(#clip752)" cx="496.321" cy="420.771" r="14.4" fill="#009af9" fill-rule="evenodd" fill-opacity="1" stroke="#000000" stroke-opacity="1" stroke-width="3.2"/>
<circle clip-path="url(#clip752)" cx="1065.4" cy="586.552" r="14.4" fill="#009af9" fill-rule="evenodd" fill-opacity="1" stroke="#000000" stroke-opacity="1" stroke-width="3.2"/>
<circle clip-path="url(#clip752)" cx="1401.82" cy="859.985" r="14.4" fill="#009af9" fill-rule="evenodd" fill-opacity="1" stroke="#000000" stroke-opacity="1" stroke-width="3.2"/>
<circle clip-path="url(#clip752)" cx="1007.93" cy="484.284" r="14.4" fill="#009af9" fill-rule="evenodd" fill-opacity="1" stroke="#000000" stroke-opacity="1" stroke-width="3.2"/>
<circle clip-path="url(#clip752)" cx="943.858" cy="475.672" r="14.4" fill="#009af9" fill-rule="evenodd" fill-opacity="1" stroke="#000000" stroke-opacity="1" stroke-width="3.2"/>
<circle clip-path="url(#clip752)" cx="730.944" cy="600.547" r="14.4" fill="#009af9" fill-rule="evenodd" fill-opacity="1" stroke="#000000" stroke-opacity="1" stroke-width="3.2"/>
<circle clip-path="url(#clip752)" cx="984.623" cy="557.487" r="14.4" fill="#009af9" fill-rule="evenodd" fill-opacity="1" stroke="#000000" stroke-opacity="1" stroke-width="3.2"/>
<circle clip-path="url(#clip752)" cx="828.107" cy="615.618" r="14.4" fill="#009af9" fill-rule="evenodd" fill-opacity="1" stroke="#000000" stroke-opacity="1" stroke-width="3.2"/>
<circle clip-path="url(#clip752)" cx="402.767" cy="482.131" r="14.4" fill="#009af9" fill-rule="evenodd" fill-opacity="1" stroke="#000000" stroke-opacity="1" stroke-width="3.2"/>
<circle clip-path="url(#clip752)" cx="1297.54" cy="812.618" r="14.4" fill="#009af9" fill-rule="evenodd" fill-opacity="1" stroke="#000000" stroke-opacity="1" stroke-width="3.2"/>
<circle clip-path="url(#clip752)" cx="1827.49" cy="796.471" r="14.4" fill="#009af9" fill-rule="evenodd" fill-opacity="1" stroke="#000000" stroke-opacity="1" stroke-width="3.2"/>
<circle clip-path="url(#clip752)" cx="1790.89" cy="729.728" r="14.4" fill="#009af9" fill-rule="evenodd" fill-opacity="1" stroke="#000000" stroke-opacity="1" stroke-width="3.2"/>
<circle clip-path="url(#clip752)" cx="1644.85" cy="1027.92" r="14.4" fill="#009af9" fill-rule="evenodd" fill-opacity="1" stroke="#000000" stroke-opacity="1" stroke-width="3.2"/>
<circle clip-path="url(#clip752)" cx="1370.83" cy="921.345" r="14.4" fill="#009af9" fill-rule="evenodd" fill-opacity="1" stroke="#000000" stroke-opacity="1" stroke-width="3.2"/>
<circle clip-path="url(#clip752)" cx="1492.89" cy="721.115" r="14.4" fill="#009af9" fill-rule="evenodd" fill-opacity="1" stroke="#000000" stroke-opacity="1" stroke-width="3.2"/>
<circle clip-path="url(#clip752)" cx="1530.49" cy="926.728" r="14.4" fill="#009af9" fill-rule="evenodd" fill-opacity="1" stroke="#000000" stroke-opacity="1" stroke-width="3.2"/>
<circle clip-path="url(#clip752)" cx="1980.44" cy="925.651" r="14.4" fill="#009af9" fill-rule="evenodd" fill-opacity="1" stroke="#000000" stroke-opacity="1" stroke-width="3.2"/>
<circle clip-path="url(#clip752)" cx="1051.79" cy="917.039" r="14.4" fill="#009af9" fill-rule="evenodd" fill-opacity="1" stroke="#000000" stroke-opacity="1" stroke-width="3.2"/>
<circle clip-path="url(#clip752)" cx="1113.46" cy="634.995" r="14.4" fill="#009af9" fill-rule="evenodd" fill-opacity="1" stroke="#000000" stroke-opacity="1" stroke-width="3.2"/>
<circle clip-path="url(#clip752)" cx="1207.77" cy="835.225" r="14.4" fill="#009af9" fill-rule="evenodd" fill-opacity="1" stroke="#000000" stroke-opacity="1" stroke-width="3.2"/>
<circle clip-path="url(#clip752)" cx="814.09" cy="471.366" r="14.4" fill="#009af9" fill-rule="evenodd" fill-opacity="1" stroke="#000000" stroke-opacity="1" stroke-width="3.2"/>
<circle clip-path="url(#clip752)" cx="889.95" cy="615.618" r="14.4" fill="#009af9" fill-rule="evenodd" fill-opacity="1" stroke="#000000" stroke-opacity="1" stroke-width="3.2"/>
<circle clip-path="url(#clip752)" cx="1446.01" cy="772.788" r="14.4" fill="#009af9" fill-rule="evenodd" fill-opacity="1" stroke="#000000" stroke-opacity="1" stroke-width="3.2"/>
<circle clip-path="url(#clip752)" cx="1167.53" cy="715.733" r="14.4" fill="#009af9" fill-rule="evenodd" fill-opacity="1" stroke="#000000" stroke-opacity="1" stroke-width="3.2"/>
<circle clip-path="url(#clip752)" cx="718.759" cy="476.749" r="14.4" fill="#009af9" fill-rule="evenodd" fill-opacity="1" stroke="#000000" stroke-opacity="1" stroke-width="3.2"/>
<circle clip-path="url(#clip752)" cx="1368.54" cy="876.132" r="14.4" fill="#009af9" fill-rule="evenodd" fill-opacity="1" stroke="#000000" stroke-opacity="1" stroke-width="3.2"/>
<circle clip-path="url(#clip752)" cx="982.425" cy="487.514" r="14.4" fill="#009af9" fill-rule="evenodd" fill-opacity="1" stroke="#000000" stroke-opacity="1" stroke-width="3.2"/>
<circle clip-path="url(#clip752)" cx="1221.44" cy="265.754" r="14.4" fill="#009af9" fill-rule="evenodd" fill-opacity="1" stroke="#000000" stroke-opacity="1" stroke-width="3.2"/>
<circle clip-path="url(#clip752)" cx="1056.19" cy="503.661" r="14.4" fill="#009af9" fill-rule="evenodd" fill-opacity="1" stroke="#000000" stroke-opacity="1" stroke-width="3.2"/>
<circle clip-path="url(#clip752)" cx="860.253" cy="546.722" r="14.4" fill="#009af9" fill-rule="evenodd" fill-opacity="1" stroke="#000000" stroke-opacity="1" stroke-width="3.2"/>
<circle clip-path="url(#clip752)" cx="1204.56" cy="706.044" r="14.4" fill="#009af9" fill-rule="evenodd" fill-opacity="1" stroke="#000000" stroke-opacity="1" stroke-width="3.2"/>
<circle clip-path="url(#clip752)" cx="1027.03" cy="811.542" r="14.4" fill="#009af9" fill-rule="evenodd" fill-opacity="1" stroke="#000000" stroke-opacity="1" stroke-width="3.2"/>
<circle clip-path="url(#clip752)" cx="1149.28" cy="787.859" r="14.4" fill="#009af9" fill-rule="evenodd" fill-opacity="1" stroke="#000000" stroke-opacity="1" stroke-width="3.2"/>
<circle clip-path="url(#clip752)" cx="1329.52" cy="768.482" r="14.4" fill="#009af9" fill-rule="evenodd" fill-opacity="1" stroke="#000000" stroke-opacity="1" stroke-width="3.2"/>
<circle clip-path="url(#clip752)" cx="1083.92" cy="762.023" r="14.4" fill="#009af9" fill-rule="evenodd" fill-opacity="1" stroke="#000000" stroke-opacity="1" stroke-width="3.2"/>
<circle clip-path="url(#clip752)" cx="1232.96" cy="815.848" r="14.4" fill="#009af9" fill-rule="evenodd" fill-opacity="1" stroke="#000000" stroke-opacity="1" stroke-width="3.2"/>
<circle clip-path="url(#clip752)" cx="1651.91" cy="889.05" r="14.4" fill="#009af9" fill-rule="evenodd" fill-opacity="1" stroke="#000000" stroke-opacity="1" stroke-width="3.2"/>
<circle clip-path="url(#clip752)" cx="945.446" cy="710.35" r="14.4" fill="#009af9" fill-rule="evenodd" fill-opacity="1" stroke="#000000" stroke-opacity="1" stroke-width="3.2"/>
<circle clip-path="url(#clip752)" cx="1733.73" cy="743.722" r="14.4" fill="#009af9" fill-rule="evenodd" fill-opacity="1" stroke="#000000" stroke-opacity="1" stroke-width="3.2"/>
<circle clip-path="url(#clip752)" cx="1616.35" cy="720.039" r="14.4" fill="#009af9" fill-rule="evenodd" fill-opacity="1" stroke="#000000" stroke-opacity="1" stroke-width="3.2"/>
<circle clip-path="url(#clip752)" cx="844.766" cy="694.203" r="14.4" fill="#009af9" fill-rule="evenodd" fill-opacity="1" stroke="#000000" stroke-opacity="1" stroke-width="3.2"/>
<circle clip-path="url(#clip752)" cx="1322.85" cy="794.318" r="14.4" fill="#009af9" fill-rule="evenodd" fill-opacity="1" stroke="#000000" stroke-opacity="1" stroke-width="3.2"/>
<circle clip-path="url(#clip752)" cx="1096.19" cy="753.411" r="14.4" fill="#009af9" fill-rule="evenodd" fill-opacity="1" stroke="#000000" stroke-opacity="1" stroke-width="3.2"/>
<circle clip-path="url(#clip752)" cx="2095.69" cy="950.411" r="14.4" fill="#009af9" fill-rule="evenodd" fill-opacity="1" stroke="#000000" stroke-opacity="1" stroke-width="3.2"/>
<circle clip-path="url(#clip752)" cx="1369.56" cy="809.389" r="14.4" fill="#009af9" fill-rule="evenodd" fill-opacity="1" stroke="#000000" stroke-opacity="1" stroke-width="3.2"/>
<circle clip-path="url(#clip752)" cx="1277.95" cy="791.088" r="14.4" fill="#009af9" fill-rule="evenodd" fill-opacity="1" stroke="#000000" stroke-opacity="1" stroke-width="3.2"/>
<circle clip-path="url(#clip752)" cx="1316.58" cy="919.192" r="14.4" fill="#009af9" fill-rule="evenodd" fill-opacity="1" stroke="#000000" stroke-opacity="1" stroke-width="3.2"/>
<circle clip-path="url(#clip752)" cx="1089.69" cy="679.132" r="14.4" fill="#009af9" fill-rule="evenodd" fill-opacity="1" stroke="#000000" stroke-opacity="1" stroke-width="3.2"/>
<circle clip-path="url(#clip752)" cx="1130.56" cy="763.099" r="14.4" fill="#009af9" fill-rule="evenodd" fill-opacity="1" stroke="#000000" stroke-opacity="1" stroke-width="3.2"/>
<circle clip-path="url(#clip752)" cx="1058.26" cy="610.235" r="14.4" fill="#009af9" fill-rule="evenodd" fill-opacity="1" stroke="#000000" stroke-opacity="1" stroke-width="3.2"/>
<circle clip-path="url(#clip752)" cx="1112.36" cy="897.662" r="14.4" fill="#009af9" fill-rule="evenodd" fill-opacity="1" stroke="#000000" stroke-opacity="1" stroke-width="3.2"/>
<circle clip-path="url(#clip752)" cx="723.214" cy="713.58" r="14.4" fill="#009af9" fill-rule="evenodd" fill-opacity="1" stroke="#000000" stroke-opacity="1" stroke-width="3.2"/>
<circle clip-path="url(#clip752)" cx="1376.17" cy="947.182" r="14.4" fill="#009af9" fill-rule="evenodd" fill-opacity="1" stroke="#000000" stroke-opacity="1" stroke-width="3.2"/>
<circle clip-path="url(#clip752)" cx="1554.77" cy="886.897" r="14.4" fill="#009af9" fill-rule="evenodd" fill-opacity="1" stroke="#000000" stroke-opacity="1" stroke-width="3.2"/>
<circle clip-path="url(#clip752)" cx="752.262" cy="630.689" r="14.4" fill="#009af9" fill-rule="evenodd" fill-opacity="1" stroke="#000000" stroke-opacity="1" stroke-width="3.2"/>
<circle clip-path="url(#clip752)" cx="1067.09" cy="661.908" r="14.4" fill="#009af9" fill-rule="evenodd" fill-opacity="1" stroke="#000000" stroke-opacity="1" stroke-width="3.2"/>
<circle clip-path="url(#clip752)" cx="691.841" cy="607.006" r="14.4" fill="#009af9" fill-rule="evenodd" fill-opacity="1" stroke="#000000" stroke-opacity="1" stroke-width="3.2"/>
<circle clip-path="url(#clip752)" cx="1041.26" cy="700.662" r="14.4" fill="#009af9" fill-rule="evenodd" fill-opacity="1" stroke="#000000" stroke-opacity="1" stroke-width="3.2"/>
<circle clip-path="url(#clip752)" cx="1088.01" cy="931.034" r="14.4" fill="#009af9" fill-rule="evenodd" fill-opacity="1" stroke="#000000" stroke-opacity="1" stroke-width="3.2"/>
<circle clip-path="url(#clip752)" cx="458.918" cy="697.432" r="14.4" fill="#009af9" fill-rule="evenodd" fill-opacity="1" stroke="#000000" stroke-opacity="1" stroke-width="3.2"/>
<circle clip-path="url(#clip752)" cx="1137.5" cy="778.17" r="14.4" fill="#009af9" fill-rule="evenodd" fill-opacity="1" stroke="#000000" stroke-opacity="1" stroke-width="3.2"/>
<circle clip-path="url(#clip752)" cx="989.355" cy="634.995" r="14.4" fill="#009af9" fill-rule="evenodd" fill-opacity="1" stroke="#000000" stroke-opacity="1" stroke-width="3.2"/>
<circle clip-path="url(#clip752)" cx="1190.42" cy="713.58" r="14.4" fill="#009af9" fill-rule="evenodd" fill-opacity="1" stroke="#000000" stroke-opacity="1" stroke-width="3.2"/>
<circle clip-path="url(#clip752)" cx="1165.73" cy="824.46" r="14.4" fill="#009af9" fill-rule="evenodd" fill-opacity="1" stroke="#000000" stroke-opacity="1" stroke-width="3.2"/>
<circle clip-path="url(#clip752)" cx="1542.84" cy="845.99" r="14.4" fill="#009af9" fill-rule="evenodd" fill-opacity="1" stroke="#000000" stroke-opacity="1" stroke-width="3.2"/>
<circle clip-path="url(#clip752)" cx="1210.52" cy="904.121" r="14.4" fill="#009af9" fill-rule="evenodd" fill-opacity="1" stroke="#000000" stroke-opacity="1" stroke-width="3.2"/>
<circle clip-path="url(#clip752)" cx="930.789" cy="864.291" r="14.4" fill="#009af9" fill-rule="evenodd" fill-opacity="1" stroke="#000000" stroke-opacity="1" stroke-width="3.2"/>
<circle clip-path="url(#clip752)" cx="1683.8" cy="929.957" r="14.4" fill="#009af9" fill-rule="evenodd" fill-opacity="1" stroke="#000000" stroke-opacity="1" stroke-width="3.2"/>
<circle clip-path="url(#clip752)" cx="935.547" cy="804.006" r="14.4" fill="#009af9" fill-rule="evenodd" fill-opacity="1" stroke="#000000" stroke-opacity="1" stroke-width="3.2"/>
<circle clip-path="url(#clip752)" cx="1682.57" cy="982.706" r="14.4" fill="#009af9" fill-rule="evenodd" fill-opacity="1" stroke="#000000" stroke-opacity="1" stroke-width="3.2"/>
<circle clip-path="url(#clip752)" cx="1122.11" cy="814.771" r="14.4" fill="#009af9" fill-rule="evenodd" fill-opacity="1" stroke="#000000" stroke-opacity="1" stroke-width="3.2"/>
<circle clip-path="url(#clip752)" cx="1872.06" cy="770.635" r="14.4" fill="#009af9" fill-rule="evenodd" fill-opacity="1" stroke="#000000" stroke-opacity="1" stroke-width="3.2"/>
<circle clip-path="url(#clip752)" cx="1301.63" cy="878.285" r="14.4" fill="#009af9" fill-rule="evenodd" fill-opacity="1" stroke="#000000" stroke-opacity="1" stroke-width="3.2"/>
<circle clip-path="url(#clip752)" cx="1288.39" cy="717.886" r="14.4" fill="#009af9" fill-rule="evenodd" fill-opacity="1" stroke="#000000" stroke-opacity="1" stroke-width="3.2"/>
<circle clip-path="url(#clip752)" cx="1168.61" cy="838.455" r="14.4" fill="#009af9" fill-rule="evenodd" fill-opacity="1" stroke="#000000" stroke-opacity="1" stroke-width="3.2"/>
<circle clip-path="url(#clip752)" cx="438.398" cy="498.279" r="14.4" fill="#009af9" fill-rule="evenodd" fill-opacity="1" stroke="#000000" stroke-opacity="1" stroke-width="3.2"/>
<circle clip-path="url(#clip752)" cx="774.198" cy="520.886" r="14.4" fill="#009af9" fill-rule="evenodd" fill-opacity="1" stroke="#000000" stroke-opacity="1" stroke-width="3.2"/>
<circle clip-path="url(#clip752)" cx="823.179" cy="617.771" r="14.4" fill="#009af9" fill-rule="evenodd" fill-opacity="1" stroke="#000000" stroke-opacity="1" stroke-width="3.2"/>
<circle clip-path="url(#clip752)" cx="1241.71" cy="740.493" r="14.4" fill="#009af9" fill-rule="evenodd" fill-opacity="1" stroke="#000000" stroke-opacity="1" stroke-width="3.2"/>
<circle clip-path="url(#clip752)" cx="1225.28" cy="985.936" r="14.4" fill="#009af9" fill-rule="evenodd" fill-opacity="1" stroke="#000000" stroke-opacity="1" stroke-width="3.2"/>
<circle clip-path="url(#clip752)" cx="724.695" cy="392.781" r="14.4" fill="#009af9" fill-rule="evenodd" fill-opacity="1" stroke="#000000" stroke-opacity="1" stroke-width="3.2"/>
<circle clip-path="url(#clip752)" cx="1422.93" cy="884.744" r="14.4" fill="#009af9" fill-rule="evenodd" fill-opacity="1" stroke="#000000" stroke-opacity="1" stroke-width="3.2"/>
<circle clip-path="url(#clip752)" cx="482.579" cy="497.202" r="14.4" fill="#009af9" fill-rule="evenodd" fill-opacity="1" stroke="#000000" stroke-opacity="1" stroke-width="3.2"/>
<circle clip-path="url(#clip752)" cx="1063.62" cy="749.105" r="14.4" fill="#009af9" fill-rule="evenodd" fill-opacity="1" stroke="#000000" stroke-opacity="1" stroke-width="3.2"/>
<circle clip-path="url(#clip752)" cx="366.819" cy="516.58" r="14.4" fill="#009af9" fill-rule="evenodd" fill-opacity="1" stroke="#000000" stroke-opacity="1" stroke-width="3.2"/>
<circle clip-path="url(#clip752)" cx="1144.66" cy="675.902" r="14.4" fill="#009af9" fill-rule="evenodd" fill-opacity="1" stroke="#000000" stroke-opacity="1" stroke-width="3.2"/>
<circle clip-path="url(#clip752)" cx="1514.92" cy="783.553" r="14.4" fill="#009af9" fill-rule="evenodd" fill-opacity="1" stroke="#000000" stroke-opacity="1" stroke-width="3.2"/>
<circle clip-path="url(#clip752)" cx="841.874" cy="693.126" r="14.4" fill="#009af9" fill-rule="evenodd" fill-opacity="1" stroke="#000000" stroke-opacity="1" stroke-width="3.2"/>
<circle clip-path="url(#clip752)" cx="1536.22" cy="1023.61" r="14.4" fill="#009af9" fill-rule="evenodd" fill-opacity="1" stroke="#000000" stroke-opacity="1" stroke-width="3.2"/>
<circle clip-path="url(#clip752)" cx="1064.65" cy="513.35" r="14.4" fill="#009af9" fill-rule="evenodd" fill-opacity="1" stroke="#000000" stroke-opacity="1" stroke-width="3.2"/>
<circle clip-path="url(#clip752)" cx="728.725" cy="574.711" r="14.4" fill="#009af9" fill-rule="evenodd" fill-opacity="1" stroke="#000000" stroke-opacity="1" stroke-width="3.2"/>
<circle clip-path="url(#clip752)" cx="1260.55" cy="819.077" r="14.4" fill="#009af9" fill-rule="evenodd" fill-opacity="1" stroke="#000000" stroke-opacity="1" stroke-width="3.2"/>
<circle clip-path="url(#clip752)" cx="940.181" cy="498.279" r="14.4" fill="#009af9" fill-rule="evenodd" fill-opacity="1" stroke="#000000" stroke-opacity="1" stroke-width="3.2"/>
<circle clip-path="url(#clip752)" cx="1216.96" cy="629.613" r="14.4" fill="#009af9" fill-rule="evenodd" fill-opacity="1" stroke="#000000" stroke-opacity="1" stroke-width="3.2"/>
<circle clip-path="url(#clip752)" cx="957.032" cy="589.782" r="14.4" fill="#009af9" fill-rule="evenodd" fill-opacity="1" stroke="#000000" stroke-opacity="1" stroke-width="3.2"/>
<circle clip-path="url(#clip752)" cx="1324.34" cy="639.301" r="14.4" fill="#009af9" fill-rule="evenodd" fill-opacity="1" stroke="#000000" stroke-opacity="1" stroke-width="3.2"/>
<circle clip-path="url(#clip752)" cx="1537.22" cy="934.264" r="14.4" fill="#009af9" fill-rule="evenodd" fill-opacity="1" stroke="#000000" stroke-opacity="1" stroke-width="3.2"/>
<circle clip-path="url(#clip752)" cx="857.609" cy="741.569" r="14.4" fill="#009af9" fill-rule="evenodd" fill-opacity="1" stroke="#000000" stroke-opacity="1" stroke-width="3.2"/>
<circle clip-path="url(#clip752)" cx="1150.21" cy="802.93" r="14.4" fill="#009af9" fill-rule="evenodd" fill-opacity="1" stroke="#000000" stroke-opacity="1" stroke-width="3.2"/>
<circle clip-path="url(#clip752)" cx="1039.05" cy="767.405" r="14.4" fill="#009af9" fill-rule="evenodd" fill-opacity="1" stroke="#000000" stroke-opacity="1" stroke-width="3.2"/>
<circle clip-path="url(#clip752)" cx="1963.7" cy="1138.8" r="14.4" fill="#009af9" fill-rule="evenodd" fill-opacity="1" stroke="#000000" stroke-opacity="1" stroke-width="3.2"/>
<circle clip-path="url(#clip752)" cx="1122.29" cy="675.902" r="14.4" fill="#009af9" fill-rule="evenodd" fill-opacity="1" stroke="#000000" stroke-opacity="1" stroke-width="3.2"/>
<circle clip-path="url(#clip752)" cx="760.89" cy="335.727" r="14.4" fill="#009af9" fill-rule="evenodd" fill-opacity="1" stroke="#000000" stroke-opacity="1" stroke-width="3.2"/>
<circle clip-path="url(#clip752)" cx="701.137" cy="274.366" r="14.4" fill="#009af9" fill-rule="evenodd" fill-opacity="1" stroke="#000000" stroke-opacity="1" stroke-width="3.2"/>
<circle clip-path="url(#clip752)" cx="1067.11" cy="771.711" r="14.4" fill="#009af9" fill-rule="evenodd" fill-opacity="1" stroke="#000000" stroke-opacity="1" stroke-width="3.2"/>
<circle clip-path="url(#clip752)" cx="1112.45" cy="683.438" r="14.4" fill="#009af9" fill-rule="evenodd" fill-opacity="1" stroke="#000000" stroke-opacity="1" stroke-width="3.2"/>
<circle clip-path="url(#clip752)" cx="1588.85" cy="886.897" r="14.4" fill="#009af9" fill-rule="evenodd" fill-opacity="1" stroke="#000000" stroke-opacity="1" stroke-width="3.2"/>
<circle clip-path="url(#clip752)" cx="783.591" cy="511.197" r="14.4" fill="#009af9" fill-rule="evenodd" fill-opacity="1" stroke="#000000" stroke-opacity="1" stroke-width="3.2"/>
<circle clip-path="url(#clip752)" cx="855.155" cy="590.858" r="14.4" fill="#009af9" fill-rule="evenodd" fill-opacity="1" stroke="#000000" stroke-opacity="1" stroke-width="3.2"/>
<circle clip-path="url(#clip752)" cx="1436.51" cy="992.395" r="14.4" fill="#009af9" fill-rule="evenodd" fill-opacity="1" stroke="#000000" stroke-opacity="1" stroke-width="3.2"/>
<circle clip-path="url(#clip752)" cx="971.121" cy="819.077" r="14.4" fill="#009af9" fill-rule="evenodd" fill-opacity="1" stroke="#000000" stroke-opacity="1" stroke-width="3.2"/>
<circle clip-path="url(#clip752)" cx="1284.1" cy="683.438" r="14.4" fill="#009af9" fill-rule="evenodd" fill-opacity="1" stroke="#000000" stroke-opacity="1" stroke-width="3.2"/>
<circle clip-path="url(#clip752)" cx="1544.86" cy="915.963" r="14.4" fill="#009af9" fill-rule="evenodd" fill-opacity="1" stroke="#000000" stroke-opacity="1" stroke-width="3.2"/>
<circle clip-path="url(#clip752)" cx="520.387" cy="160.256" r="14.4" fill="#009af9" fill-rule="evenodd" fill-opacity="1" stroke="#000000" stroke-opacity="1" stroke-width="3.2"/>
<circle clip-path="url(#clip752)" cx="1021.97" cy="552.104" r="14.4" fill="#009af9" fill-rule="evenodd" fill-opacity="1" stroke="#000000" stroke-opacity="1" stroke-width="3.2"/>
<circle clip-path="url(#clip752)" cx="1103.77" cy="565.022" r="14.4" fill="#009af9" fill-rule="evenodd" fill-opacity="1" stroke="#000000" stroke-opacity="1" stroke-width="3.2"/>
<circle clip-path="url(#clip752)" cx="1385.52" cy="700.662" r="14.4" fill="#009af9" fill-rule="evenodd" fill-opacity="1" stroke="#000000" stroke-opacity="1" stroke-width="3.2"/>
<circle clip-path="url(#clip752)" cx="767.046" cy="477.825" r="14.4" fill="#009af9" fill-rule="evenodd" fill-opacity="1" stroke="#000000" stroke-opacity="1" stroke-width="3.2"/>
<circle clip-path="url(#clip752)" cx="1659.99" cy="844.914" r="14.4" fill="#009af9" fill-rule="evenodd" fill-opacity="1" stroke="#000000" stroke-opacity="1" stroke-width="3.2"/>
<circle clip-path="url(#clip752)" cx="1153.46" cy="768.482" r="14.4" fill="#009af9" fill-rule="evenodd" fill-opacity="1" stroke="#000000" stroke-opacity="1" stroke-width="3.2"/>
<circle clip-path="url(#clip752)" cx="1259.16" cy="772.788" r="14.4" fill="#009af9" fill-rule="evenodd" fill-opacity="1" stroke="#000000" stroke-opacity="1" stroke-width="3.2"/>
<circle clip-path="url(#clip752)" cx="1624.29" cy="865.367" r="14.4" fill="#009af9" fill-rule="evenodd" fill-opacity="1" stroke="#000000" stroke-opacity="1" stroke-width="3.2"/>
<circle clip-path="url(#clip752)" cx="712.482" cy="548.875" r="14.4" fill="#009af9" fill-rule="evenodd" fill-opacity="1" stroke="#000000" stroke-opacity="1" stroke-width="3.2"/>
<circle clip-path="url(#clip752)" cx="1890.1" cy="1181.86" r="14.4" fill="#009af9" fill-rule="evenodd" fill-opacity="1" stroke="#000000" stroke-opacity="1" stroke-width="3.2"/>
<circle clip-path="url(#clip752)" cx="1023.51" cy="660.831" r="14.4" fill="#009af9" fill-rule="evenodd" fill-opacity="1" stroke="#000000" stroke-opacity="1" stroke-width="3.2"/>
<circle clip-path="url(#clip752)" cx="1556.4" cy="870.75" r="14.4" fill="#009af9" fill-rule="evenodd" fill-opacity="1" stroke="#000000" stroke-opacity="1" stroke-width="3.2"/>
<circle clip-path="url(#clip752)" cx="1077.04" cy="826.613" r="14.4" fill="#009af9" fill-rule="evenodd" fill-opacity="1" stroke="#000000" stroke-opacity="1" stroke-width="3.2"/>
<circle clip-path="url(#clip752)" cx="1363.07" cy="890.127" r="14.4" fill="#009af9" fill-rule="evenodd" fill-opacity="1" stroke="#000000" stroke-opacity="1" stroke-width="3.2"/>
<circle clip-path="url(#clip752)" cx="1066.93" cy="807.236" r="14.4" fill="#009af9" fill-rule="evenodd" fill-opacity="1" stroke="#000000" stroke-opacity="1" stroke-width="3.2"/>
<circle clip-path="url(#clip752)" cx="1239.2" cy="704.968" r="14.4" fill="#009af9" fill-rule="evenodd" fill-opacity="1" stroke="#000000" stroke-opacity="1" stroke-width="3.2"/>
<circle clip-path="url(#clip752)" cx="392.619" cy="427.23" r="14.4" fill="#009af9" fill-rule="evenodd" fill-opacity="1" stroke="#000000" stroke-opacity="1" stroke-width="3.2"/>
<circle clip-path="url(#clip752)" cx="974.073" cy="835.225" r="14.4" fill="#009af9" fill-rule="evenodd" fill-opacity="1" stroke="#000000" stroke-opacity="1" stroke-width="3.2"/>
<circle clip-path="url(#clip752)" cx="925.157" cy="569.328" r="14.4" fill="#009af9" fill-rule="evenodd" fill-opacity="1" stroke="#000000" stroke-opacity="1" stroke-width="3.2"/>
<circle clip-path="url(#clip752)" cx="1202.56" cy="811.542" r="14.4" fill="#009af9" fill-rule="evenodd" fill-opacity="1" stroke="#000000" stroke-opacity="1" stroke-width="3.2"/>
<circle clip-path="url(#clip752)" cx="1637.72" cy="966.559" r="14.4" fill="#009af9" fill-rule="evenodd" fill-opacity="1" stroke="#000000" stroke-opacity="1" stroke-width="3.2"/>
<circle clip-path="url(#clip752)" cx="987.178" cy="413.235" r="14.4" fill="#009af9" fill-rule="evenodd" fill-opacity="1" stroke="#000000" stroke-opacity="1" stroke-width="3.2"/>
<circle clip-path="url(#clip752)" cx="1928.44" cy="1107.58" r="14.4" fill="#009af9" fill-rule="evenodd" fill-opacity="1" stroke="#000000" stroke-opacity="1" stroke-width="3.2"/>
<circle clip-path="url(#clip752)" cx="1041.84" cy="675.902" r="14.4" fill="#009af9" fill-rule="evenodd" fill-opacity="1" stroke="#000000" stroke-opacity="1" stroke-width="3.2"/>
<circle clip-path="url(#clip752)" cx="1298.72" cy="1063.44" r="14.4" fill="#009af9" fill-rule="evenodd" fill-opacity="1" stroke="#000000" stroke-opacity="1" stroke-width="3.2"/>
<circle clip-path="url(#clip752)" cx="1664.53" cy="1059.14" r="14.4" fill="#009af9" fill-rule="evenodd" fill-opacity="1" stroke="#000000" stroke-opacity="1" stroke-width="3.2"/>
<circle clip-path="url(#clip752)" cx="865.566" cy="502.585" r="14.4" fill="#009af9" fill-rule="evenodd" fill-opacity="1" stroke="#000000" stroke-opacity="1" stroke-width="3.2"/>
<circle clip-path="url(#clip752)" cx="945.836" cy="533.804" r="14.4" fill="#009af9" fill-rule="evenodd" fill-opacity="1" stroke="#000000" stroke-opacity="1" stroke-width="3.2"/>
<circle clip-path="url(#clip752)" cx="833.133" cy="440.148" r="14.4" fill="#009af9" fill-rule="evenodd" fill-opacity="1" stroke="#000000" stroke-opacity="1" stroke-width="3.2"/>
<circle clip-path="url(#clip752)" cx="1567.64" cy="931.034" r="14.4" fill="#009af9" fill-rule="evenodd" fill-opacity="1" stroke="#000000" stroke-opacity="1" stroke-width="3.2"/>
<circle clip-path="url(#clip752)" cx="1246.67" cy="748.028" r="14.4" fill="#009af9" fill-rule="evenodd" fill-opacity="1" stroke="#000000" stroke-opacity="1" stroke-width="3.2"/>
<circle clip-path="url(#clip752)" cx="1278.59" cy="728.651" r="14.4" fill="#009af9" fill-rule="evenodd" fill-opacity="1" stroke="#000000" stroke-opacity="1" stroke-width="3.2"/>
<circle clip-path="url(#clip752)" cx="1041.55" cy="748.028" r="14.4" fill="#009af9" fill-rule="evenodd" fill-opacity="1" stroke="#000000" stroke-opacity="1" stroke-width="3.2"/>
<circle clip-path="url(#clip752)" cx="2253.84" cy="1386.4" r="14.4" fill="#009af9" fill-rule="evenodd" fill-opacity="1" stroke="#000000" stroke-opacity="1" stroke-width="3.2"/>
<circle clip-path="url(#clip752)" cx="857.673" cy="602.7" r="14.4" fill="#009af9" fill-rule="evenodd" fill-opacity="1" stroke="#000000" stroke-opacity="1" stroke-width="3.2"/>
<circle clip-path="url(#clip752)" cx="787.662" cy="450.913" r="14.4" fill="#009af9" fill-rule="evenodd" fill-opacity="1" stroke="#000000" stroke-opacity="1" stroke-width="3.2"/>
<circle clip-path="url(#clip752)" cx="1431.4" cy="866.444" r="14.4" fill="#009af9" fill-rule="evenodd" fill-opacity="1" stroke="#000000" stroke-opacity="1" stroke-width="3.2"/>
<circle clip-path="url(#clip752)" cx="1350.28" cy="637.148" r="14.4" fill="#009af9" fill-rule="evenodd" fill-opacity="1" stroke="#000000" stroke-opacity="1" stroke-width="3.2"/>
<circle clip-path="url(#clip752)" cx="1731.52" cy="572.558" r="14.4" fill="#009af9" fill-rule="evenodd" fill-opacity="1" stroke="#000000" stroke-opacity="1" stroke-width="3.2"/>
<circle clip-path="url(#clip752)" cx="1679.14" cy="903.045" r="14.4" fill="#009af9" fill-rule="evenodd" fill-opacity="1" stroke="#000000" stroke-opacity="1" stroke-width="3.2"/>
<circle clip-path="url(#clip752)" cx="997.581" cy="551.028" r="14.4" fill="#009af9" fill-rule="evenodd" fill-opacity="1" stroke="#000000" stroke-opacity="1" stroke-width="3.2"/>
<circle clip-path="url(#clip752)" cx="1039.82" cy="391.705" r="14.4" fill="#009af9" fill-rule="evenodd" fill-opacity="1" stroke="#000000" stroke-opacity="1" stroke-width="3.2"/>
<circle clip-path="url(#clip752)" cx="1292.84" cy="535.957" r="14.4" fill="#009af9" fill-rule="evenodd" fill-opacity="1" stroke="#000000" stroke-opacity="1" stroke-width="3.2"/>
<circle clip-path="url(#clip752)" cx="1024.21" cy="575.787" r="14.4" fill="#009af9" fill-rule="evenodd" fill-opacity="1" stroke="#000000" stroke-opacity="1" stroke-width="3.2"/>
<circle clip-path="url(#clip752)" cx="1149.25" cy="632.842" r="14.4" fill="#009af9" fill-rule="evenodd" fill-opacity="1" stroke="#000000" stroke-opacity="1" stroke-width="3.2"/>
<circle clip-path="url(#clip752)" cx="1319.04" cy="882.591" r="14.4" fill="#009af9" fill-rule="evenodd" fill-opacity="1" stroke="#000000" stroke-opacity="1" stroke-width="3.2"/>
<circle clip-path="url(#clip752)" cx="976.755" cy="636.072" r="14.4" fill="#009af9" fill-rule="evenodd" fill-opacity="1" stroke="#000000" stroke-opacity="1" stroke-width="3.2"/>
<circle clip-path="url(#clip752)" cx="1356.07" cy="685.591" r="14.4" fill="#009af9" fill-rule="evenodd" fill-opacity="1" stroke="#000000" stroke-opacity="1" stroke-width="3.2"/>
<circle clip-path="url(#clip752)" cx="1127.76" cy="530.574" r="14.4" fill="#009af9" fill-rule="evenodd" fill-opacity="1" stroke="#000000" stroke-opacity="1" stroke-width="3.2"/>
<circle clip-path="url(#clip752)" cx="1518.83" cy="665.137" r="14.4" fill="#009af9" fill-rule="evenodd" fill-opacity="1" stroke="#000000" stroke-opacity="1" stroke-width="3.2"/>
<circle clip-path="url(#clip752)" cx="953.831" cy="647.913" r="14.4" fill="#009af9" fill-rule="evenodd" fill-opacity="1" stroke="#000000" stroke-opacity="1" stroke-width="3.2"/>
<circle clip-path="url(#clip752)" cx="1587.42" cy="919.192" r="14.4" fill="#009af9" fill-rule="evenodd" fill-opacity="1" stroke="#000000" stroke-opacity="1" stroke-width="3.2"/>
<circle clip-path="url(#clip752)" cx="1566.06" cy="898.739" r="14.4" fill="#009af9" fill-rule="evenodd" fill-opacity="1" stroke="#000000" stroke-opacity="1" stroke-width="3.2"/>
<circle clip-path="url(#clip752)" cx="1490.97" cy="726.498" r="14.4" fill="#009af9" fill-rule="evenodd" fill-opacity="1" stroke="#000000" stroke-opacity="1" stroke-width="3.2"/>
<circle clip-path="url(#clip752)" cx="1471.92" cy="876.132" r="14.4" fill="#009af9" fill-rule="evenodd" fill-opacity="1" stroke="#000000" stroke-opacity="1" stroke-width="3.2"/>
<circle clip-path="url(#clip752)" cx="1982.05" cy="932.11" r="14.4" fill="#009af9" fill-rule="evenodd" fill-opacity="1" stroke="#000000" stroke-opacity="1" stroke-width="3.2"/>
<circle clip-path="url(#clip752)" cx="852.611" cy="573.634" r="14.4" fill="#009af9" fill-rule="evenodd" fill-opacity="1" stroke="#000000" stroke-opacity="1" stroke-width="3.2"/>
<circle clip-path="url(#clip752)" cx="1321.3" cy="992.395" r="14.4" fill="#009af9" fill-rule="evenodd" fill-opacity="1" stroke="#000000" stroke-opacity="1" stroke-width="3.2"/>
<circle clip-path="url(#clip752)" cx="1077.39" cy="687.744" r="14.4" fill="#009af9" fill-rule="evenodd" fill-opacity="1" stroke="#000000" stroke-opacity="1" stroke-width="3.2"/>
<circle clip-path="url(#clip752)" cx="2119.15" cy="1109.73" r="14.4" fill="#009af9" fill-rule="evenodd" fill-opacity="1" stroke="#000000" stroke-opacity="1" stroke-width="3.2"/>
<circle clip-path="url(#clip752)" cx="1486.66" cy="1005.31" r="14.4" fill="#009af9" fill-rule="evenodd" fill-opacity="1" stroke="#000000" stroke-opacity="1" stroke-width="3.2"/>
<circle clip-path="url(#clip752)" cx="1982.8" cy="1056.99" r="14.4" fill="#009af9" fill-rule="evenodd" fill-opacity="1" stroke="#000000" stroke-opacity="1" stroke-width="3.2"/>
<circle clip-path="url(#clip752)" cx="1718.95" cy="973.018" r="14.4" fill="#009af9" fill-rule="evenodd" fill-opacity="1" stroke="#000000" stroke-opacity="1" stroke-width="3.2"/>
<circle clip-path="url(#clip752)" cx="956.715" cy="642.531" r="14.4" fill="#009af9" fill-rule="evenodd" fill-opacity="1" stroke="#000000" stroke-opacity="1" stroke-width="3.2"/>
<circle clip-path="url(#clip752)" cx="1634.47" cy="1001.01" r="14.4" fill="#009af9" fill-rule="evenodd" fill-opacity="1" stroke="#000000" stroke-opacity="1" stroke-width="3.2"/>
<circle clip-path="url(#clip752)" cx="1308.4" cy="540.263" r="14.4" fill="#009af9" fill-rule="evenodd" fill-opacity="1" stroke="#000000" stroke-opacity="1" stroke-width="3.2"/>
<circle clip-path="url(#clip752)" cx="1676.06" cy="1078.52" r="14.4" fill="#009af9" fill-rule="evenodd" fill-opacity="1" stroke="#000000" stroke-opacity="1" stroke-width="3.2"/>
<circle clip-path="url(#clip752)" cx="2294.03" cy="979.477" r="14.4" fill="#009af9" fill-rule="evenodd" fill-opacity="1" stroke="#000000" stroke-opacity="1" stroke-width="3.2"/>
<circle clip-path="url(#clip752)" cx="1639.95" cy="903.045" r="14.4" fill="#009af9" fill-rule="evenodd" fill-opacity="1" stroke="#000000" stroke-opacity="1" stroke-width="3.2"/>
<circle clip-path="url(#clip752)" cx="1834.41" cy="1040.84" r="14.4" fill="#009af9" fill-rule="evenodd" fill-opacity="1" stroke="#000000" stroke-opacity="1" stroke-width="3.2"/>
</svg>
